<?xml version="1.0" standalone="no"?>
<!DOCTYPE svg PUBLIC "-//W3C//DTD SVG 20010904//EN"
 "http://www.w3.org/TR/2001/REC-SVG-20010904/DTD/svg10.dtd">
<svg version="1.0" xmlns="http://www.w3.org/2000/svg"
 width="580.000000pt" height="385.000000pt" viewBox="0 0 580.000000 385.000000"
 preserveAspectRatio="xMidYMid meet">

<g transform="translate(0.000000,385.000000) scale(0.100000,-0.100000)"
fill="#000000" stroke="none">
<path d="M2735 3435 c-571 -92 -1036 -488 -1215 -1035 -64 -195 -91 -421 -71
-605 8 -80 8 -102 -3 -115 -8 -8 -28 -42 -44 -76 -28 -56 -34 -62 -69 -67 -21
-4 -50 -7 -65 -7 -25 0 -32 -9 -68 -79 l-40 -80 -60 -7 -61 -7 -39 -77 -39
-77 -66 -9 -67 -9 -27 -70 -26 -70 -79 -7 c-43 -4 -80 -9 -81 -10 -11 -15 -61
-165 -56 -170 3 -4 296 0 650 8 l643 15 67 -63 c209 -200 469 -335 766 -395
137 -27 454 -25 591 5 317 69 568 207 794 436 l74 76 186 0 c102 0 264 -5 360
-11 219 -13 520 -3 520 17 0 8 3 14 8 14 4 0 13 4 20 9 11 6 -1 38 -52 140
l-66 131 -54 0 -55 0 -53 78 -53 77 -58 3 -57 3 -40 80 -40 79 -49 0 -49 0
-51 80 c-29 44 -55 80 -59 80 -4 0 -7 89 -7 197 -1 167 -5 214 -24 303 -69
321 -194 552 -421 781 -221 222 -462 354 -769 420 -128 27 -416 35 -546 14z
m366 -6 c204 -20 353 -61 524 -144 431 -208 719 -576 827 -1057 20 -89 23
-131 23 -300 0 -108 -2 -199 -5 -201 -3 -3 -26 -1 -51 4 -43 9 -47 13 -77 74
l-31 63 -65 7 -64 7 -23 62 c-36 100 -38 102 -111 105 -34 1 -66 5 -70 10 -5
4 -18 38 -31 76 l-24 70 -65 10 c-81 13 -102 27 -126 89 -19 50 -20 50 -91 70
l-71 21 -1 70 c-1 38 0 109 1 156 1 60 -3 89 -12 96 -13 10 -372 137 -438 155
-30 8 -77 -3 -350 -85 l-315 -94 -3 -136 c-3 -158 6 -146 -122 -173 -47 -9
-90 -21 -96 -26 -6 -4 -22 -39 -35 -78 -13 -39 -30 -72 -39 -74 -8 -2 -39 -10
-68 -16 -52 -12 -53 -13 -87 -80 -36 -72 -40 -75 -118 -86 -47 -6 -48 -7 -85
-78 l-37 -71 -65 -11 c-35 -7 -66 -16 -68 -20 -2 -5 -18 -38 -36 -74 -28 -57
-37 -66 -70 -74 -48 -13 -53 -5 -62 103 -58 694 371 1340 1036 1561 200 67
401 90 601 69z m-24 -596 c-9 -9 -589 -164 -600 -160 -5 1 30 15 79 30 443
135 552 162 521 130z m391 -100 c46 -15 82 -33 82 -40 0 -7 -4 -13 -8 -13 -13
0 -432 146 -438 153 -3 3 -3 10 0 15 3 5 66 -12 143 -39 76 -26 175 -60 221
-76z m-388 2 l0 -54 -37 -10 c-61 -17 -563 -141 -568 -141 -3 0 -5 22 -5 48
l0 49 118 32 c64 18 196 54 292 80 96 27 181 49 188 50 8 1 12 -16 12 -54z
m249 -20 c118 -41 216 -75 218 -75 1 0 3 -21 3 -46 0 -39 -3 -45 -17 -40 -10
3 -90 26 -178 51 -88 25 -181 53 -207 61 l-48 16 0 54 c0 30 3 54 8 54 4 0
104 -34 221 -75z m-249 -124 l0 -48 -42 -6 c-24 -3 -59 -9 -79 -12 l-37 -7 -4
41 c-3 40 -2 42 32 51 19 5 51 13 70 18 59 17 60 16 60 -37z m270 -19 l195
-57 3 -53 c4 -62 3 -62 -101 -31 -75 22 -106 48 -107 86 0 12 -9 27 -19 33
-36 19 -44 13 -38 -30 3 -22 3 -40 0 -40 -15 0 -160 45 -170 53 -8 5 -13 31
-13 59 0 59 -27 61 250 -20z m-490 -32 c0 -50 -20 -53 -49 -7 -19 30 -19 33
-3 39 41 16 52 10 52 -32z m-94 11 c-11 -4 -25 -23 -31 -42 -13 -39 -40 -50
-48 -19 -8 31 -43 26 -42 -7 0 -25 -5 -28 -70 -44 -105 -27 -117 -26 -113 13
l3 33 135 37 c123 33 220 50 166 29z m293 -81 c6 -28 11 -56 11 -63 0 -8 -55
-24 -150 -43 -82 -17 -150 -29 -150 -25 0 3 25 38 56 76 53 67 58 71 122 87
100 25 99 25 111 -32z m97 25 c26 -11 33 -21 44 -65 7 -28 10 -53 7 -56 -2 -3
-29 1 -58 8 -56 15 -57 16 -73 101 -7 37 -7 38 21 31 15 -4 42 -12 59 -19z
m138 -82 c39 -37 105 -99 146 -138 71 -67 202 -191 355 -335 39 -37 194 -183
345 -325 151 -143 280 -264 286 -270 6 -5 104 -97 217 -204 114 -107 205 -196
203 -198 -5 -5 -398 17 -407 23 -3 2 -21 42 -39 89 l-33 85 -47 0 -47 0 -42
89 -43 90 -45 3 -46 3 -36 90 -36 90 -45 5 -45 5 -18 70 c-23 86 -30 95 -76
95 -20 0 -41 4 -47 8 -6 4 -22 41 -35 82 l-24 75 -47 9 -47 9 -22 66 c-26 80
-29 83 -81 96 -42 10 -42 11 -59 79 -19 75 -25 82 -81 91 -40 7 -43 12 -53 77
-9 60 -14 66 -65 81 -41 12 -45 16 -57 62 -22 85 -20 85 71 -2z m-465 38 c-8
-11 -124 -156 -259 -322 -135 -166 -296 -365 -359 -443 -567 -702 -646 -796
-663 -796 -13 0 -17 4 -12 13 7 11 339 413 779 943 82 99 233 280 334 402 101
122 186 222 188 222 3 0 -1 -9 -8 -19z m-62 -10 c-10 -4 -18 -11 -17 -16 1 -6
-27 -18 -62 -27 -58 -16 -37 -18 28 -2 47 11 20 -6 -33 -22 l-48 -14 45 5 c26
3 37 2 27 -3 -10 -4 -17 -12 -15 -17 2 -6 -8 -12 -22 -14 -23 -3 -23 -4 -5
-11 15 -5 4 -11 -45 -23 -64 -15 -64 -16 -15 -11 30 2 43 1 32 -4 -10 -4 -18
-12 -17 -17 1 -5 -7 -12 -17 -16 -13 -6 -14 -8 -3 -8 25 -2 -10 -20 -40 -22
l-25 -1 25 -8 c21 -7 22 -8 5 -10 -11 -1 -15 -4 -7 -7 18 -7 4 -23 -21 -23
-18 0 -19 -2 -7 -10 20 -13 13 -15 -165 -45 -153 -26 -214 -41 -115 -27 30 4
80 7 110 6 38 -1 48 2 35 8 -13 5 -3 7 30 4 36 -4 43 -3 25 4 l-25 8 25 1 c34
1 58 -14 35 -23 -9 -3 -14 -10 -10 -16 3 -5 -9 -14 -27 -19 -18 -5 -25 -10
-16 -10 17 -1 17 -2 1 -21 -10 -11 -24 -20 -33 -21 -10 0 -11 -2 -3 -6 8 -3 3
-13 -14 -29 -14 -13 -23 -24 -19 -24 3 0 -3 -9 -14 -20 -11 -11 -25 -20 -31
-20 -5 0 -7 -5 -4 -11 4 -5 -5 -21 -18 -33 -14 -13 -23 -27 -20 -30 4 -3 -4
-6 -16 -6 -12 0 -19 -4 -16 -10 8 -13 -22 -43 -48 -47 -12 -2 -23 -6 -26 -10
-3 -3 4 -3 17 0 12 3 22 1 22 -4 0 -5 -7 -9 -16 -9 -10 0 -14 -6 -10 -15 4
-11 -3 -15 -27 -16 -27 -1 -29 -2 -9 -7 l23 -7 -21 -17 c-11 -10 -28 -18 -38
-19 -10 0 -12 -3 -4 -6 23 -9 12 -23 -20 -24 -23 -1 -26 -3 -11 -6 19 -4 21
-7 10 -24 -6 -10 -20 -19 -31 -19 -15 0 -16 -3 -6 -15 10 -12 10 -15 -2 -15
-8 0 -21 -11 -28 -25 -7 -14 -23 -25 -34 -26 -12 0 -15 -3 -8 -6 25 -10 11
-23 -25 -24 -38 -1 -38 -1 -8 -9 29 -8 29 -8 7 -15 -18 -6 -20 -10 -10 -16 10
-7 9 -9 -4 -9 -10 0 -18 -7 -18 -15 0 -11 -13 -15 -47 -17 -44 -1 -45 -2 -11
-5 34 -4 36 -6 25 -24 -6 -10 -17 -19 -24 -19 -7 0 -10 -7 -7 -15 5 -12 -4
-15 -42 -17 -44 -1 -45 -2 -11 -5 59 -7 32 -23 -41 -25 l-67 -2 57 -3 c54 -4
57 -5 45 -23 -9 -15 -24 -20 -62 -22 l-50 -1 43 -4 c39 -4 62 -23 26 -23 -8 0
-12 -5 -9 -10 4 -6 -6 -10 -22 -11 -15 0 -22 -3 -15 -6 28 -11 9 -23 -40 -25
-51 -1 -51 -2 -10 -5 23 -2 42 -6 42 -8 0 -12 -34 -43 -44 -41 -6 2 -8 1 -3
-1 23 -14 -1 -23 -60 -25 l-68 -1 60 -7 c42 -4 55 -8 43 -14 -10 -4 -15 -12
-12 -17 3 -5 -4 -9 -15 -9 -14 0 -19 -5 -15 -15 5 -12 -7 -15 -72 -17 l-79 -2
68 -3 c37 -2 67 -8 67 -13 0 -6 -64 -11 -152 -12 l-153 -2 145 -6 c108 -4 127
-7 75 -10 l-70 -3 55 -7 c44 -6 38 -7 -35 -5 -52 1 -82 -1 -70 -6 11 -4 48 -8
83 -8 34 -1 62 -5 62 -11 0 -6 -70 -9 -192 -8 -140 1 -171 3 -113 8 l80 6 -70
5 -70 5 72 2 c39 1 75 -3 78 -8 3 -6 21 -9 38 -9 18 1 24 3 14 6 -9 2 -15 9
-12 14 4 5 1 9 -4 9 -6 0 -11 -4 -11 -10 0 -5 -5 -10 -11 -10 -5 0 -7 4 -4 10
4 6 -21 10 -67 11 -40 1 -65 3 -56 6 10 2 15 10 11 19 -4 11 10 14 73 16 l79
2 -70 6 c-38 4 -62 7 -52 8 9 1 17 9 17 17 0 11 13 15 48 17 43 1 44 2 9 5
-70 8 -26 23 71 25 l97 2 -95 6 c-52 3 -79 8 -60 9 26 3 29 5 12 8 -45 9 -9
23 61 25 l72 1 -65 7 c-36 4 -56 7 -45 8 15 2 17 4 7 11 -20 12 7 21 71 23
l52 1 -55 7 c-30 4 -44 8 -30 9 14 1 19 5 12 8 -23 9 -1 23 41 24 l42 2 -40 7
c-22 4 -30 8 -18 9 16 1 21 6 17 16 -5 12 3 15 37 16 l44 2 -35 7 c-19 4 -29
8 -22 9 6 0 12 8 12 16 0 9 10 15 28 16 17 1 20 3 9 6 -31 8 -7 23 41 25 l47
1 -45 7 c-37 6 -39 7 -15 9 17 2 24 5 17 8 -22 9 -2 23 36 24 l37 2 -35 7
c-19 4 -27 8 -18 9 10 0 17 7 15 13 -1 8 14 15 38 19 38 6 38 6 8 8 l-33 1 20
20 c11 11 32 21 48 21 24 2 24 2 4 6 l-23 5 26 24 c14 13 24 24 21 24 -18 0
66 70 85 71 l24 1 -25 8 -25 8 25 1 c18 1 21 4 12 10 -11 7 -10 10 3 15 9 3
26 7 38 7 17 1 15 3 -8 9 -16 4 -22 8 -12 9 9 0 17 8 17 16 0 8 7 15 16 15 8
0 12 5 9 10 -3 6 1 10 10 10 9 0 13 5 10 10 -3 6 1 13 9 16 9 3 14 10 11 15
-3 4 9 13 27 18 19 5 25 10 14 10 -16 1 -15 5 10 26 16 14 25 25 21 25 -5 0 5
14 21 30 17 17 35 30 41 30 6 0 10 3 9 8 -4 20 17 42 41 43 22 0 23 1 6 8 -19
8 -19 8 0 19 11 6 16 12 12 12 -11 0 52 60 63 60 6 0 9 5 8 12 -2 7 11 15 27
19 28 6 29 7 5 9 -16 1 -19 4 -9 7 9 2 21 15 27 28 7 14 16 25 22 25 5 0 10 7
10 15 0 10 10 15 33 14 30 -1 31 -1 7 -9 l-25 -8 25 -2 c23 -1 24 -2 5 -10
-14 -7 -8 -8 20 -3 50 7 57 13 19 14 l-29 1 30 8 30 8 -30 2 c-30 2 -30 2 -5
11 18 6 12 7 -20 3 l-45 -6 27 21 c21 17 36 21 65 17 32 -5 34 -4 13 4 -21 8
-19 9 15 5 22 -2 67 2 100 10 l60 14 -55 -4 c-39 -3 -48 -2 -30 4 l25 9 -25 2
c-24 2 -24 2 5 11 17 4 48 12 70 17 34 7 28 8 -36 6 -42 -1 -91 -5 -110 -8
-25 -5 -30 -4 -19 3 8 6 24 11 35 12 17 1 16 2 -5 10 -20 7 -17 8 15 4 22 -2
65 1 95 8 l55 13 -70 0 c-44 0 -61 -3 -45 -7 19 -5 21 -7 5 -7 -11 0 -29 3
-39 7 -21 8 23 21 214 65 107 24 164 32 127 17z m-409 -98 c-13 -16 -79 -91
-145 -168 -67 -77 -188 -217 -269 -311 -784 -899 -859 -984 -877 -984 -24 0
-83 -69 678 789 341 385 624 700 629 700 6 1 -2 -11 -16 -26z m726 -3 c19 -97
24 -87 -41 -98 -32 -6 -132 -25 -223 -41 -91 -17 -171 -31 -178 -31 -12 0 64
106 92 129 13 11 276 69 318 70 22 1 27 -4 32 -29z m135 7 l95 -22 11 -53 c7
-29 8 -55 4 -58 -5 -3 -26 -1 -46 5 -21 5 -64 15 -96 21 -62 12 -71 21 -82 88
-8 50 -13 49 114 19z m-931 -38 c-23 -28 -51 -61 -60 -72 -27 -35 -30 -14 -7
47 21 58 40 74 87 75 22 1 21 -2 -20 -50z m1406 25 c9 -8 16 -20 16 -25 0 -11
-49 22 -50 34 0 12 18 8 34 -9z m-1249 -29 c-34 -11 -36 -14 -15 -16 l25 -2
-25 -5 -25 -5 25 -7 c15 -4 1 -6 -37 -6 -62 1 -78 15 -20 17 l32 2 -30 5 c-27
5 -24 6 25 17 72 17 95 16 45 0z m673 -137 c6 -34 8 -65 4 -69 -4 -4 -124 -26
-267 -49 -143 -23 -281 -45 -307 -49 -26 -5 -50 -6 -52 -3 -6 5 103 142 113
143 3 0 105 20 226 44 121 23 232 43 246 44 24 1 26 -4 37 -61z m189 26 l132
-27 16 -45 c16 -49 19 -82 8 -82 -5 0 -75 12 -156 27 -103 19 -151 32 -157 43
-4 8 -11 39 -15 69 -7 53 -7 54 16 48 13 -3 83 -18 156 -33z m579 -4 c25 0 35
-16 51 -77 6 -25 2 -23 -50 22 -56 49 -72 73 -41 61 9 -3 27 -6 40 -6z m-1746
-49 c-45 -57 -88 -91 -116 -91 -30 0 -30 4 4 65 28 51 45 61 115 64 l29 1 -32
-39z m367 -17 c-3 -3 -12 -4 -19 -1 -8 3 -5 6 6 6 11 1 17 -2 13 -5z m641
-112 c16 -72 16 -70 -20 -77 -150 -25 -771 -115 -774 -112 -3 2 21 36 52 74
l57 71 71 12 c364 61 592 96 597 91 3 -3 11 -30 17 -59z m230 23 c108 -20 198
-37 200 -39 7 -8 34 -117 30 -122 -3 -2 -97 11 -209 31 -112 19 -207 35 -211
35 -6 0 -28 88 -28 115 0 20 -7 20 218 -20z m-1393 -69 c-54 -61 -60 -65 -118
-75 -33 -6 -63 -8 -66 -6 -3 3 7 30 21 59 l27 54 78 15 c122 23 121 24 58 -47z
m2122 52 c14 -19 43 -101 38 -106 -4 -4 -25 13 -125 105 -12 11 -7 13 32 13
25 0 50 -6 55 -12z m-110 -74 c-3 -3 -12 -4 -19 -1 -8 3 -5 6 6 6 11 1 17 -2
13 -5z m-818 -101 c8 -40 13 -75 10 -77 -7 -8 -972 -126 -978 -120 -5 5 71
104 101 131 19 17 68 28 303 63 154 23 332 50 395 60 161 25 152 28 169 -57z
m286 31 c121 -20 229 -40 241 -44 14 -6 25 -26 37 -70 10 -35 16 -64 15 -66
-4 -3 -424 50 -498 63 l-44 8 -13 60 c-19 92 -18 98 15 91 15 -3 126 -22 247
-42z m-1575 -10 c0 -3 -25 -34 -56 -69 l-56 -63 -82 -12 c-46 -7 -88 -11 -94
-9 -7 3 0 26 18 65 l30 61 87 15 c95 17 153 21 153 12z m2085 -14 c3 -5 1 -10
-5 -10 -6 0 -8 -4 -5 -10 3 -5 1 -10 -5 -10 -7 0 -10 6 -7 14 3 8 1 17 -6 20
-7 2 -5 5 5 5 9 1 20 -3 23 -9z m303 4 c25 -7 78 -99 63 -109 -9 -5 -123 87
-129 106 -4 10 32 12 66 3z m-265 -31 c-7 -2 -19 -2 -25 0 -7 3 -2 5 12 5 14
0 19 -2 13 -5z m10 -20 c-7 -2 -21 -2 -30 0 -10 3 -4 5 12 5 17 0 24 -2 18 -5z
m4 -19 c-3 -3 -12 -4 -19 -1 -8 3 -5 6 6 6 11 1 17 -2 13 -5z m71 -11 c-10 -2
-28 -2 -40 0 -13 2 -5 4 17 4 22 1 32 -1 23 -4z m42 -7 c0 -15 -36 -36 -63
-36 -23 0 -28 3 -18 9 11 7 9 10 -10 14 -20 3 -18 5 8 6 17 0 35 -4 38 -9 4
-6 12 -4 21 5 15 15 24 19 24 11z m37 -2 c-3 -3 -12 -4 -19 -1 -8 3 -5 6 6 6
11 1 17 -2 13 -5z m60 -10 c-3 -3 -12 -4 -19 -1 -8 3 -5 6 6 6 11 1 17 -2 13
-5z m-54 -11 c-7 -2 -19 -2 -25 0 -7 3 -2 5 12 5 14 0 19 -2 13 -5z m-979 -25
c20 -92 26 -132 21 -136 -5 -5 -1158 -122 -1163 -118 -4 4 119 156 126 156 4
1 219 27 477 59 259 32 485 59 502 60 26 1 34 -3 37 -21z m386 -24 c151 -19
278 -39 283 -43 12 -12 41 -121 33 -128 -5 -6 -539 39 -623 53 -30 4 -32 8
-43 62 -7 31 -14 68 -17 81 -6 24 -5 24 43 17 27 -3 173 -22 324 -42z m643 39
c-7 -2 -19 -2 -25 0 -7 3 -2 5 12 5 14 0 19 -2 13 -5z m-13 -12 l45 -7 -65 -9
c-54 -7 -60 -10 -35 -15 17 -3 32 -2 33 2 5 10 81 9 107 -2 13 -5 1 -7 -35 -5
-34 1 -42 0 -20 -3 34 -6 34 -6 -15 -12 l-50 -7 50 -3 50 -3 -45 -8 c-34 -6
-24 -7 40 -4 63 2 75 1 45 -5 l-40 -8 48 1 c26 1 47 -2 47 -7 0 -5 -41 -6 -92
-3 -84 5 -87 5 -28 -4 36 -5 90 -12 120 -15 45 -6 51 -8 30 -15 -23 -6 -22 -7
10 -9 33 -2 33 -3 10 -10 -23 -7 -23 -8 10 -10 l35 -3 -35 -7 -35 -7 37 -2
c39 -1 53 -14 51 -46 -1 -16 -1 -16 3 -2 3 9 12 17 20 17 8 0 12 -4 9 -10 -3
-5 2 -10 12 -11 13 -1 11 -3 -7 -9 -23 -7 -23 -8 10 -10 l35 -3 -40 -7 -40 -7
50 -3 50 -3 -65 -7 -65 -7 73 -1 c54 -2 74 -6 78 -17 4 -8 13 -15 21 -15 8 0
11 -4 8 -10 -3 -5 4 -11 17 -11 13 -1 6 -5 -17 -9 l-40 -7 50 -3 c38 -3 26 -5
-45 -10 l-95 -6 97 -2 c76 -2 102 -6 118 -19 14 -13 16 -19 7 -25 -8 -5 -4 -8
11 -8 13 0 30 -7 38 -15 14 -13 1 -15 -116 -15 -85 0 -129 4 -125 10 3 6 1 10
-5 10 -5 0 -49 38 -96 85 -47 47 -91 86 -97 86 -7 1 4 5 23 9 l35 7 -43 2
c-24 0 -41 5 -38 10 3 5 -4 11 -15 14 -12 3 -18 10 -14 16 3 6 -2 12 -12 12
-10 1 -4 5 12 9 l30 8 -32 1 c-34 1 -76 28 -67 43 3 4 -3 8 -13 9 -13 1 -11 3
7 9 24 8 23 8 -8 9 -19 1 -35 7 -38 16 -4 8 -10 12 -15 9 -5 -3 -9 -1 -9 5 0
5 8 12 18 14 10 3 5 5 -13 6 -20 2 -38 12 -55 34 -19 23 -21 29 -8 24 10 -3
20 -2 23 3 7 11 41 12 105 1z m217 -12 c63 -11 64 -12 99 -67 50 -77 51 -82
21 -82 -18 0 -52 23 -112 77 -47 42 -85 78 -85 80 0 5 8 4 77 -8z m-2693 -18
c-5 -3 -31 -31 -59 -61 l-50 -55 -117 -15 c-78 -10 -118 -12 -118 -5 0 5 13
33 28 60 l27 50 140 21 c130 19 170 21 149 5z m2589 -28 c-7 -2 -21 -2 -30 0
-10 3 -4 5 12 5 17 0 24 -2 18 -5z m-1080 -196 c11 -49 17 -90 15 -92 -5 -5
-1353 -104 -1357 -99 -6 5 122 163 134 164 6 1 264 27 575 60 311 32 576 57
590 56 23 -1 26 -8 43 -89z m262 67 c94 -8 244 -23 335 -32 l164 -17 28 -74
c16 -41 27 -77 26 -80 -2 -4 -156 3 -343 15 -187 13 -361 23 -387 23 l-46 1
-10 48 c-6 26 -14 69 -18 96 l-7 49 44 -7 c24 -3 121 -13 214 -22z m-1925 -11
c-63 -81 -110 -123 -137 -124 -15 0 -81 -6 -145 -13 -65 -6 -118 -8 -118 -4 0
5 13 35 30 67 l29 59 103 12 c57 7 128 16 158 20 30 4 65 8 78 9 l23 1 -21
-27z m3142 -48 c18 -35 30 -66 27 -68 -2 -3 -17 -3 -34 0 -19 3 -56 29 -100
69 l-70 63 73 1 72 0 32 -65z m118 -95 c44 0 46 -2 85 -62 22 -34 42 -65 43
-70 2 -4 -18 -8 -45 -8 -46 1 -51 4 -128 76 l-80 75 40 -5 c22 -3 60 -5 85 -6z
m-3415 -32 c-15 -18 -45 -52 -67 -76 l-39 -43 -167 -13 c-92 -7 -169 -11 -171
-9 -6 5 51 123 63 131 10 6 302 38 369 41 l39 1 -27 -32z m1858 -90 c9 -50 16
-92 14 -93 -1 -1 -213 -12 -472 -24 -258 -12 -499 -24 -535 -26 -160 -11 -532
-26 -536 -22 -3 2 23 38 57 80 71 87 33 77 389 103 124 9 387 29 585 44 198
15 387 28 421 29 l61 1 16 -92z m476 67 c223 -14 406 -27 407 -28 9 -11 64
-129 64 -138 0 -14 -889 -3 -903 11 -8 7 -37 139 -37 168 0 16 -1 16 469 -13z
m991 -85 l-65 -7 78 -1 c80 -2 105 -18 40 -25 -25 -3 -21 -3 10 -2 46 2 70 -8
45 -18 -7 -3 -2 -7 12 -8 14 -2 -29 -6 -95 -9 l-120 -6 127 -2 c71 -1 130 -6
133 -12 4 -6 -39 -10 -123 -10 -115 0 -131 2 -147 20 -17 19 -16 19 91 23
l109 3 -115 2 c-77 2 -121 7 -132 16 -25 18 -23 24 10 29 19 3 16 4 -10 4 -21
-1 -40 2 -44 6 -4 4 53 6 127 5 109 -1 122 -3 69 -8z m287 -19 l63 -1 55 -110
c30 -60 55 -114 55 -120 0 -5 -9 -10 -21 -10 -21 0 -279 223 -279 241 0 5 15
7 33 5 17 -3 60 -5 94 -5z m-3747 -20 c0 -5 -28 -38 -62 -75 l-63 -66 -185 -9
c-101 -6 -186 -8 -188 -6 -3 2 5 31 18 64 26 71 7 65 250 81 91 6 174 13 185
14 40 6 45 6 45 -3z m2582 -67 c319 -5 460 -10 467 -18 13 -15 64 -146 60
-151 -7 -7 -1024 -33 -1030 -27 -11 12 -41 190 -34 202 4 7 21 9 44 6 20 -3
242 -8 493 -12z m-547 -94 c10 -55 16 -102 14 -104 -5 -5 -1742 -45 -1748 -40
-2 2 27 40 65 86 37 46 68 84 69 85 0 1 243 14 540 28 297 15 603 30 680 34
77 5 190 9 251 10 l111 1 18 -100z m1535 80 l-95 -6 97 -2 c76 -2 102 -6 118
-19 14 -13 16 -19 7 -25 -8 -5 -3 -8 13 -10 14 -1 -9 -4 -50 -8 l-75 -6 90 -3
c65 -3 82 -5 60 -11 l-30 -8 35 -1 c22 -1 42 -9 52 -20 16 -19 16 -20 -5 -24
-13 -3 -7 -5 15 -6 61 -2 52 -18 -14 -25 -90 -9 -206 -7 -213 4 -3 5 21 11 57
13 l63 3 -67 2 c-48 1 -74 7 -88 20 -20 17 -20 17 37 23 l58 6 -70 1 c-49 2
-66 5 -55 12 12 8 11 10 -7 10 -13 0 -23 5 -23 10 0 6 -7 10 -15 10 -8 0 -15
4 -15 10 0 5 35 11 78 13 l77 3 -93 2 c-59 1 -91 6 -87 12 3 6 -1 10 -9 10 -9
0 -16 5 -16 10 0 6 50 9 133 8 l132 -2 -95 -6z m-3720 -88 c0 -4 -29 -40 -65
-78 l-64 -71 -216 -7 c-119 -4 -219 -5 -222 -2 -3 2 7 36 21 74 l27 69 207 10
c295 14 312 14 312 5z m2950 -111 c0 -15 -168 -166 -249 -225 -477 -342 -1123
-374 -1633 -80 -123 70 -341 244 -327 259 4 3 393 15 865 25 473 11 893 21
934 23 180 7 410 6 410 -2z"/>
<path d="M2655 2415 c-27 -7 -78 -18 -113 -25 -34 -7 -61 -15 -58 -17 4 -4
158 27 241 47 27 7 27 8 5 8 -14 0 -47 -6 -75 -13z"/>
<path d="M2588 2373 c6 -2 18 -2 25 0 6 3 1 5 -13 5 -14 0 -19 -2 -12 -5z"/>
<path d="M2560 2350 c-20 -6 -21 -8 -5 -8 11 0 34 4 50 8 27 7 27 8 5 8 -14 0
-36 -4 -50 -8z"/>
<path d="M2648 2343 c6 -2 18 -2 25 0 6 3 1 5 -13 5 -14 0 -19 -2 -12 -5z"/>
<path d="M2498 2333 c6 -2 18 -2 25 0 6 3 1 5 -13 5 -14 0 -19 -2 -12 -5z"/>
<path d="M2598 2333 c6 -2 18 -2 25 0 6 3 1 5 -13 5 -14 0 -19 -2 -12 -5z"/>
<path d="M2608 2313 c6 -2 18 -2 25 0 6 3 1 5 -13 5 -14 0 -19 -2 -12 -5z"/>
<path d="M2568 2303 c7 -3 16 -2 19 1 4 3 -2 6 -13 5 -11 0 -14 -3 -6 -6z"/>
<path d="M2508 2293 c6 -2 18 -2 25 0 6 3 1 5 -13 5 -14 0 -19 -2 -12 -5z"/>
<path d="M2588 2263 c7 -3 16 -2 19 1 4 3 -2 6 -13 5 -11 0 -14 -3 -6 -6z"/>
<path d="M2528 2253 c6 -2 18 -2 25 0 6 3 1 5 -13 5 -14 0 -19 -2 -12 -5z"/>
<path d="M2478 2243 c6 -2 18 -2 25 0 6 3 1 5 -13 5 -14 0 -19 -2 -12 -5z"/>
<path d="M2328 2233 c7 -3 16 -2 19 1 4 3 -2 6 -13 5 -11 0 -14 -3 -6 -6z"/>
<path d="M2428 2233 c6 -2 18 -2 25 0 6 3 1 5 -13 5 -14 0 -19 -2 -12 -5z"/>
<path d="M2538 2233 c6 -2 18 -2 25 0 6 3 1 5 -13 5 -14 0 -19 -2 -12 -5z"/>
<path d="M2388 2223 c7 -3 16 -2 19 1 4 3 -2 6 -13 5 -11 0 -14 -3 -6 -6z"/>
<path d="M2488 2223 c6 -2 18 -2 25 0 6 3 1 5 -13 5 -14 0 -19 -2 -12 -5z"/>
<path d="M2438 2213 c6 -2 18 -2 25 0 6 3 1 5 -13 5 -14 0 -19 -2 -12 -5z"/>
<path d="M2388 2203 c6 -2 18 -2 25 0 6 3 1 5 -13 5 -14 0 -19 -2 -12 -5z"/>
<path d="M2508 2203 c7 -3 16 -2 19 1 4 3 -2 6 -13 5 -11 0 -14 -3 -6 -6z"/>
<path d="M2443 2193 c9 -2 23 -2 30 0 6 3 -1 5 -18 5 -16 0 -22 -2 -12 -5z"/>
<path d="M2398 2183 c7 -3 16 -2 19 1 4 3 -2 6 -13 5 -11 0 -14 -3 -6 -6z"/>
<path d="M2508 2183 c6 -2 18 -2 25 0 6 3 1 5 -13 5 -14 0 -19 -2 -12 -5z"/>
<path d="M2448 2173 c6 -2 18 -2 25 0 6 3 1 5 -13 5 -14 0 -19 -2 -12 -5z"/>
<path d="M2408 2163 c7 -3 16 -2 19 1 4 3 -2 6 -13 5 -11 0 -14 -3 -6 -6z"/>
<path d="M2248 2153 c7 -3 16 -2 19 1 4 3 -2 6 -13 5 -11 0 -14 -3 -6 -6z"/>
<path d="M2348 2153 c6 -2 18 -2 25 0 6 3 1 5 -13 5 -14 0 -19 -2 -12 -5z"/>
<path d="M2478 2153 c7 -3 16 -2 19 1 4 3 -2 6 -13 5 -11 0 -14 -3 -6 -6z"/>
<path d="M2380 2140 c-20 -6 -21 -8 -5 -8 11 0 31 4 45 8 20 6 21 8 5 8 -11 0
-31 -4 -45 -8z"/>
<path d="M2235 2130 c-7 -12 19 -24 37 -17 7 3 2 6 -12 7 l-25 2 25 8 c23 7
23 8 3 9 -12 1 -25 -4 -28 -9z"/>
<path d="M2308 2123 c6 -2 18 -2 25 0 6 3 1 5 -13 5 -14 0 -19 -2 -12 -5z"/>
<path d="M2328 2083 c7 -3 16 -2 19 1 4 3 -2 6 -13 5 -11 0 -14 -3 -6 -6z"/>
<path d="M2278 2073 c7 -3 16 -2 19 1 4 3 -2 6 -13 5 -11 0 -14 -3 -6 -6z"/>
<path d="M2398 2073 c7 -3 16 -2 19 1 4 3 -2 6 -13 5 -11 0 -14 -3 -6 -6z"/>
<path d="M2218 2063 c7 -3 16 -2 19 1 4 3 -2 6 -13 5 -11 0 -14 -3 -6 -6z"/>
<path d="M2348 2063 c7 -3 16 -2 19 1 4 3 -2 6 -13 5 -11 0 -14 -3 -6 -6z"/>
<path d="M2168 2053 c7 -3 16 -2 19 1 4 3 -2 6 -13 5 -11 0 -14 -3 -6 -6z"/>
<path d="M2283 2053 c9 -2 23 -2 30 0 6 3 -1 5 -18 5 -16 0 -22 -2 -12 -5z"/>
<path d="M2223 2043 c9 -2 23 -2 30 0 6 3 -1 5 -18 5 -16 0 -22 -2 -12 -5z"/>
<path d="M2348 2043 c6 -2 18 -2 25 0 6 3 1 5 -13 5 -14 0 -19 -2 -12 -5z"/>
<path d="M2158 2033 c7 -3 16 -2 19 1 4 3 -2 6 -13 5 -11 0 -14 -3 -6 -6z"/>
<path d="M2293 2033 c9 -2 23 -2 30 0 6 3 -1 5 -18 5 -16 0 -22 -2 -12 -5z"/>
<path d="M2248 2023 c7 -3 16 -2 19 1 4 3 -2 6 -13 5 -11 0 -14 -3 -6 -6z"/>
<path d="M2358 2023 c7 -3 16 -2 19 1 4 3 -2 6 -13 5 -11 0 -14 -3 -6 -6z"/>
<path d="M2140 2010 l-25 -8 25 -2 c23 -1 24 -2 5 -10 -14 -7 -8 -8 20 -3 49
7 58 13 21 13 -16 0 -25 4 -21 10 3 6 5 10 3 9 -2 -1 -14 -5 -28 -9z"/>
<path d="M2303 2013 c9 -2 23 -2 30 0 6 3 -1 5 -18 5 -16 0 -22 -2 -12 -5z"/>
<path d="M2258 2003 c7 -3 16 -2 19 1 4 3 -2 6 -13 5 -11 0 -14 -3 -6 -6z"/>
<path d="M2188 1973 c6 -2 18 -2 25 0 6 3 1 5 -13 5 -14 0 -19 -2 -12 -5z"/>
<path d="M2138 1963 c7 -3 16 -2 19 1 4 3 -2 6 -13 5 -11 0 -14 -3 -6 -6z"/>
<path d="M2268 1963 c6 -2 18 -2 25 0 6 3 1 5 -13 5 -14 0 -19 -2 -12 -5z"/>
<path d="M2088 1953 c7 -3 16 -2 19 1 4 3 -2 6 -13 5 -11 0 -14 -3 -6 -6z"/>
<path d="M2208 1953 c6 -2 18 -2 25 0 6 3 1 5 -13 5 -14 0 -19 -2 -12 -5z"/>
<path d="M2066 1929 c2 -4 -2 -9 -8 -12 -7 -2 -10 -8 -5 -12 4 -5 13 -1 20 8
6 8 23 18 37 20 16 3 11 4 -12 4 -20 -1 -35 -4 -32 -8z"/>
<path d="M2248 1913 c6 -2 18 -2 25 0 6 3 1 5 -13 5 -14 0 -19 -2 -12 -5z"/>
<path d="M2130 1900 c-35 -7 -35 -7 -5 -9 17 0 37 4 45 9 17 11 11 11 -40 0z"/>
<path d="M2253 1893 c9 -2 25 -2 35 0 9 3 1 5 -18 5 -19 0 -27 -2 -17 -5z"/>
<path d="M2138 1873 c7 -3 16 -2 19 1 4 3 -2 6 -13 5 -11 0 -14 -3 -6 -6z"/>
<path d="M2048 1863 c7 -3 16 -2 19 1 4 3 -2 6 -13 5 -11 0 -14 -3 -6 -6z"/>
<path d="M2138 1853 c7 -3 16 -2 19 1 4 3 -2 6 -13 5 -11 0 -14 -3 -6 -6z"/>
<path d="M2073 1843 c9 -2 23 -2 30 0 6 3 -1 5 -18 5 -16 0 -22 -2 -12 -5z"/>
<path d="M2158 1833 c6 -2 18 -2 25 0 6 3 1 5 -13 5 -14 0 -19 -2 -12 -5z"/>
<path d="M2093 1823 c9 -2 23 -2 30 0 6 3 -1 5 -18 5 -16 0 -22 -2 -12 -5z"/>
<path d="M2008 1813 c6 -2 18 -2 25 0 6 3 1 5 -13 5 -14 0 -19 -2 -12 -5z"/>
<path d="M2193 1813 c9 -2 23 -2 30 0 6 3 -1 5 -18 5 -16 0 -22 -2 -12 -5z"/>
<path d="M2108 1803 c7 -3 16 -2 19 1 4 3 -2 6 -13 5 -11 0 -14 -3 -6 -6z"/>
<path d="M2038 1793 c6 -2 18 -2 25 0 6 3 1 5 -13 5 -14 0 -19 -2 -12 -5z"/>
<path d="M1958 1783 c6 -2 18 -2 25 0 6 3 1 5 -13 5 -14 0 -19 -2 -12 -5z"/>
<path d="M2148 1783 c6 -2 18 -2 25 0 6 3 1 5 -13 5 -14 0 -19 -2 -12 -5z"/>
<path d="M2073 1773 c9 -2 25 -2 35 0 9 3 1 5 -18 5 -19 0 -27 -2 -17 -5z"/>
<path d="M1998 1763 c12 -2 30 -2 40 0 9 3 -1 5 -23 4 -22 0 -30 -2 -17 -4z"/>
<path d="M1918 1753 c12 -2 30 -2 40 0 9 3 -1 5 -23 4 -22 0 -30 -2 -17 -4z"/>
<path d="M2088 1753 c12 -2 30 -2 40 0 9 3 -1 5 -23 4 -22 0 -30 -2 -17 -4z"/>
<path d="M2008 1743 c7 -3 16 -2 19 1 4 3 -2 6 -13 5 -11 0 -14 -3 -6 -6z"/>
<path d="M1928 1733 c6 -2 18 -2 25 0 6 3 1 5 -13 5 -14 0 -19 -2 -12 -5z"/>
<path d="M2113 1733 c9 -2 25 -2 35 0 9 3 1 5 -18 5 -19 0 -27 -2 -17 -5z"/>
<path d="M2028 1723 c6 -2 18 -2 25 0 6 3 1 5 -13 5 -14 0 -19 -2 -12 -5z"/>
<path d="M1958 1713 c6 -2 18 -2 25 0 6 3 1 5 -13 5 -14 0 -19 -2 -12 -5z"/>
<path d="M2063 1703 c9 -2 23 -2 30 0 6 3 -1 5 -18 5 -16 0 -22 -2 -12 -5z"/>
<path d="M1978 1693 c7 -3 16 -2 19 1 4 3 -2 6 -13 5 -11 0 -14 -3 -6 -6z"/>
<path d="M1898 1683 c6 -2 18 -2 25 0 6 3 1 5 -13 5 -14 0 -19 -2 -12 -5z"/>
<path d="M2093 1683 c9 -2 23 -2 30 0 6 3 -1 5 -18 5 -16 0 -22 -2 -12 -5z"/>
<path d="M2013 1673 c9 -2 23 -2 30 0 6 3 -1 5 -18 5 -16 0 -22 -2 -12 -5z"/>
<path d="M1928 1663 c12 -2 30 -2 40 0 9 3 -1 5 -23 4 -22 0 -30 -2 -17 -4z"/>
<path d="M1838 1653 c6 -2 18 -2 25 0 6 3 1 5 -13 5 -14 0 -19 -2 -12 -5z"/>
<path d="M2033 1653 c9 -2 25 -2 35 0 9 3 1 5 -18 5 -19 0 -27 -2 -17 -5z"/>
<path d="M1953 1643 c9 -2 23 -2 30 0 6 3 -1 5 -18 5 -16 0 -22 -2 -12 -5z"/>
<path d="M1873 1633 c9 -2 23 -2 30 0 6 3 -1 5 -18 5 -16 0 -22 -2 -12 -5z"/>
<path d="M1983 1623 c9 -2 23 -2 30 0 6 3 -1 5 -18 5 -16 0 -22 -2 -12 -5z"/>
<path d="M1903 1613 c9 -2 23 -2 30 0 6 3 -1 5 -18 5 -16 0 -22 -2 -12 -5z"/>
<path d="M1808 1603 c6 -2 18 -2 25 0 6 3 1 5 -13 5 -14 0 -19 -2 -12 -5z"/>
<path d="M2013 1603 c9 -2 23 -2 30 0 6 3 -1 5 -18 5 -16 0 -22 -2 -12 -5z"/>
<path d="M1928 1593 c6 -2 18 -2 25 0 6 3 1 5 -13 5 -14 0 -19 -2 -12 -5z"/>
<path d="M1833 1583 c9 -2 23 -2 30 0 6 3 -1 5 -18 5 -16 0 -22 -2 -12 -5z"/>
<path d="M1748 1573 c6 -2 18 -2 25 0 6 3 1 5 -13 5 -14 0 -19 -2 -12 -5z"/>
<path d="M1963 1573 c9 -2 25 -2 35 0 9 3 1 5 -18 5 -19 0 -27 -2 -17 -5z"/>
<path d="M1873 1563 c9 -2 25 -2 35 0 9 3 1 5 -18 5 -19 0 -27 -2 -17 -5z"/>
<path d="M1768 1553 c6 -2 18 -2 25 0 6 3 1 5 -13 5 -14 0 -19 -2 -12 -5z"/>
<path d="M1988 1553 c6 -2 18 -2 25 0 6 3 1 5 -13 5 -14 0 -19 -2 -12 -5z"/>
<path d="M1903 1543 c9 -2 23 -2 30 0 6 3 -1 5 -18 5 -16 0 -22 -2 -12 -5z"/>
<path d="M1813 1533 c9 -2 25 -2 35 0 9 3 1 5 -18 5 -19 0 -27 -2 -17 -5z"/>
<path d="M1713 1523 c9 -2 23 -2 30 0 6 3 -1 5 -18 5 -16 0 -22 -2 -12 -5z"/>
<path d="M1953 1523 c9 -2 25 -2 35 0 9 3 1 5 -18 5 -19 0 -27 -2 -17 -5z"/>
<path d="M1853 1513 c9 -2 23 -2 30 0 6 3 -1 5 -18 5 -16 0 -22 -2 -12 -5z"/>
<path d="M1753 1503 c9 -2 25 -2 35 0 9 3 1 5 -18 5 -19 0 -27 -2 -17 -5z"/>
<path d="M1888 1493 c12 -2 30 -2 40 0 9 3 -1 5 -23 4 -22 0 -30 -2 -17 -4z"/>
<path d="M1783 1483 c9 -2 23 -2 30 0 6 3 -1 5 -18 5 -16 0 -22 -2 -12 -5z"/>
<path d="M1668 1473 c12 -2 30 -2 40 0 9 3 -1 5 -23 4 -22 0 -30 -2 -17 -4z"/>
<path d="M1828 1463 c12 -2 30 -2 40 0 9 3 -1 5 -23 4 -22 0 -30 -2 -17 -4z"/>
<path d="M1718 1453 c12 -2 30 -2 40 0 9 3 -1 5 -23 4 -22 0 -30 -2 -17 -4z"/>
<path d="M1873 1443 c9 -2 25 -2 35 0 9 3 1 5 -18 5 -19 0 -27 -2 -17 -5z"/>
<path d="M1768 1433 c12 -2 30 -2 40 0 9 3 -1 5 -23 4 -22 0 -30 -2 -17 -4z"/>
<path d="M1638 1423 c12 -2 32 -2 45 0 12 2 2 4 -23 4 -25 0 -35 -2 -22 -4z"/>
<path d="M1813 1413 c15 -2 37 -2 50 0 12 2 0 4 -28 4 -27 0 -38 -2 -22 -4z"/>
<path d="M1693 1403 c9 -2 25 -2 35 0 9 3 1 5 -18 5 -19 0 -27 -2 -17 -5z"/>
<path d="M1748 1383 c12 -2 32 -2 45 0 12 2 2 4 -23 4 -25 0 -35 -2 -22 -4z"/>
<path d="M1628 1373 c12 -2 30 -2 40 0 9 3 -1 5 -23 4 -22 0 -30 -2 -17 -4z"/>
<path d="M1803 1363 c9 -2 25 -2 35 0 9 3 1 5 -18 5 -19 0 -27 -2 -17 -5z"/>
<path d="M1683 1353 c15 -2 39 -2 55 0 15 2 2 4 -28 4 -30 0 -43 -2 -27 -4z"/>
<path d="M1728 1333 c12 -2 32 -2 45 0 12 2 2 4 -23 4 -25 0 -35 -2 -22 -4z"/>
<path d="M1598 1323 c12 -2 32 -2 45 0 12 2 2 4 -23 4 -25 0 -35 -2 -22 -4z"/>
<path d="M1653 1303 c15 -2 37 -2 50 0 12 2 0 4 -28 4 -27 0 -38 -2 -22 -4z"/>
<path d="M1518 1293 c12 -2 32 -2 45 0 12 2 2 4 -23 4 -25 0 -35 -2 -22 -4z"/>
<path d="M1588 1273 c18 -2 45 -2 60 0 15 2 0 4 -33 4 -33 0 -45 -2 -27 -4z"/>
<path d="M1668 1253 c17 -2 47 -2 65 0 17 2 3 4 -33 4 -36 0 -50 -2 -32 -4z"/>
<path d="M1518 1243 c18 -2 45 -2 60 0 15 2 0 4 -33 4 -33 0 -45 -2 -27 -4z"/>
<path d="M1573 1223 c15 -2 37 -2 50 0 12 2 0 4 -28 4 -27 0 -38 -2 -22 -4z"/>
<path d="M1638 1203 c18 -2 45 -2 60 0 15 2 0 4 -33 4 -33 0 -45 -2 -27 -4z"/>
<path d="M1477 1193 c18 -2 50 -2 70 0 21 2 7 4 -32 4 -38 0 -55 -2 -38 -4z"/>
<path d="M1558 1173 c18 -2 45 -2 60 0 15 2 0 4 -33 4 -33 0 -45 -2 -27 -4z"/>
<path d="M1478 1143 c17 -2 47 -2 65 0 17 2 3 4 -33 4 -36 0 -50 -2 -32 -4z"/>
<path d="M1548 1123 c23 -2 61 -2 85 0 23 2 4 4 -43 4 -47 0 -66 -2 -42 -4z"/>
<path d="M1448 1093 c23 -2 61 -2 85 0 23 2 4 4 -43 4 -47 0 -66 -2 -42 -4z"/>
<path d="M1358 1083 c7 -3 16 -2 19 1 4 3 -2 6 -13 5 -11 0 -14 -3 -6 -6z"/>
<path d="M1458 1043 c29 -2 74 -2 100 0 26 2 2 3 -53 3 -55 0 -76 -1 -47 -3z"/>
<path d="M1323 1013 c31 -2 83 -2 115 0 31 2 5 3 -58 3 -63 0 -89 -1 -57 -3z"/>
<path d="M1518 1013 c6 -2 18 -2 25 0 6 3 1 5 -13 5 -14 0 -19 -2 -12 -5z"/>
<path d="M1363 983 c9 -2 25 -2 35 0 9 3 1 5 -18 5 -19 0 -27 -2 -17 -5z"/>
<path d="M4143 1713 c9 -2 25 -2 35 0 9 3 1 5 -18 5 -19 0 -27 -2 -17 -5z"/>
<path d="M4143 1673 c9 -2 23 -2 30 0 6 3 -1 5 -18 5 -16 0 -22 -2 -12 -5z"/>
<path d="M4308 1593 c12 -2 32 -2 45 0 12 2 2 4 -23 4 -25 0 -35 -2 -22 -4z"/>
<path d="M4308 1573 c12 -2 30 -2 40 0 9 3 -1 5 -23 4 -22 0 -30 -2 -17 -4z"/>
<path d="M4298 1553 c12 -2 32 -2 45 0 12 2 2 4 -23 4 -25 0 -35 -2 -22 -4z"/>
<path d="M4388 1523 c17 -2 47 -2 65 0 17 2 3 4 -33 4 -36 0 -50 -2 -32 -4z"/>
<path d="M4383 1503 c15 -2 37 -2 50 0 12 2 0 4 -28 4 -27 0 -38 -2 -22 -4z"/>
<path d="M4368 1483 c12 -2 32 -2 45 0 12 2 2 4 -23 4 -25 0 -35 -2 -22 -4z"/>
<path d="M4470 1460 c-13 -8 -12 -10 3 -10 9 0 17 5 17 10 0 12 -1 12 -20 0z"/>
<path d="M4457 1413 c18 -2 50 -2 70 0 21 2 7 4 -32 4 -38 0 -55 -2 -38 -4z"/>
<path d="M4578 1413 c7 -3 16 -2 19 1 4 3 -2 6 -13 5 -11 0 -14 -3 -6 -6z"/>
<path d="M4448 1393 c12 -2 32 -2 45 0 12 2 2 4 -23 4 -25 0 -35 -2 -22 -4z"/>
<path d="M4598 1383 c7 -3 16 -2 19 1 4 3 -2 6 -13 5 -11 0 -14 -3 -6 -6z"/>
<path d="M4538 1323 c23 -2 59 -2 80 0 20 2 1 4 -43 4 -44 0 -61 -2 -37 -4z"/>
<path d="M4618 1303 c7 -3 16 -2 19 1 4 3 -2 6 -13 5 -11 0 -14 -3 -6 -6z"/>
<path d="M4588 1273 c18 -2 45 -2 60 0 15 2 0 4 -33 4 -33 0 -45 -2 -27 -4z"/>
<path d="M4658 1203 c6 -2 18 -2 25 0 6 3 1 5 -13 5 -14 0 -19 -2 -12 -5z"/>
<path d="M4948 1093 c7 -3 16 -2 19 1 4 3 -2 6 -13 5 -11 0 -14 -3 -6 -6z"/>
<path d="M4858 1063 c23 -2 61 -2 85 0 23 2 4 4 -43 4 -47 0 -66 -2 -42 -4z"/>
<path d="M4848 1033 c7 -3 16 -2 19 1 4 3 -2 6 -13 5 -11 0 -14 -3 -6 -6z"/>
<path d="M4958 1013 c7 -3 16 -2 19 1 4 3 -2 6 -13 5 -11 0 -14 -3 -6 -6z"/>
<path d="M4918 993 c28 -2 76 -2 105 0 28 2 5 3 -53 3 -58 0 -81 -1 -52 -3z"/>
<path d="M5018 963 c6 -2 18 -2 25 0 6 3 1 5 -13 5 -14 0 -19 -2 -12 -5z"/>
</g>
</svg>
