<?xml version="1.0" standalone="no"?>
<!DOCTYPE svg PUBLIC "-//W3C//DTD SVG 20010904//EN"
 "http://www.w3.org/TR/2001/REC-SVG-20010904/DTD/svg10.dtd">
<svg version="1.0" xmlns="http://www.w3.org/2000/svg"
 width="1300.000000pt" height="1300.000000pt" viewBox="0 0 1300.000000 1300.000000"
 preserveAspectRatio="xMidYMid meet">

<g transform="translate(0.000000,1300.000000) scale(0.100000,-0.100000)"
fill="#000000" stroke="none">
<path d="M5155 9174 c-131 -37 -170 -50 -306 -99 -461 -167 -888 -457 -1176
-797 -175 -207 -312 -454 -337 -608 -6 -33 -5 -33 5 -10 113 243 175 344 314
505 246 286 579 518 1000 697 140 59 413 149 550 180 50 11 93 23 98 27 18 17
-69 128 -95 120 -1 -1 -25 -7 -53 -15z"/>
<path d="M5203 9000 c-347 -96 -629 -210 -893 -363 -405 -233 -737 -575 -919
-947 -58 -120 -62 -132 -86 -285 -14 -88 -28 -173 -31 -190 -5 -27 5 -20 93
66 146 142 291 257 433 343 25 15 68 41 95 58 102 62 345 178 505 241 335 130
736 232 1150 292 63 9 119 20 124 25 10 10 -51 43 -114 61 -27 7 -62 28 -86
51 -30 29 -53 41 -82 45 -34 5 -43 10 -51 36 -14 39 -14 131 1 182 6 22 10 65
9 95 -1 38 5 67 19 95 14 27 20 59 20 100 0 56 -3 64 -33 93 -18 18 -37 32
-42 31 -6 0 -56 -13 -112 -29z m47 -245 c0 -68 -12 -85 -59 -85 -19 0 -21 6
-21 68 0 38 3 72 7 75 3 4 21 7 40 7 l33 0 0 -65z m-192 -51 c3 -57 1 -62 -20
-68 -51 -13 -54 -10 -53 52 2 70 9 84 43 80 26 -3 27 -6 30 -64z m-178 -57 c0
-60 -2 -64 -31 -81 -39 -23 -47 -13 -42 57 3 36 11 57 25 70 38 32 48 23 48
-46z m-186 -28 c13 -64 8 -89 -20 -99 -35 -14 -40 -8 -48 52 -6 44 -4 54 10
65 30 22 51 16 58 -18z m-179 -97 c11 -46 10 -53 -6 -68 -28 -25 -43 -12 -55
48 -10 53 -10 57 10 66 32 16 39 10 51 -46z m-146 -94 c10 -47 10 -54 -6 -65
-30 -22 -41 -14 -53 37 -14 60 -9 80 23 80 20 0 25 -7 36 -52z m-149 -94 c12
-43 12 -48 -5 -60 -27 -20 -31 -18 -49 29 -21 56 -20 66 7 76 30 12 32 9 47
-45z m-141 -75 c16 -47 13 -77 -8 -89 -23 -12 -25 -9 -40 44 -9 33 -8 43 6 58
22 25 29 23 42 -13z m-126 -168 c-19 -30 -39 -23 -53 19 -12 36 -11 42 6 61
l19 21 19 -43 c13 -30 16 -48 9 -58z m-130 -99 c-24 -17 -36 -10 -47 28 -8 27
-7 35 10 47 18 13 20 11 36 -24 16 -36 16 -39 1 -51z m-117 -57 c6 -24 -9 -55
-26 -55 -14 0 -21 51 -9 66 17 21 28 17 35 -11z m-99 -120 c9 -30 8 -39 -7
-58 -20 -23 -22 -22 -34 32 -5 25 8 61 23 61 4 0 12 -16 18 -35z m-87 -108 c0
-31 -14 -57 -32 -57 -11 0 -10 48 2 71 16 29 30 23 30 -14z"/>
<path d="M5625 8188 c-33 -5 -154 -24 -270 -44 -653 -109 -1221 -325 -1664
-631 -264 -183 -474 -406 -596 -631 -15 -28 -26 -55 -22 -58 3 -3 25 20 49 51
108 143 163 207 259 300 324 314 789 565 1334 720 105 29 222 61 260 70 172
40 504 92 773 120 62 7 62 7 62 39 0 21 -8 40 -23 54 -26 24 -58 26 -162 10z"/>
<path d="M5530 8014 c-855 -102 -1523 -347 -1984 -728 -225 -186 -442 -451
-465 -569 -20 -99 -61 -350 -61 -374 0 -7 21 2 48 21 132 95 414 242 637 333
61 24 125 51 144 60 138 63 728 237 1026 302 149 33 530 98 700 120 88 12 175
24 194 27 l34 6 -144 144 c-79 79 -147 144 -151 144 -5 0 -8 -50 -8 -110 0
-80 -4 -112 -12 -115 -7 -2 -84 -15 -172 -28 l-159 -24 7 206 c4 113 12 223
17 244 11 44 59 101 102 124 43 22 117 21 157 -3 55 -32 71 -74 69 -183 l-2
-93 155 -154 154 -155 223 21 c124 11 230 25 238 32 20 17 12 48 -19 71 -22
16 -41 20 -106 19 l-78 -1 -21 50 c-17 39 -29 53 -57 64 -79 33 -155 140 -156
216 0 31 -7 43 -46 76 -46 39 -47 39 -54 119 -4 43 -15 96 -25 117 -21 43 -13
42 -185 21z m-693 -354 c16 -6 37 -25 47 -42 17 -28 18 -45 11 -197 -4 -91
-10 -188 -14 -216 l-6 -49 -135 -28 c-74 -15 -138 -27 -143 -28 -4 0 -5 24 -2
53 3 28 10 124 15 212 10 184 20 218 84 263 58 41 92 49 143 32z m-475 -170
c14 -11 28 -32 31 -47 7 -33 -30 -404 -40 -414 -9 -8 -226 -69 -231 -65 -1 2
7 94 18 205 21 211 32 253 82 297 53 49 99 56 140 24z m-644 -217 l-126 -128
-6 -69 c-6 -63 -39 -272 -51 -322 -3 -14 -29 -34 -75 -58 -38 -21 -70 -33 -70
-29 0 4 11 71 25 147 31 172 31 183 8 165 -10 -7 -8 -2 5 12 12 14 22 32 22
40 0 23 56 106 80 119 12 7 30 10 40 7 13 -3 54 31 141 119 68 68 126 124 129
124 2 0 -52 -57 -122 -127z m222 57 c25 -25 25 -45 -2 -262 l-22 -177 -94 -36
c-52 -20 -96 -35 -98 -33 -5 6 45 372 56 402 15 45 59 97 94 112 41 17 43 17
66 -6z m-591 -427 c-15 -17 -26 -42 -28 -63 -2 -35 -27 -205 -37 -247 -5 -26
-84 -73 -84 -51 0 7 9 65 20 128 11 63 20 117 20 120 0 2 -39 -34 -87 -80
l-88 -85 87 90 c65 67 92 102 104 138 17 51 36 66 58 48 10 -8 17 -6 31 9 10
11 20 20 23 20 3 0 -5 -12 -19 -27z"/>
<path d="M4733 7629 c-69 -44 -86 -106 -98 -351 l-7 -137 34 9 c18 4 45 11 59
14 25 5 26 8 32 109 11 181 41 267 92 267 14 0 25 5 25 10 0 21 -30 69 -52 84
-30 21 -46 20 -85 -5z"/>
<path d="M4262 7458 c-51 -25 -76 -117 -107 -400 l-6 -56 48 12 48 12 7 115
c3 63 13 136 22 163 16 54 50 96 77 96 23 0 14 35 -14 55 -25 17 -43 18 -75 3z"/>
<path d="M3523 7108 c-34 -38 -38 -55 -7 -28 l29 25 -31 -35 c-20 -23 -35 -54
-42 -90 -17 -78 -42 -253 -38 -258 3 -2 17 3 33 12 28 14 31 21 47 118 9 57
26 136 38 177 16 55 19 76 10 79 -7 2 -10 8 -6 13 11 18 -13 8 -33 -13z"/>
<path d="M3878 7305 c-52 -29 -83 -132 -122 -412 -4 -27 13 -29 54 -8 32 17
32 16 49 183 13 120 31 172 60 172 26 0 28 30 4 58 -17 19 -20 20 -45 7z"/>
<path d="M5305 7776 c-39 -17 -80 -65 -96 -113 -9 -25 -13 -99 -13 -218 l-1
-180 40 3 c87 5 80 -9 83 178 3 177 10 208 54 238 12 9 40 16 61 16 46 0 45
12 -4 52 -42 34 -84 42 -124 24z"/>
<path d="M6290 7203 c-19 -2 -116 -10 -215 -18 -99 -9 -186 -18 -194 -21 -10
-3 -2 -18 30 -50 l44 -46 115 6 c63 3 175 7 248 8 l134 3 -6 26 c-3 14 -15 42
-26 62 -23 39 -28 40 -130 30z"/>
<path d="M5660 7139 c-706 -97 -1264 -227 -1770 -414 -246 -91 -434 -175 -615
-273 -83 -45 -265 -162 -265 -170 0 -3 8 -15 17 -26 15 -18 14 -17 -8 2 l-26
23 -65 -73 c-75 -84 -118 -146 -118 -168 0 -8 28 14 63 51 131 138 294 248
568 385 446 222 1066 405 1700 503 185 28 532 69 654 76 55 3 111 8 124 11 23
5 23 6 -20 50 -50 51 -43 50 -239 23z"/>
<path d="M7202 7093 c-12 -10 -25 -38 -29 -63 l-9 -45 -77 -3 c-73 -3 -77 -4
-77 -26 0 -13 9 -31 20 -41 11 -10 20 -28 20 -39 0 -42 43 -48 385 -56 176 -5
368 -9 426 -9 92 -1 110 -4 140 -24 59 -39 79 -94 88 -254 l8 -141 52 -110
c29 -61 69 -167 91 -236 43 -141 70 -203 85 -196 6 3 10 52 10 115 1 120 13
160 60 191 67 44 177 21 221 -46 24 -36 26 -50 33 -204 8 -183 3 -167 100
-276 l40 -45 -6 241 -6 240 29 32 c31 35 82 50 128 38 37 -9 93 -62 105 -99 5
-18 17 -144 26 -282 9 -137 18 -262 20 -277 4 -33 4 -33 -101 -9 -94 21 -110
16 -120 -37 -4 -20 -13 -49 -20 -64 -22 -42 -17 -74 19 -128 17 -27 48 -74 67
-105 l35 -55 42 6 c82 12 161 -41 182 -123 5 -21 13 -128 16 -238 4 -110 9
-208 11 -217 2 -16 -6 -18 -67 -18 l-69 0 25 -49 c13 -27 34 -82 45 -122 11
-40 25 -76 32 -81 7 -5 20 -13 30 -18 9 -5 24 -30 34 -56 l17 -46 541 7 c628
8 944 19 959 34 8 8 7 26 -3 63 -14 57 -23 68 -57 68 -26 0 -36 39 -88 351
-20 118 -41 232 -47 253 -8 34 -7 42 8 53 17 12 17 20 5 101 -15 108 -27 134
-67 144 -21 5 -35 17 -42 35 -10 26 -122 496 -137 573 -4 19 -22 106 -41 192
-39 180 -40 188 -18 188 23 0 12 65 -16 100 -11 14 -36 48 -55 76 -65 95 -242
232 -403 313 -384 193 -979 322 -1807 391 -132 11 -301 21 -375 22 l-135 3 -1
-68 c0 -37 -3 -69 -5 -72 -3 -2 -37 -7 -76 -11 l-72 -7 -5 34 c-3 19 -7 52
-10 74 -6 44 -35 75 -71 75 -13 0 -32 -8 -43 -17z m1235 -186 c16 -12 29 -64
37 -144 6 -71 1 -76 -70 -66 -53 7 -56 12 -75 125 -16 95 -8 109 54 101 23 -3
48 -10 54 -16z m730 -122 c18 -5 24 -19 37 -93 25 -137 22 -145 -38 -122 -29
11 -42 49 -52 159 -8 81 -13 75 53 56z m635 -243 c7 -7 28 -147 28 -188 0 -20
-5 -24 -29 -24 -16 0 -34 6 -40 14 -6 8 -15 60 -18 116 l-6 103 29 -7 c16 -4
32 -10 36 -14z m-858 -73 c40 -32 55 -69 62 -159 l7 -83 -24 7 c-13 4 -47 10
-76 13 -61 6 -63 10 -63 126 0 64 3 80 20 97 25 25 41 25 74 -1z m1171 -89
c-28 -28 -34 -40 -22 -40 23 0 33 -25 41 -99 l7 -63 -28 7 c-15 3 -30 9 -32
11 -3 2 -7 33 -10 69 l-6 65 -179 -178 -178 -179 26 -39 c22 -34 28 -64 50
-244 14 -113 28 -240 32 -282 l7 -77 -94 25 c-51 13 -94 26 -95 27 0 1 -11 90
-24 197 -12 107 -25 210 -28 228 l-7 33 -66 -68 -66 -68 13 -130 c7 -71 13
-139 13 -151 l1 -20 -112 17 c-62 10 -114 18 -115 18 -2 1 -3 15 -3 33 l0 32
-52 -49 -53 -50 49 52 50 52 -23 249 c-21 229 -22 251 -7 279 38 74 159 54
200 -31 12 -27 35 -203 36 -276 0 -8 31 17 70 55 65 65 69 71 64 105 -12 76
40 130 96 98 l28 -16 223 224 c123 123 226 224 228 224 3 0 -13 -18 -34 -40z
m-45 -265 c14 -17 37 -152 27 -162 -4 -4 -13 -1 -19 5 -7 7 -22 12 -34 12 -20
0 -23 7 -29 65 -4 35 -5 71 -1 80 7 19 40 19 56 0z m-78 -246 c32 -14 69 -71
79 -121 18 -94 72 -509 66 -514 -3 -3 -36 7 -73 23 -80 33 -66 -7 -113 339
-38 279 -33 307 41 273z m241 -167 c32 -35 50 -101 88 -322 21 -124 39 -231
39 -238 0 -10 -7 -9 -29 3 -17 8 -32 19 -35 24 -9 14 -87 422 -93 489 -6 65 1
76 30 44z m-752 -686 c37 -15 69 -46 89 -86 11 -20 38 -320 40 -433 l0 -29
-127 8 c-71 3 -129 7 -130 8 -3 3 -23 326 -25 415 -2 80 -1 84 25 107 32 28
78 31 128 10z m367 -60 c34 -18 88 -75 96 -101 3 -11 10 -81 16 -155 5 -74 12
-161 16 -193 l5 -58 -108 7 c-59 3 -109 8 -111 9 -5 4 -31 366 -32 427 0 29 6
52 16 62 19 20 66 21 102 2z m356 -87 c14 -11 31 -30 37 -41 9 -17 59 -352 59
-397 0 -11 -15 -13 -77 -7 -42 3 -79 9 -82 12 -12 11 -39 419 -30 436 13 24
60 23 93 -3z m250 -122 c11 -18 66 -305 66 -347 0 -11 -68 -4 -82 9 -10 9 -51
349 -44 367 7 19 39 4 60 -29z"/>
<path d="M8887 6448 c-23 -12 -22 -28 2 -28 23 0 31 -19 31 -73 0 -49 5 -58
44 -75 l29 -13 -7 62 c-4 35 -14 75 -21 89 -17 33 -55 51 -78 38z"/>
<path d="M9270 6030 c-12 -7 -11 -12 5 -30 15 -17 23 -57 39 -206 l20 -185 38
38 38 38 -14 135 c-16 150 -20 165 -49 198 -21 23 -52 28 -77 12z"/>
<path d="M9631 5941 c-11 -7 -11 -19 3 -72 16 -66 46 -325 46 -401 0 -50 7
-63 38 -72 12 -3 31 -9 43 -12 19 -5 20 -3 15 23 -3 15 -15 111 -26 213 -24
210 -34 261 -57 296 l-16 25 -26 -23 c-21 -19 -23 -19 -8 -2 26 31 20 45 -12
25z"/>
<path d="M9367 5632 c-35 -36 -37 -41 -37 -104 l0 -65 38 -7 c67 -11 64 -16
56 92 -3 53 -10 103 -13 110 -5 8 -18 0 -44 -26z"/>
<path d="M10050 6049 c0 -54 3 -66 16 -66 14 0 15 8 11 49 -10 82 -26 93 -27
17z"/>
<path d="M9992 5750 c3 -30 15 -142 28 -248 21 -163 27 -195 43 -204 17 -9 18
-5 12 64 -25 295 -43 406 -72 430 -13 11 -15 5 -11 -42z"/>
<path d="M9393 4975 c-28 -20 -30 -35 -3 -28 37 10 69 -6 89 -45 22 -43 41
-181 41 -298 0 -80 1 -82 26 -88 15 -4 28 -5 30 -4 9 10 -19 348 -32 384 -27
76 -102 115 -151 79z"/>
<path d="M9770 4925 c0 -2 14 -12 31 -20 20 -11 38 -33 52 -63 18 -41 21 -67
21 -204 l1 -158 34 0 34 0 -6 160 c-7 185 -22 235 -79 270 -29 18 -88 28 -88
15z"/>
<path d="M10151 4851 c-11 -7 -9 -14 8 -38 25 -33 39 -107 47 -255 6 -107 6
-108 31 -108 l26 0 -7 103 c-16 242 -48 334 -105 298z"/>
<path d="M6473 7049 c5 -14 -19 -17 -221 -23 -125 -4 -229 -10 -231 -12 -3 -3
98 -109 224 -237 l230 -232 -235 233 -235 232 -50 0 c-119 0 -660 -58 -882
-95 -794 -130 -1498 -365 -1940 -648 -35 -21 -63 -42 -63 -46 0 -4 29 -36 66
-71 57 -57 66 -63 75 -47 18 31 52 57 76 57 37 0 44 -28 26 -105 l-15 -68 49
-49 49 -49 24 143 c12 79 29 160 38 181 28 73 115 117 167 83 30 -20 32 -52 9
-176 -40 -225 -64 -365 -64 -384 0 -14 43 -65 124 -145 l124 -123 178 26 c387
57 1017 120 1464 147 109 7 201 17 209 23 12 9 13 8 6 -3 -6 -11 2 -13 51 -7
32 3 408 9 834 12 433 4 783 10 793 16 40 21 21 55 -100 173 -110 107 -121
114 -158 115 l-40 0 145 -147 145 -148 -150 148 -150 147 -225 0 c-197 0 -230
3 -265 19 -47 21 -92 70 -101 109 -3 15 -9 38 -14 52 -5 14 -11 42 -15 64 -4
22 -17 48 -32 62 -15 14 -25 35 -25 50 0 24 -4 23 -62 -33 l-61 -58 70 76 c67
73 128 161 154 223 26 62 43 178 48 326 l5 155 -27 25 c-19 16 -26 19 -22 9z
m-437 -264 c48 -20 105 -76 128 -125 19 -42 20 -61 17 -255 -2 -115 -4 -230
-6 -255 -2 -25 -3 -78 -4 -117 l-1 -73 -97 0 -97 0 -66 -62 -65 -63 58 61 58
61 -152 -5 -152 -5 7 299 c9 380 13 399 99 483 77 74 177 95 273 56z m-765
-80 c91 -32 129 -94 129 -207 0 -65 -29 -560 -34 -565 -3 -3 -431 -22 -434
-19 -1 2 7 141 18 310 23 347 34 393 95 441 71 53 148 67 226 40z m-615 -126
c32 -15 48 -32 64 -64 l21 -44 -29 -291 c-16 -160 -32 -293 -34 -296 -5 -4
-304 -33 -346 -34 -10 0 -12 10 -8 38 4 20 17 155 30 298 20 208 29 270 44
300 52 101 161 140 258 93z m-545 -136 c52 -31 54 -62 20 -308 -16 -121 -33
-245 -37 -277 -7 -65 6 -58 -169 -78 -55 -7 -104 -13 -110 -13 -12 -2 -12 -6
20 248 35 271 44 323 59 354 15 28 49 62 81 79 30 17 103 14 136 -5z m2129
-216 c0 -2 -15 -16 -32 -33 l-33 -29 29 33 c28 30 36 37 36 29z m-400 -400 c0
-2 -17 -19 -37 -38 l-38 -34 34 38 c33 34 41 42 41 34z m-80 -80 c0 -2 -17
-19 -37 -38 l-38 -34 34 38 c33 34 41 42 41 34z"/>
<path d="M5854 6726 c-28 -13 -65 -41 -82 -62 -54 -66 -60 -102 -68 -401 l-7
-273 57 0 56 0 1 123 c0 67 4 192 8 277 6 145 9 158 36 208 55 101 114 127
206 93 29 -12 55 -19 57 -16 12 11 -11 34 -52 53 -63 30 -145 29 -212 -2z"/>
<path d="M5125 6656 c-42 -18 -102 -88 -114 -133 -6 -21 -15 -132 -20 -248 -6
-115 -13 -236 -16 -267 l-6 -58 39 0 c22 0 53 3 69 6 l30 6 6 216 c3 120 11
237 17 262 23 96 89 150 180 150 44 0 50 9 23 32 -54 47 -145 62 -208 34z"/>
<path d="M4535 6549 c-37 -10 -88 -59 -104 -97 -10 -25 -72 -553 -66 -560 2
-2 33 -1 69 3 l66 7 0 53 c0 69 28 346 41 403 20 90 61 132 128 132 42 0 31
23 -23 50 -45 22 -64 23 -111 9z"/>
<path d="M3994 6410 c-34 -13 -62 -57 -73 -113 -9 -42 -66 -364 -86 -479 -5
-33 -10 -32 69 -12 l63 16 6 86 c8 115 61 401 80 438 9 17 23 37 32 44 16 13
16 15 -2 21 -24 10 -63 10 -89 -1z"/>
<path d="M6621 6718 c-66 -150 -68 -167 -13 -117 l37 34 -34 -37 c-19 -21 -37
-35 -42 -33 -9 6 -15 -20 -30 -135 -11 -85 -10 -99 5 -128 19 -37 25 -38 74
-12 73 38 73 33 -3 112 l-70 73 71 -68 70 -68 56 15 c138 36 237 -49 269 -230
16 -90 22 -96 76 -88 26 4 55 2 73 -6 62 -26 105 36 120 172 10 88 43 169 82
205 30 26 100 53 141 53 56 0 131 -28 173 -64 45 -38 99 -131 109 -189 9 -45
43 -331 40 -334 -3 -5 -106 -12 -249 -18 -189 -8 -199 -15 -150 -106 l27 -49
-18 -46 -17 -46 28 -27 29 -27 170 8 c171 8 692 -5 933 -22 198 -15 186 -18
134 38 -25 26 -67 78 -95 115 -27 38 -61 73 -74 78 -13 5 -72 9 -131 9 -140 0
-149 5 -177 100 -12 41 -36 109 -53 152 -18 42 -32 86 -32 97 0 11 -23 65 -52
118 l-52 98 2 90 c3 112 -20 216 -57 257 -22 25 -37 31 -101 38 -179 21 -393
30 -741 30 -372 0 -373 0 -398 -22 l-26 -23 19 23 19 22 -62 0 -61 0 -19 -42z
m99 -11 c0 -2 -17 -19 -37 -38 l-38 -34 34 38 c33 34 41 42 41 34z"/>
<path d="M7430 6389 c-27 -11 -80 -58 -80 -71 0 -4 24 -8 53 -8 74 0 121 -16
161 -53 42 -40 54 -83 66 -228 5 -60 11 -113 14 -118 7 -11 108 -1 123 13 8 8
8 27 -3 76 -7 36 -18 103 -24 150 -13 102 -25 136 -59 174 -56 62 -178 94
-251 65z"/>
<path d="M3544 6265 c-54 -22 -74 -71 -102 -241 l-25 -155 48 -49 c27 -27 50
-48 51 -47 2 2 12 62 24 134 25 167 46 264 64 307 15 35 13 41 -19 59 -6 3
-24 -1 -41 -8z"/>
<path d="M3005 6179 c-85 -64 -155 -144 -155 -178 0 -6 12 -14 26 -17 30 -8
32 8 -24 -199 -22 -82 -48 -188 -58 -235 -14 -67 -24 -90 -48 -114 -22 -22
-36 -53 -58 -130 -15 -55 -28 -104 -28 -108 0 -4 24 4 53 17 117 54 533 154
892 216 105 18 192 34 195 36 2 2 -49 57 -114 122 l-117 117 -92 -23 c-136
-34 -127 -42 -104 88 l20 111 -49 49 -48 49 -41 -163 c-23 -89 -44 -168 -46
-176 -5 -14 -119 -65 -127 -56 -3 2 23 113 57 247 l61 243 -67 67 c-37 38 -72
68 -78 67 -5 0 -28 -14 -50 -30z m61 -172 c3 -8 -16 -101 -41 -208 -68 -288
-57 -262 -111 -282 -26 -9 -49 -15 -51 -13 -3 2 7 42 20 88 14 46 40 137 57
203 33 124 56 191 73 213 13 16 46 16 53 -1z"/>
<path d="M8434 6106 c-19 -19 -34 -38 -34 -43 0 -5 16 -9 35 -9 19 0 43 -8 55
-19 21 -19 44 -88 55 -166 5 -40 10 -48 42 -63 l36 -17 -6 98 c-7 112 -17 152
-49 199 -43 62 -85 69 -134 20z"/>
<path d="M3241 6084 c-10 -22 -9 -30 5 -46 21 -23 34 -9 34 40 0 39 -22 43
-39 6z"/>
<path d="M8874 6080 c-30 -12 -40 -30 -16 -30 29 0 62 -43 77 -101 13 -48 17
-102 29 -364 l3 -70 40 -3 c38 -3 40 -2 36 25 -1 15 -7 124 -13 242 -11 225
-20 266 -64 296 -23 17 -59 18 -92 5z"/>
<path d="M3220 6034 c0 -3 -23 -94 -50 -202 -28 -107 -48 -197 -45 -200 9 -9
55 29 55 46 0 9 21 86 46 170 45 147 46 154 29 172 -18 19 -35 26 -35 14z"/>
<path d="M3400 5794 c-7 -38 -14 -77 -16 -87 -3 -15 2 -17 24 -13 15 3 43 8
64 12 59 10 58 39 -6 103 l-53 53 -13 -68z"/>
<path d="M6220 5613 c-36 -1 -189 -7 -340 -13 l-275 -12 -40 -36 -40 -37 34
37 34 37 -44 -4 c-24 -3 -120 -9 -214 -15 -355 -22 -788 -61 -1000 -90 -121
-17 -335 -46 -475 -65 -481 -65 -965 -174 -1172 -263 -52 -23 -80 -58 -53 -68
25 -10 114 5 154 25 90 46 404 120 741 175 545 89 1102 149 1865 201 55 4 106
12 114 19 12 9 13 8 7 -2 -7 -11 2 -13 45 -8 202 23 1294 34 1634 17 169 -9
180 -5 165 51 -18 62 15 58 -554 56 -286 -1 -550 -3 -586 -5z"/>
<path d="M7407 5593 c-4 -3 -7 -15 -7 -25 0 -14 8 -18 32 -18 l31 0 -23 25
c-27 28 -24 27 -33 18z"/>
<path d="M7879 5505 c-3 -2 -80 -5 -172 -5 -92 -1 -167 -4 -167 -8 0 -3 10
-17 22 -31 21 -23 20 -23 -8 2 -28 25 -37 28 -90 25 -57 -3 -59 -4 -62 -33 -2
-16 2 -46 9 -67 l12 -38 66 7 c119 14 791 7 1026 -11 261 -19 255 -19 255 -5
0 5 11 35 25 65 14 30 25 58 25 63 0 12 -124 20 -455 31 -310 11 -479 12 -486
5z"/>
<path d="M6110 5463 c-58 -1 -229 -7 -380 -13 l-275 -11 -35 -32 -35 -32 30
33 30 34 -45 -6 c-25 -3 -88 -8 -140 -11 -809 -48 -1586 -146 -2149 -271 -155
-34 -292 -74 -341 -98 -14 -7 -44 -16 -67 -20 -70 -10 -91 -25 -108 -74 -20
-59 -19 -69 5 -75 11 -3 20 -13 20 -23 0 -9 -44 -169 -97 -356 l-97 -338 -53
0 c-38 0 -53 -4 -53 -14 0 -11 -44 -133 -85 -238 -5 -14 6 -20 62 -37 219 -64
722 -138 1258 -185 l150 -13 80 76 80 76 -75 -77 c-45 -47 -68 -78 -58 -78 8
0 136 -9 284 -20 485 -35 1255 -70 1549 -70 l140 0 -130 133 -130 132 138
-135 137 -135 738 1 c405 1 771 4 812 8 70 6 77 9 120 49 l45 42 -40 -42 -39
-43 64 0 c73 0 552 28 556 33 4 4 -14 332 -21 384 -6 41 -11 49 -125 192 -123
155 -206 275 -247 356 -25 50 -49 95 -54 101 -6 7 -7 39 -3 76 8 81 -9 169
-46 229 -39 64 -60 130 -70 219 -8 73 -25 141 -56 226 l-16 41 -201 6 c-185 6
-774 6 -1027 0z m777 -237 c70 -35 128 -109 142 -179 5 -28 13 -236 17 -462 3
-225 7 -429 9 -452 l2 -43 -298 0 -299 0 2 473 c3 448 4 474 23 519 33 78 105
143 185 169 50 17 162 4 217 -25z m-976 -11 c59 -20 114 -67 142 -118 27 -52
27 -96 8 -624 l-15 -383 -264 0 -264 0 7 188 c24 647 31 755 55 805 56 117
202 176 331 132z m-737 -64 c36 -19 56 -38 73 -70 34 -66 33 -116 -17 -706
-11 -132 -20 -250 -20 -262 l0 -23 -235 0 -234 0 5 73 c2 39 9 122 14 182 5
61 14 173 20 250 36 461 48 502 155 558 82 42 158 42 239 -2z m-711 -12 c50
-14 103 -61 118 -106 11 -34 9 -110 -6 -243 -9 -76 -75 -681 -75 -686 0 -2
-94 -4 -210 -4 -193 0 -210 1 -210 18 0 26 25 212 74 563 46 330 56 368 109
417 49 46 127 62 200 41z m-536 -55 c35 -22 63 -74 63 -115 0 -48 -109 -728
-135 -846 -5 -23 -7 -23 -170 -23 -151 0 -165 1 -165 18 0 10 11 80 24 157 13
77 27 163 31 190 4 28 25 154 47 280 49 285 61 311 163 352 36 15 110 9 142
-13z m-522 -28 c40 -17 58 -47 57 -95 0 -20 -28 -164 -62 -321 -34 -157 -70
-328 -81 -380 -10 -52 -21 -105 -24 -117 -5 -22 -8 -23 -144 -23 l-138 0 18
83 c21 94 112 517 140 654 24 114 31 132 60 159 58 53 113 65 174 40z m-378
-78 c13 -12 23 -30 23 -41 0 -26 -114 -620 -139 -720 -10 -43 -23 -82 -27 -87
-7 -6 -163 6 -171 14 -1 1 5 24 13 51 8 28 38 140 65 250 56 221 113 434 131
480 14 38 47 75 67 75 8 0 25 -10 38 -22z m-233 -123 c-1 -27 -28 -144 -61
-260 -33 -115 -73 -257 -88 -315 -15 -58 -31 -109 -35 -113 -4 -4 -26 -2 -48
5 -48 15 -50 -10 20 233 27 94 64 228 83 298 46 168 68 211 109 205 18 -3 21
-10 20 -53z m4716 -1098 c0 -2 -17 -19 -37 -38 l-38 -34 34 38 c33 34 41 42
41 34z"/>
<path d="M6846 5163 c34 -32 70 -73 79 -92 27 -54 36 -223 33 -604 l-3 -347
31 0 30 0 -3 58 c-1 31 -4 237 -7 457 -4 415 -7 438 -49 499 -19 26 -88 64
-147 81 -19 5 -11 -7 36 -52z"/>
<path d="M5723 5152 c-54 -22 -82 -48 -104 -97 -19 -42 -26 -142 -49 -655 -6
-135 -13 -250 -15 -257 -6 -19 13 -26 49 -19 l33 6 7 343 c3 188 9 362 12 387
14 125 25 178 46 219 20 38 33 49 78 68 54 22 54 22 20 22 -19 0 -54 -8 -77
-17z"/>
<path d="M4933 5110 c-18 -10 -42 -38 -53 -61 -23 -43 -25 -62 -55 -429 -28
-336 -35 -424 -42 -462 -5 -33 -3 -38 14 -38 41 0 51 20 57 125 35 570 47 708
66 774 5 19 26 52 47 73 31 32 34 38 18 38 -11 0 -34 -9 -52 -20z"/>
<path d="M4330 5099 c-64 -26 -87 -69 -101 -196 -5 -54 -32 -231 -58 -393 -27
-162 -52 -314 -55 -338 l-6 -43 71 2 c41 1 72 7 74 13 1 6 8 76 14 156 6 80
20 208 31 285 11 77 23 158 26 180 26 197 59 303 99 318 8 4 15 11 15 17 0 13
-77 12 -110 -1z"/>
<path d="M3771 5047 c-43 -22 -61 -58 -77 -157 -8 -52 -37 -205 -64 -340 -51
-257 -76 -399 -69 -403 2 -1 34 -1 72 1 l67 4 0 41 c0 95 108 728 135 792 7
18 21 38 32 44 43 25 -48 43 -96 18z"/>
<path d="M3280 5012 c-45 -22 -56 -47 -81 -184 -11 -62 -34 -169 -50 -238 -63
-263 -89 -383 -89 -411 0 -29 0 -29 60 -29 56 0 60 1 60 24 0 42 29 193 84
435 30 130 59 261 65 293 7 34 22 67 37 83 20 22 23 30 12 36 -21 14 -60 10
-98 -9z"/>
<path d="M2966 4916 c-20 -20 -38 -47 -40 -59 -3 -12 -41 -168 -85 -347 -44
-178 -77 -328 -75 -332 3 -5 25 -8 50 -8 38 0 44 3 44 21 0 34 38 204 100 454
62 244 66 270 50 295 -7 11 -15 7 -44 -24z"/>
<path d="M7637 5299 c-93 -4 -170 -9 -172 -11 -2 -2 8 -38 21 -81 28 -86 46
-103 101 -92 61 11 135 -18 185 -74 68 -76 70 -87 77 -438 l6 -312 58 -58 c55
-54 117 -157 117 -193 0 -16 22 -18 238 -25 158 -6 312 -4 462 4 124 7 282 15
352 18 l128 6 -7 26 c-9 39 -20 57 -68 110 -24 28 -46 60 -50 73 -4 13 -35 86
-68 163 l-61 140 -2 115 c-2 118 -34 342 -55 382 -6 13 -41 69 -78 125 l-66
101 -65 6 c-232 23 -732 30 -1053 15z m789 -208 c117 -52 177 -164 188 -351 4
-52 13 -184 22 -294 8 -109 12 -202 7 -206 -4 -4 -126 -9 -271 -11 l-263 -4
-4 65 c-2 36 -5 196 -7 355 -3 332 -1 344 79 414 71 63 154 74 249 32z"/>
<path d="M8330 5062 c0 -5 11 -17 24 -25 33 -22 73 -108 90 -192 16 -79 25
-239 26 -431 l0 -131 71 -10 70 -9 -6 45 c-3 25 -12 152 -21 281 -8 129 -19
258 -24 287 -12 69 -50 125 -108 156 -52 28 -122 45 -122 29z"/>
<path d="M9008 5039 c-42 -16 -44 -39 -2 -37 46 2 80 -31 99 -96 13 -42 34
-262 35 -353 0 -16 6 -23 20 -23 23 0 23 -12 11 230 -8 180 -20 224 -70 259
-36 25 -61 31 -93 20z"/>
</g>
</svg>
