<?xml version="1.0" standalone="no"?>
<!DOCTYPE svg PUBLIC "-//W3C//DTD SVG 20010904//EN"
 "http://www.w3.org/TR/2001/REC-SVG-20010904/DTD/svg10.dtd">
<svg version="1.0" xmlns="http://www.w3.org/2000/svg"
 width="295.000000pt" height="300.000000pt" viewBox="0 0 295.000000 300.000000"
 preserveAspectRatio="xMidYMid meet">

<g transform="translate(0.000000,300.000000) scale(0.100000,-0.100000)"
fill="#000000" stroke="none">
<path d="M1453 2986 c-55 -25 -82 -101 -104 -291 -6 -55 -13 -103 -15 -106 -2
-3 -47 -9 -99 -13 -53 -4 -129 -16 -168 -26 -40 -11 -95 -20 -124 -20 -29 0
-74 -9 -101 -19 -43 -17 -79 -20 -268 -22 -209 -2 -221 -1 -254 19 -44 28
-184 32 -194 7 -4 -10 -19 -15 -49 -15 -30 0 -49 -6 -60 -18 -16 -17 -15 -20
7 -41 38 -35 111 -53 248 -58 l127 -6 16 -41 c28 -68 102 -171 145 -201 l40
-28 132 6 131 6 101 -38 c56 -21 110 -42 120 -45 18 -6 19 -17 12 -255 -8
-246 -7 -248 13 -254 15 -4 21 -13 21 -34 0 -16 6 -35 12 -41 9 -9 13 -51 14
-130 0 -64 6 -234 12 -377 7 -143 11 -395 10 -560 l-3 -300 -40 -8 c-22 -5
-50 -11 -62 -13 -18 -3 -23 -11 -23 -34 l0 -30 485 0 c455 0 485 1 485 18 0
31 -15 42 -81 55 l-64 13 -7 64 c-4 36 -8 174 -10 306 -3 219 -1 244 15 261
15 17 17 41 17 171 0 91 4 161 11 176 9 19 8 117 -5 398 -9 205 -16 414 -16
464 l0 91 74 27 c87 32 153 42 341 52 l140 7 32 34 c35 37 67 102 85 170 l10
43 52 0 c147 0 304 40 327 82 15 27 -14 47 -67 48 -24 0 -47 6 -54 15 -17 21
-112 20 -153 -1 -48 -25 -174 -38 -372 -38 l-181 1 -139 46 c-77 25 -178 51
-225 57 -47 6 -89 16 -95 21 -5 6 -12 81 -15 167 -7 204 -21 233 -116 247 -24
3 -52 -1 -71 -9z m138 -65 c22 -23 29 -39 29 -70 0 -107 -48 -209 -87 -185
-28 17 -28 43 0 53 23 9 24 12 13 45 -6 19 -17 37 -25 38 -10 2 -15 16 -15 43
-1 38 -3 40 -33 43 -40 4 -41 14 -7 41 39 31 89 28 125 -8z m-124 -107 c5 -15
-20 -24 -37 -14 -7 4 -9 13 -5 19 8 14 37 11 42 -5z m23 -127 c0 -31 -44 -18
-48 15 -3 25 -2 26 22 15 14 -7 26 -20 26 -30z m-28 -74 c30 -63 49 -65 78 -8
13 25 26 45 29 45 4 0 8 -15 9 -32 2 -18 11 -41 21 -51 16 -17 17 -23 2 -97
l-15 -80 -77 0 -77 0 -31 81 c-17 44 -31 83 -31 85 0 2 9 4 19 4 22 0 31 19
31 66 0 47 16 42 42 -13z m-139 -135 c45 -80 46 -83 24 -87 -16 -2 -33 9 -61
40 -22 24 -36 37 -31 29 4 -8 17 -25 28 -37 11 -13 18 -26 14 -29 -6 -6 -177
136 -177 148 0 8 43 14 111 16 l45 2 47 -82z m60 -1 c28 -75 30 -96 9 -83 -10
6 -92 150 -92 161 0 4 12 5 27 3 24 -3 31 -12 56 -81z m277 18 c0 -47 -4 -59
-31 -87 l-31 -33 6 33 c10 60 37 142 47 142 5 0 9 -25 9 -55z m41 7 c1 -20 5
-48 9 -62 7 -19 9 -10 8 35 -1 33 2 62 6 64 23 12 440 -103 433 -121 -3 -9
-235 -208 -242 -208 -3 0 29 46 71 103 76 101 70 101 -33 3 -29 -27 -55 -48
-57 -45 -5 4 19 108 38 166 6 18 4 21 -14 16 -12 -3 -29 2 -42 13 l-21 19 7
-415 c4 -228 11 -536 16 -685 5 -152 5 -274 0 -279 -15 -15 -18 26 -29 324
-20 535 -42 965 -51 990 -6 16 -7 -1 -4 -50 6 -92 31 -758 40 -1050 l7 -216
-54 6 -54 5 -7 105 c-3 58 -12 283 -18 500 -6 217 -17 490 -25 605 -7 116 -11
213 -8 218 10 16 23 -6 24 -41z m-546 -13 c54 -41 164 -149 152 -149 -31 0
-289 159 -284 175 4 12 47 23 67 17 8 -3 38 -22 65 -43z m-65 -44 c47 -32 135
-82 195 -111 l110 -52 -30 -12 c-16 -7 -59 -14 -95 -17 -60 -5 -70 -2 -135 32
-38 20 -121 71 -183 113 l-114 76 23 19 c19 15 36 18 84 15 54 -3 69 -10 145
-63z m-253 23 c5 -7 17 -30 26 -51 17 -37 17 -38 -1 -25 -46 33 -92 74 -92 81
0 12 57 8 67 -5z m-560 -21 c28 4 48 1 59 -8 15 -12 14 -14 -3 -20 -27 -11
-92 -10 -114 1 -10 6 -19 20 -19 32 0 19 1 20 18 5 12 -11 29 -14 59 -10z
m368 -64 c56 -49 102 -90 100 -91 -2 -2 -52 21 -112 52 l-108 55 40 -37 c22
-20 71 -65 109 -98 l70 -62 -65 -9 c-35 -5 -67 -8 -71 -6 -10 5 -183 235 -198
262 -10 20 -8 21 60 21 l71 0 104 -87z m6 68 c28 -30 98 -131 92 -131 -11 0
-157 128 -162 142 -4 11 59 1 70 -11z m157 -41 c80 -59 114 -101 50 -62 -18
11 -67 39 -108 62 -96 53 -103 60 -59 60 27 0 54 -14 117 -60z m1752 34 c0
-13 -73 -170 -91 -195 -16 -23 -29 -28 -85 -34 -36 -4 -68 -5 -71 -1 -4 4 24
39 63 78 42 44 55 62 34 46 -19 -14 -76 -55 -126 -91 -91 -67 -154 -97 -201
-97 l-25 0 27 32 c15 18 77 66 139 108 61 41 125 86 143 99 51 38 193 79 193
55z m190 -40 c-14 -16 -135 -20 -145 -5 -10 18 32 31 79 25 38 -6 47 -4 52 11
6 16 8 16 16 1 6 -11 5 -22 -2 -32z m-455 26 c-3 -5 -45 -40 -93 -77 -48 -37
-131 -103 -184 -146 -54 -43 -98 -75 -98 -72 0 12 241 270 268 287 29 19 118
25 107 8z m95 -7 c0 -9 -129 -94 -180 -118 -30 -14 -25 -7 36 54 62 62 76 71
108 71 20 0 36 -3 36 -7z m-726 -45 c6 -26 -1 -33 -96 -104 l-103 -76 -69 6
c-37 3 -76 10 -85 16 -19 10 -21 9 92 40 100 26 169 61 215 110 20 21 37 37
38 37 1 -1 4 -14 8 -29z m-94 -12 c0 -37 -99 -82 -156 -71 -33 6 -104 58 -104
76 0 5 59 9 130 9 106 0 130 -3 130 -14z m92 -83 c-3 -34 -8 -40 -50 -60 -50
-23 -112 -37 -111 -25 0 10 153 130 159 126 3 -1 4 -20 2 -41z m-456 -162 c-3
-36 -13 -149 -21 -251 -22 -256 -24 -270 -41 -270 -8 0 -14 6 -14 13 0 6 7
102 15 212 8 110 15 229 15 265 0 89 7 109 32 102 18 -4 19 -11 14 -71z m58
24 c6 -16 12 -159 21 -472 l6 -193 -46 31 c-53 36 -50 16 -30 269 8 102 17
229 21 283 5 91 14 117 28 82z m80 -18 c44 -33 215 -131 256 -147 63 -24 60
-8 60 -316 0 -165 -4 -284 -9 -284 -23 0 -148 188 -234 350 -58 109 -122 259
-114 266 3 3 56 -31 118 -74 63 -43 125 -85 139 -92 21 -10 -84 103 -230 249
-17 16 -30 39 -30 50 0 27 6 26 44 -2z m264 -24 c34 -22 52 -40 52 -54 0 -19
-1 -19 -32 -3 -18 9 -57 33 -87 52 -45 30 -51 37 -35 43 24 8 36 3 102 -38z
m-77 -25 c163 -87 178 -129 17 -51 -57 28 -114 60 -128 71 l-25 21 29 1 c16 0
64 -19 107 -42z m-182 -310 c62 -175 151 -373 214 -478 34 -58 68 -114 74
-125 6 -11 18 -49 26 -85 9 -36 18 -73 22 -82 4 -10 3 -18 -1 -18 -15 1 -153
253 -209 382 -55 127 -162 419 -172 470 -12 61 14 23 46 -64z m18 -383 c43
-135 99 -231 187 -323 43 -45 94 -92 112 -103 20 -12 34 -29 34 -40 0 -24 -16
-21 -100 21 -30 15 -66 31 -79 35 -32 10 -242 123 -259 139 -12 11 -34 126
-25 126 2 0 38 -35 81 -78 73 -74 166 -141 179 -129 3 3 -10 25 -29 49 -47 58
-105 146 -163 246 -47 83 -47 83 -26 98 17 13 21 25 21 73 0 77 12 85 28 19 7
-29 24 -89 39 -133z m246 1 l47 -38 0 -90 c0 -64 -3 -87 -11 -82 -12 7 -159
302 -159 318 0 5 17 -9 38 -30 20 -22 58 -57 85 -78z m233 -352 l24 -31 -57
-36 c-79 -50 -93 -49 -93 8 0 89 76 124 126 59z m-515 -76 c8 -71 -3 -818 -12
-818 -5 0 -9 173 -9 425 0 242 4 425 9 425 5 0 10 -15 12 -32z m54 -398 c0
-314 -3 -404 -12 -407 -10 -4 -13 82 -13 407 0 325 3 411 13 408 9 -4 12 -94
12 -408z m465 318 l0 -82 -27 26 c-16 14 -43 34 -62 43 l-35 17 30 16 c16 8
42 26 57 38 16 13 30 24 33 24 2 0 4 -37 4 -82z m-406 56 c14 -5 16 -51 16
-413 l0 -406 -93 -2 c-90 -2 -87 3 13 21 l35 6 -3 400 c-2 248 1 400 7 400 5
0 16 -3 25 -6z m90 -40 c14 -13 16 -65 16 -409 0 -391 0 -394 -21 -400 -12 -4
-25 -3 -31 3 -11 11 1 822 13 822 4 0 15 -7 23 -16z m62 -25 c7 -11 9 -108 12
-521 l2 -206 63 -7 c100 -12 114 -26 21 -21 -62 3 -85 1 -96 -11 -13 -12 -16
11 -21 189 -4 112 -7 290 -7 396 0 178 5 214 26 181z m58 -396 c5 -220 4 -313
-3 -313 -6 0 -11 6 -12 13 -6 98 -15 675 -10 682 12 21 19 -81 25 -382z m50
355 c3 -13 8 -170 11 -350 6 -294 5 -328 -9 -328 -9 0 -18 10 -20 23 -3 12 -8
169 -11 350 -6 292 -5 327 9 327 9 0 18 -10 20 -22z m67 -193 c14 -412 14
-498 3 -502 -25 -8 -33 63 -39 375 -6 308 -5 323 12 320 16 -3 19 -21 24 -193z
m46 124 c1 -24 10 -182 19 -352 10 -169 14 -310 10 -315 -4 -4 -16 4 -27 17
-16 20 -19 40 -19 150 0 70 -3 224 -7 341 -5 181 -4 212 8 208 9 -3 15 -21 16
-49z m-377 -658 c0 -5 -9 -11 -20 -14 -13 -3 -20 0 -20 9 0 8 9 14 20 14 11 0
20 -4 20 -9z m205 -2 c10 -14 1 -21 -19 -13 -9 3 -13 10 -10 15 7 12 21 11 29
-2z"/>
<path d="M1530 2855 c0 -22 3 -24 33 -18 40 7 41 8 34 28 -4 9 -19 15 -37 15
-25 0 -30 -4 -30 -25z"/>
</g>
</svg>
