<?xml version="1.0" standalone="no"?>
<!DOCTYPE svg PUBLIC "-//W3C//DTD SVG 20010904//EN"
 "http://www.w3.org/TR/2001/REC-SVG-20010904/DTD/svg10.dtd">
<svg version="1.0" xmlns="http://www.w3.org/2000/svg"
 width="512.000000pt" height="512.000000pt" viewBox="0 0 512.000000 512.000000"
 preserveAspectRatio="xMidYMid meet">

<g transform="translate(0.000000,512.000000) scale(0.100000,-0.100000)"
fill="#000000" stroke="none">
<path d="M2757 4904 c-3 -3 -59 -10 -123 -15 -114 -8 -119 -10 -177 -49 -64
-43 -93 -48 -161 -29 -60 17 -63 8 -43 -134 10 -67 19 -151 21 -187 4 -65 4
-65 39 -74 32 -8 37 -14 51 -66 9 -31 16 -69 16 -84 0 -26 2 -28 33 -23 66 12
378 29 411 23 33 -6 33 -6 28 -56 l-5 -50 57 0 56 0 0 -32 c1 -18 7 -44 14
-58 12 -21 20 -24 54 -21 40 2 41 2 47 -36 9 -55 18 -68 53 -71 26 -3 33 -11
53 -56 24 -53 24 -53 59 -45 20 5 56 17 81 28 24 11 63 21 87 21 39 0 48 -5
103 -61 59 -60 148 -111 214 -125 l30 -6 -6 121 c-7 135 -17 157 -73 165 -17
3 -64 10 -104 16 -133 19 -202 61 -265 160 l-23 35 -99 6 c-113 6 -156 23
-180 69 -18 34 -20 86 -4 96 8 4 9 25 6 58 -40 357 -46 390 -75 405 -9 5 -39
12 -65 15 -40 6 -52 13 -65 37 -16 28 -32 36 -45 23z m-119 -113 c15 -9 42
-134 42 -193 0 -44 -28 -78 -64 -78 -22 0 -26 6 -35 53 -15 71 -27 188 -23
210 4 18 55 24 80 8z m242 -303 c0 -12 8 -18 25 -18 14 0 25 -4 25 -10 0 -5
-9 -10 -20 -10 -17 0 -20 -7 -20 -40 0 -49 -17 -53 -26 -5 -5 30 -10 35 -35
35 -15 0 -31 -5 -35 -11 -4 -8 -9 -8 -17 0 -6 6 -19 11 -29 11 -10 0 -18 5
-18 10 0 6 9 10 20 10 13 0 20 7 20 19 0 28 20 37 27 12 8 -31 53 -29 53 2 0
13 3 27 7 30 9 9 23 -13 23 -35z"/>
<path d="M2070 4823 c1 -10 9 -43 20 -73 11 -31 19 -82 20 -118 l0 -63 56 -52
c31 -29 61 -54 67 -56 14 -5 3 136 -19 246 -15 76 -19 84 -43 90 -14 3 -43 14
-63 25 -36 17 -38 17 -38 1z"/>
<path d="M1738 4527 c-93 -5 -168 -13 -168 -16 0 -3 30 -14 68 -23 37 -10 90
-24 117 -31 45 -13 51 -13 62 3 10 15 30 17 125 18 62 0 121 -5 132 -10 38
-20 10 17 -30 39 -52 29 -107 32 -306 20z"/>
<path d="M1466 4382 c-3 -58 -6 -175 -6 -261 0 -86 -5 -185 -10 -221 -6 -36
-13 -88 -17 -117 -5 -50 -5 -52 16 -46 12 3 40 30 62 59 31 43 56 61 126 98
49 25 94 46 102 46 7 0 42 -29 77 -65 54 -57 62 -62 54 -37 -4 16 -20 96 -35
178 -15 82 -28 149 -29 150 0 1 -13 4 -28 8 -26 6 -28 4 -28 -24 0 -16 -4 -30
-10 -30 -5 0 -10 14 -10 31 0 28 -2 31 -24 25 -14 -3 -28 -2 -31 4 -3 5 -13
10 -22 10 -11 0 -14 -6 -9 -26 6 -21 4 -25 -11 -22 -12 2 -19 14 -21 35 -2 24
-9 33 -29 38 -20 5 -23 9 -14 18 8 8 23 8 58 -1 40 -11 48 -11 55 3 12 21 28
19 28 -4 0 -15 10 -20 46 -26 25 -3 47 -5 49 -3 2 2 1 47 -2 101 -4 70 -10 97
-19 97 -7 0 -80 19 -162 43 l-149 43 -7 -104z"/>
<path d="M1850 4415 c-9 -25 5 -300 20 -375 22 -119 53 -240 64 -254 9 -13 19
-14 56 -5 26 6 68 8 100 3 83 -11 200 -7 245 8 l40 13 0 55 c-1 104 -26 445
-36 483 l-10 37 -87 -2 c-80 -3 -92 -1 -142 26 -49 27 -65 30 -149 30 -85 1
-94 -1 -101 -19z m306 -153 c5 -4 19 -54 31 -111 l20 -105 -23 -23 c-13 -13
-34 -23 -48 -23 -21 0 -26 6 -35 50 -28 131 -26 205 7 213 27 7 36 7 48 -1z"/>
<path d="M2540 4223 c-36 -1 -85 -5 -109 -9 l-44 -6 7 -111 c4 -61 8 -112 10
-114 2 -2 48 4 102 12 54 9 172 20 262 25 90 4 166 10 169 13 2 3 0 14 -6 25
-6 12 -11 31 -11 43 l0 22 -162 -6 c-90 -3 -199 -13 -243 -22 -44 -9 -84 -17
-89 -18 -5 -1 -11 4 -13 11 -12 33 165 71 335 72 l62 0 0 35 0 35 -102 -2
c-57 -1 -132 -3 -168 -5z"/>
<path d="M1276 4148 c-3 -13 -10 -47 -15 -76 -15 -74 -51 -126 -100 -146 -23
-9 -50 -16 -61 -16 -28 0 -37 -28 -59 -193 -23 -174 -19 -190 71 -248 103 -66
227 -99 455 -119 68 -6 148 -18 180 -26 112 -29 197 -92 210 -156 5 -26 8 -28
39 -22 30 5 38 2 70 -30 47 -47 68 -58 98 -50 37 9 70 113 71 220 0 70 -4 88
-30 139 -31 60 -38 67 -208 173 -37 23 -68 56 -109 115 -32 45 -80 107 -107
136 -47 51 -52 53 -68 39 -10 -9 -43 -28 -73 -42 -40 -19 -65 -40 -90 -76 -58
-81 -79 -88 -210 -65 -27 5 -47 1 -84 -19 -27 -14 -52 -23 -57 -20 -20 12 -7
34 39 64 38 25 55 31 87 27 22 -2 48 -7 57 -11 15 -7 17 3 20 94 2 70 -1 105
-9 112 -7 5 -20 33 -29 61 -27 81 -62 157 -73 157 -6 0 -13 -10 -15 -22z m486
-443 c15 -32 4 -43 -21 -21 -23 21 -38 15 -122 -50 -65 -50 -79 -56 -188 -83
-44 -11 -102 -31 -129 -45 -52 -26 -62 -25 -62 6 0 33 74 75 153 87 150 23
170 30 237 81 75 57 114 65 132 25z"/>
<path d="M2990 4008 c-14 -6 -86 -14 -160 -18 -74 -5 -199 -16 -277 -26 l-143
-18 0 -48 c0 -53 6 -56 70 -38 19 6 143 21 275 35 304 32 289 28 281 67 -3 17
-6 37 -6 44 0 16 -6 17 -40 2z"/>
<path d="M3080 3889 c-19 -4 -132 -17 -250 -29 -225 -21 -392 -44 -410 -55 -5
-3 -10 -14 -10 -24 0 -13 -8 -18 -30 -19 -17 0 -55 -6 -84 -12 -30 -6 -101
-10 -158 -8 -93 2 -208 -8 -208 -19 0 -2 12 -20 27 -40 l27 -36 116 6 c63 3
161 15 218 26 108 22 242 28 242 11 0 -5 -2 -10 -4 -10 -2 0 -79 -14 -172 -31
-92 -17 -207 -31 -255 -32 -48 -1 -85 -5 -82 -10 2 -4 26 -19 53 -32 49 -25
51 -25 167 -13 l118 11 115 -43 c129 -48 180 -53 351 -33 64 8 121 8 169 2 59
-7 77 -6 89 5 14 12 50 12 261 -1 135 -9 310 -16 390 -17 139 -1 148 0 219 29
40 17 74 34 75 39 0 5 -10 13 -24 17 -419 126 -450 138 -531 221 -32 32 -66
58 -76 59 -38 2 -65 -3 -108 -22 -49 -22 -438 -79 -536 -79 -80 0 -75 16 9 25
98 10 352 51 358 58 5 4 -23 69 -29 66 -1 -1 -18 -5 -37 -10z"/>
<path d="M4150 3545 c-19 -14 -42 -25 -51 -25 -9 0 -41 -11 -70 -25 -125 -57
-158 -60 -465 -47 -378 17 -368 17 -385 6 -7 -5 -53 -8 -100 -7 l-87 1 -4 -91
c-2 -51 -7 -98 -12 -105 -17 -29 -26 5 -26 104 0 112 1 110 -57 98 l-30 -6 -5
-96 c-6 -109 -33 -222 -54 -222 -17 0 -17 1 -4 71 6 30 14 98 18 152 l8 99
-29 -6 c-16 -3 -48 -6 -71 -6 l-41 0 0 -103 c-1 -56 -7 -135 -14 -174 -11 -61
-16 -73 -32 -73 -16 0 -19 7 -19 48 0 26 7 96 16 155 17 111 12 157 -18 157
-10 0 -13 -22 -13 -79 0 -84 -5 -97 -30 -88 -12 5 -15 24 -15 95 l0 89 -38 15
-38 15 24 -61 c25 -60 25 -67 26 -333 1 -203 -2 -275 -11 -284 -21 -21 -28 -1
-32 98 l-3 95 -24 -42 c-21 -36 -24 -55 -24 -136 0 -52 -4 -94 -9 -94 -9 0
-13 15 -27 92 l-6 38 -53 -46 c-51 -43 -53 -47 -44 -77 14 -50 12 -170 -3
-165 -7 3 -16 29 -21 59 -4 30 -10 69 -13 87 l-5 32 -62 -41 c-104 -70 -106
-72 -95 -131 10 -57 4 -102 -15 -95 -14 4 -25 40 -26 86 l-1 35 -35 -34 c-37
-35 -94 -135 -83 -145 3 -3 29 -12 58 -20 52 -14 52 -14 84 16 128 122 588
250 791 221 50 -8 64 -6 85 8 14 10 47 30 73 44 26 15 61 45 76 67 35 48 94
193 110 269 16 78 48 129 101 161 60 37 86 36 118 -3 51 -60 70 -77 94 -82 12
-3 48 -10 79 -16 35 -7 68 -21 92 -41 41 -34 91 -130 108 -208 l11 -53 28 27
c15 15 38 55 50 88 47 131 122 246 178 273 27 13 32 20 32 50 0 47 38 228 60
287 10 26 17 47 17 47 -1 -1 -18 -12 -37 -25z m-255 -216 l7 -41 39 38 c45 44
62 38 34 -13 -25 -45 -81 -75 -153 -81 l-54 -5 6 -40 c4 -22 9 -44 12 -49 7
-12 75 -10 113 3 18 6 35 8 39 4 9 -9 -45 -55 -64 -55 -12 0 -15 -9 -12 -37 2
-30 -1 -38 -15 -41 -13 -3 -17 3 -17 25 0 40 -10 49 -59 57 -52 8 -84 23 -76
37 4 5 18 9 32 9 23 0 25 3 19 31 -3 17 -6 37 -6 45 0 9 -20 14 -72 16 -42 2
-73 8 -75 14 -3 9 27 12 104 11 59 0 123 3 141 7 31 7 32 9 32 57 0 60 16 65
25 8z"/>
<path d="M2280 3523 c-85 -8 -83 -5 -45 -77 19 -37 36 -88 40 -120 7 -51 9
-55 27 -45 11 6 58 9 104 7 l86 -3 -7 45 c-12 88 -27 124 -65 162 -39 39 -46
41 -140 31z m168 -96 c4 -22 -35 -37 -93 -37 -54 0 -95 15 -95 34 0 12 18 16
83 18 103 5 101 5 105 -15z"/>
<path d="M1010 3457 c0 -95 -34 -583 -45 -647 -8 -47 -34 -149 -59 -225 -24
-77 -54 -176 -66 -220 -12 -44 -29 -93 -37 -108 -8 -16 -13 -30 -11 -32 6 -6
129 24 142 34 7 6 20 28 28 48 31 78 117 351 137 436 52 220 116 241 273 91
71 -69 88 -77 88 -42 0 13 19 42 44 68 36 38 48 61 74 146 40 127 66 168 111
172 25 3 45 -5 77 -27 47 -34 90 -47 129 -37 48 12 19 81 -50 122 -73 42 -131
55 -300 64 -235 13 -390 57 -497 142 -26 20 -38 25 -38 15z"/>
<path d="M2478 3260 c-5 -15 -151 -25 -175 -11 -20 10 -22 7 -32 -41 -6 -28
-10 -53 -8 -55 8 -7 209 -19 213 -12 7 12 17 129 11 129 -3 0 -7 -4 -9 -10z"/>
<path d="M3321 3159 c-34 -37 -49 -80 -66 -189 -19 -122 -44 -186 -77 -199
-13 -5 -32 -19 -43 -31 -11 -12 -49 -37 -85 -55 -36 -18 -75 -44 -87 -57 -12
-13 -47 -84 -77 -157 l-55 -134 47 45 c26 25 57 51 69 57 12 6 91 23 175 36
273 45 357 77 478 181 36 31 82 65 102 77 44 26 46 41 23 151 -25 119 -82 176
-174 176 -57 0 -110 24 -144 65 -43 52 -62 60 -86 34z m181 -264 c22 -8 50
-12 72 -8 41 7 48 -8 14 -31 -29 -20 -61 -20 -100 0 -28 15 -31 14 -53 -6 -13
-12 -33 -54 -46 -93 -29 -89 -50 -112 -115 -121 -27 -4 -66 -9 -86 -12 -28 -4
-38 -2 -38 8 1 35 42 58 105 58 48 0 85 13 85 31 0 5 16 43 35 84 29 63 56 93
91 105 1 0 17 -7 36 -15z"/>
<path d="M1663 3138 c-17 -21 -31 -78 -42 -166 -11 -89 -30 -135 -61 -152 -17
-9 -50 -58 -50 -74 0 -6 61 -23 113 -31 23 -4 53 -19 75 -39 l37 -34 106 62
c171 99 231 153 299 269 l22 37 -89 0 -90 0 -45 -45 c-42 -41 -50 -45 -96 -45
-60 0 -82 7 -82 26 0 10 14 14 51 14 60 0 80 9 129 61 32 34 43 39 81 39 l43
0 -22 22 c-20 21 -24 21 -64 9 -24 -7 -66 -15 -93 -18 -46 -4 -56 -1 -111 36
-63 42 -94 50 -111 29z"/>
<path d="M4072 3128 c-17 -21 -112 -226 -112 -242 0 -8 -23 -39 -50 -69 -40
-44 -66 -61 -121 -83 -61 -24 -83 -40 -153 -112 -128 -132 -212 -163 -483
-181 -95 -6 -162 -15 -180 -24 -16 -8 -48 -39 -72 -67 -54 -65 -82 -76 -219
-94 -60 -8 -125 -21 -144 -29 l-35 -15 -6 -113 c-3 -71 -14 -141 -27 -187 -24
-82 -20 -109 28 -192 l26 -45 7 48 c4 27 15 57 24 67 34 38 110 59 281 80 223
27 289 48 364 116 30 27 44 50 56 95 21 74 54 105 160 148 160 65 203 91 306
184 170 155 278 269 278 295 0 6 11 47 26 92 l25 81 34 -7 c31 -5 38 -2 83 45
30 31 58 51 72 51 29 0 26 -5 -48 -74 -47 -45 -70 -59 -91 -59 -28 0 -31 -4
-47 -63 -13 -51 -15 -85 -9 -191 3 -70 8 -166 9 -213 2 -47 15 -143 30 -215
21 -100 27 -149 24 -211 -4 -77 -3 -80 16 -77 33 7 74 -14 95 -47 27 -45 46
-169 34 -218 l-10 -40 101 5 101 5 40 -32 c40 -31 40 -32 45 -113 l5 -82 35 3
c106 8 229 206 178 284 -9 13 -45 56 -81 96 -84 93 -105 137 -115 243 -11 106
-34 152 -111 218 -85 74 -88 90 -62 306 35 286 27 362 -54 510 -66 120 -67
122 -96 102 -34 -24 -72 -21 -99 8 -26 28 -42 31 -58 13z m-754 -800 c3 -15
-4 -18 -45 -18 -29 0 -71 -11 -108 -26 -33 -15 -91 -35 -129 -45 -64 -17 -77
-26 -150 -98 -82 -79 -119 -102 -138 -83 -7 7 0 15 20 26 17 9 66 51 110 94
70 70 84 80 133 89 30 6 88 28 129 47 61 30 85 36 125 34 38 -2 51 -7 53 -20z
m937 -154 c13 -14 29 -41 35 -59 11 -32 13 -33 41 -23 46 16 107 4 141 -29 37
-34 64 -91 49 -106 -6 -6 -14 2 -24 25 -33 79 -117 111 -176 67 -16 -12 -34
-18 -41 -14 -6 4 -22 31 -35 61 -17 39 -30 55 -49 60 -17 4 -26 13 -26 25 0
30 55 25 85 -7z"/>
<path d="M2224 3051 l-21 -61 111 2 111 3 22 45 23 45 -58 6 c-31 3 -82 9
-112 13 l-55 8 -21 -61z"/>
<path d="M2149 2900 l-37 -58 66 -16 c57 -14 68 -14 87 -2 35 23 130 114 125
119 -3 2 -50 7 -105 10 l-100 5 -36 -58z"/>
<path d="M1216 2858 c-8 -13 -29 -63 -47 -113 -17 -49 -48 -128 -67 -175 -46
-113 -79 -205 -93 -259 -16 -64 -62 -107 -125 -116 -70 -11 -115 -37 -169 -97
-108 -123 -190 -370 -209 -638 -12 -160 -15 -169 -56 -214 -65 -70 -90 -136
-90 -238 0 -89 19 -202 44 -262 22 -52 83 -113 129 -130 23 -8 84 -17 135 -19
l94 -3 -7 35 c-3 20 -20 79 -38 131 -25 77 -31 111 -31 180 0 47 6 95 12 106
9 17 8 40 -3 100 -7 44 -23 144 -34 224 -11 80 -28 195 -38 255 -29 189 -20
254 44 319 20 19 60 45 90 56 58 22 191 40 294 40 37 0 72 5 81 13 9 6 23 35
32 63 26 81 44 92 196 117 l132 22 32 85 c38 103 76 169 128 226 l39 42 -23
26 c-18 21 -39 30 -98 40 -41 7 -103 23 -138 36 -62 23 -72 31 -155 135 -34
41 -42 43 -61 13z m354 -277 c0 -4 -28 -21 -62 -37 -48 -22 -75 -28 -113 -26
-145 8 -138 9 -152 -18 -7 -14 -23 -47 -34 -73 -13 -28 -32 -53 -46 -60 -31
-14 -43 0 -16 21 12 9 31 42 43 73 34 93 50 102 190 109 66 4 123 10 127 13 9
10 63 9 63 -2z"/>
<path d="M2040 2783 c-25 -19 -54 -41 -64 -49 -26 -18 -20 -22 47 -35 l57 -10
60 43 c66 46 66 49 -14 73 -40 12 -43 11 -86 -22z"/>
<path d="M1851 2661 c-35 -22 -67 -43 -71 -48 -5 -4 19 -9 53 -11 34 -2 79 -7
99 -11 33 -8 39 -6 67 23 36 37 38 46 13 46 -10 0 -35 9 -57 20 -22 11 -39 20
-40 20 0 -1 -29 -18 -64 -39z"/>
<path d="M3951 2587 c-18 -31 -55 -76 -83 -100 -28 -23 -91 -79 -140 -124 -91
-85 -139 -114 -288 -173 -102 -41 -123 -60 -144 -133 -21 -71 -50 -106 -123
-144 -82 -44 -149 -61 -298 -79 -240 -27 -236 -26 -224 -91 11 -57 22 -96 56
-186 22 -61 28 -68 47 -63 94 27 141 37 234 47 104 11 279 8 315 -6 26 -11 22
22 -9 57 -14 17 -28 44 -31 59 -4 23 -10 28 -27 24 -11 -3 -102 -14 -201 -25
-99 -10 -190 -22 -202 -26 -34 -10 -30 24 5 37 15 6 112 22 216 35 218 28 244
38 264 102 10 31 26 50 63 77 43 31 49 39 49 70 0 48 22 97 54 122 15 12 84
40 154 62 139 45 229 95 311 174 61 59 67 87 48 237 l-13 105 -33 -58z"/>
<path d="M2541 2590 c-190 -51 -329 -101 -390 -140 -32 -21 -62 -43 -65 -49
-4 -6 11 -15 36 -21 24 -6 57 -16 73 -22 17 -5 57 -14 89 -19 99 -15 135 -28
169 -62 l32 -33 43 18 c23 10 79 24 124 29 46 6 92 15 104 19 14 6 38 49 81
148 l61 140 -27 6 c-14 3 -69 8 -121 11 -85 5 -108 2 -209 -25z"/>
<path d="M1681 2525 c-42 -45 -131 -215 -131 -249 0 -34 29 -14 55 40 45 91
77 121 157 145 66 20 72 21 98 5 38 -22 44 -21 56 17 6 17 14 39 18 48 8 18
-10 22 -139 35 l-70 6 -44 -47z"/>
<path d="M1760 2417 c-39 -10 -50 -20 -86 -73 -77 -115 -69 -143 53 -180 48
-14 164 -60 256 -101 93 -41 205 -87 249 -104 44 -16 100 -41 124 -55 25 -15
47 -24 51 -21 18 19 43 151 43 233 0 82 -2 94 -24 117 -34 36 -79 53 -209 76
-112 20 -256 65 -328 101 -43 22 -64 23 -129 7z"/>
<path d="M3951 2239 c-71 -63 -187 -123 -298 -153 -152 -40 -173 -58 -173
-144 0 -45 -3 -53 -35 -79 -67 -53 -85 -72 -85 -89 0 -15 10 -16 98 -11 100 6
231 40 482 125 l115 39 3 56 3 56 -52 -34 c-33 -23 -63 -35 -84 -35 -38 0 -56
17 -28 26 48 16 145 67 150 80 3 8 2 26 -1 40 -6 24 -8 25 -25 10 -9 -9 -44
-25 -76 -36 -106 -36 -150 -18 -47 20 31 12 74 31 95 43 37 21 38 23 31 62
-13 77 -14 77 -73 24z m-158 -244 c3 -16 -84 -53 -140 -59 -43 -5 -53 -4 -53
8 0 16 8 19 90 36 30 6 62 15 70 20 17 11 31 9 33 -5z"/>
<path d="M1400 2200 c-52 -10 -110 -19 -128 -19 -37 -1 -49 -19 -32 -50 14
-27 52 -46 142 -71 112 -31 507 -191 563 -229 38 -26 61 -34 109 -37 112 -8
190 -4 266 14 l75 18 -59 32 c-32 17 -82 40 -110 51 -28 10 -130 54 -226 96
-96 43 -224 94 -285 114 -100 33 -111 39 -125 68 -13 29 -19 32 -55 32 -22 -1
-83 -9 -135 -19z"/>
<path d="M1184 2051 l-21 -58 161 -68 c382 -162 548 -247 671 -346 40 -32 76
-59 79 -59 14 0 6 39 -31 148 -28 81 -111 139 -298 206 -199 71 -497 195 -519
215 l-21 20 -21 -58z"/>
<path d="M880 1979 c-127 -15 -196 -60 -235 -153 l-15 -36 37 0 c21 0 77 -10
125 -22 76 -20 94 -21 150 -11 99 16 168 50 184 89 19 45 18 109 -2 128 -17
18 -114 20 -244 5z"/>
<path d="M1181 1788 c0 -84 5 -193 10 -243 5 -49 12 -148 15 -218 6 -111 9
-129 25 -138 11 -5 88 -27 172 -49 129 -33 187 -42 358 -55 249 -19 347 -32
400 -50 23 -8 43 -15 45 -15 2 0 -3 15 -11 33 -7 18 -20 71 -29 117 -9 47 -25
127 -38 177 l-22 93 -105 77 c-130 96 -184 129 -331 203 -114 57 -344 160
-358 160 -4 0 -7 -42 -7 -94 0 -98 -4 -112 -30 -103 -12 5 -15 26 -15 115 l0
108 -35 17 c-20 9 -38 17 -40 17 -3 0 -5 -69 -4 -152z m316 -137 c-2 -25 -8
-54 -12 -63 -9 -22 61 -58 290 -149 115 -45 171 -73 173 -84 3 -14 -3 -16 -42
-10 -44 7 -46 6 -46 -17 0 -35 -25 -66 -41 -51 -10 10 -10 21 -1 49 10 35 10
36 -24 50 -19 8 -50 21 -70 29 -45 19 -44 19 -44 -4 0 -10 -7 -24 -15 -31 -23
-19 -37 0 -26 36 l9 31 -174 89 c-96 48 -174 94 -174 101 0 24 21 23 79 -6
l59 -30 12 47 c21 85 56 95 47 13z m-109 -227 c3 -38 6 -41 51 -57 62 -22 61
-22 61 11 0 34 14 57 30 47 6 -4 10 -24 8 -49 l-3 -41 58 -18 c34 -11 56 -24
54 -30 -5 -16 -85 -11 -150 8 -28 8 -52 15 -54 15 -2 0 -3 -11 -3 -24 0 -28
-24 -53 -35 -36 -4 6 -4 26 -1 44 6 32 5 32 -74 71 -75 36 -94 55 -70 70 5 3
23 -1 39 -10 40 -20 40 -20 53 15 14 41 32 33 36 -16z"/>
<path d="M3989 1870 c-114 -58 -446 -150 -544 -150 -70 0 -145 -30 -145 -56 0
-10 10 -28 21 -40 19 -20 24 -21 43 -9 11 8 65 21 120 30 210 33 547 167 561
222 3 14 5 27 3 28 -2 2 -28 -10 -59 -25z"/>
<path d="M4090 1810 c-14 -4 -81 -32 -150 -63 -164 -72 -284 -112 -395 -133
-152 -28 -162 -31 -173 -62 -6 -15 -13 -51 -16 -81 -10 -102 -49 -116 -281
-107 -144 6 -255 -1 -271 -17 -4 -3 4 -37 17 -74 13 -37 24 -69 25 -70 0 -2
52 8 116 22 219 46 365 53 487 23 10 -2 17 11 23 40 8 36 17 48 55 72 61 39
161 71 373 121 96 22 197 46 225 53 40 9 53 17 64 41 15 31 21 118 10 130 -4
3 -23 -5 -43 -19 -45 -30 -94 -42 -109 -26 -17 16 23 44 94 65 49 15 56 20 51
39 -12 50 -44 65 -102 46z m-210 -212 c0 -17 5 -20 31 -14 25 5 30 3 27 -11
-2 -11 -29 -25 -83 -42 -44 -14 -84 -31 -88 -38 -13 -21 -35 -15 -39 10 -2 18
-10 23 -45 25 l-43 3 0 -41 c0 -49 -20 -51 -33 -3 -9 30 -10 30 -50 21 -25 -5
-44 -5 -50 1 -18 18 3 29 76 41 39 6 92 15 117 20 51 9 60 7 60 -20 0 -18 3
-18 38 -6 30 10 38 18 40 42 5 50 10 58 27 44 8 -7 15 -21 15 -32z"/>
<path d="M2325 1775 c-33 -8 -77 -14 -97 -14 -41 -1 -48 -12 -20 -33 37 -28
93 -104 103 -141 6 -21 15 -37 22 -35 7 2 49 12 94 22 l82 19 -51 99 c-28 54
-56 98 -62 97 -6 0 -38 -7 -71 -14z"/>
<path d="M1115 1770 c-4 -7 -33 -23 -64 -37 -82 -37 -175 -41 -290 -14 -51 12
-95 20 -97 18 -2 -2 2 -41 8 -86 10 -64 17 -85 32 -93 19 -10 118 -6 200 8 31
6 38 4 34 -7 -7 -20 -82 -37 -170 -38 -87 -1 -84 3 -72 -83 5 -37 10 -45 24
-41 10 3 21 0 24 -6 12 -18 94 -12 207 15 102 25 139 26 139 6 0 -23 -185 -73
-276 -74 -50 -1 -68 3 -85 18 l-21 19 7 -55 c4 -30 10 -59 13 -64 3 -5 52 -6
109 -3 79 5 103 3 100 -6 -6 -19 -97 -38 -155 -33 l-52 5 6 -57 c4 -31 7 -58
8 -59 1 0 33 10 72 23 44 14 120 28 195 35 68 7 130 17 138 23 11 9 12 39 7
161 -21 446 -22 455 -41 425z"/>
<path d="M2582 1757 c-12 -13 -26 -45 -31 -71 -8 -44 -6 -55 26 -125 103 -224
183 -470 274 -839 63 -257 96 -352 124 -352 9 0 29 7 44 15 l29 14 -24 112
c-34 164 -49 207 -124 373 -39 86 -80 195 -94 251 -14 55 -60 192 -102 305
-42 113 -82 236 -88 273 l-12 68 -22 -24z"/>
<path d="M2076 1706 c27 -41 40 -78 59 -167 116 -553 112 -535 150 -585 48
-62 72 -111 90 -181 11 -41 23 -64 45 -81 38 -30 47 -67 55 -232 7 -161 12
-190 30 -190 20 0 52 37 58 68 7 34 -26 246 -59 377 -56 220 -165 616 -197
710 -19 55 -39 123 -46 151 -20 85 -83 145 -183 172 l-37 10 35 -52z"/>
<path d="M2418 1526 c-42 -6 -79 -13 -81 -16 -3 -3 9 -45 27 -95 l31 -90 45 3
c55 4 161 20 167 25 2 2 -14 44 -35 93 -43 101 -37 97 -154 80z"/>
<path d="M4270 1513 c-68 -11 -476 -98 -558 -119 -116 -30 -190 -61 -203 -86
-6 -11 -8 -22 -5 -25 9 -9 130 13 366 66 118 27 271 61 340 76 131 28 236 67
225 85 -6 10 -112 12 -165 3z"/>
<path d="M2980 1503 c-14 -2 -71 -13 -128 -25 -96 -19 -102 -22 -96 -42 10
-34 16 -36 82 -26 34 5 145 6 245 3 204 -7 227 -2 227 46 0 28 -3 29 -63 40
-60 10 -213 13 -267 4z"/>
<path d="M4420 1425 c-25 -13 -101 -35 -170 -50 -69 -15 -224 -49 -345 -75
-121 -27 -255 -54 -298 -61 l-78 -13 3 -66 3 -65 -122 -24 -123 -24 0 -31 c0
-49 10 -56 55 -46 90 21 126 4 60 -27 -28 -13 -33 -21 -29 -39 8 -32 -13 -39
-32 -9 -13 20 -25 25 -55 25 -39 0 -39 0 -39 -40 0 -28 -4 -40 -14 -40 -10 0
-16 14 -18 43 -2 34 -7 43 -25 45 -28 4 -50 29 -36 43 6 6 24 7 52 0 l42 -9
-3 39 -3 39 -90 5 c-49 3 -132 13 -183 24 l-93 18 6 -26 c3 -14 31 -79 61
-144 30 -64 54 -122 54 -127 0 -16 289 -12 409 6 347 51 656 149 991 317 56
28 67 37 78 72 7 22 11 49 8 61 -6 22 -6 22 -37 -7 -48 -44 -174 -77 -167 -43
2 9 31 25 72 38 68 23 125 70 126 104 0 17 -4 16 -45 -12 -54 -37 -175 -60
-175 -33 0 8 28 21 70 31 43 11 74 26 80 36 5 10 21 21 35 24 20 5 25 13 25
36 0 17 -1 29 -2 29 -2 -1 -23 -12 -48 -24z m-452 -293 c3 -27 7 -32 20 -27
98 40 172 55 172 36 0 -9 -112 -58 -195 -85 -47 -15 -50 -18 -50 -49 0 -41
-28 -45 -33 -4 -3 21 -9 27 -27 27 -13 0 -29 -8 -35 -17 -8 -13 -13 -14 -16
-5 -3 6 -20 12 -39 12 -53 0 -95 12 -95 26 0 10 16 14 60 14 l60 0 0 31 c0 38
24 35 28 -4 4 -31 6 -31 68 -16 44 11 44 12 44 56 0 37 3 44 18 41 11 -2 18
-14 20 -36z"/>
<path d="M2525 1289 c-33 -5 -72 -7 -87 -5 -33 6 -34 0 -13 -70 l15 -50 87 8
c49 4 100 10 115 13 l26 6 -17 52 c-20 59 -26 61 -126 46z"/>
<path d="M3180 1224 c-54 -7 -293 -45 -311 -50 -11 -3 -15 -12 -12 -27 4 -22
13 -24 131 -38 162 -18 262 -15 386 10 54 12 100 21 102 21 2 0 4 11 4 25 0
21 -8 27 -52 40 -55 16 -186 26 -248 19z"/>
<path d="M1179 1146 c-2 -2 -65 -11 -139 -20 -146 -17 -216 -34 -267 -66 -61
-37 -69 -33 232 -104 105 -25 307 -67 450 -95 143 -28 332 -71 420 -96 180
-52 280 -67 385 -58 l72 6 -6 31 c-11 53 -67 163 -100 195 -58 56 -165 79
-491 106 -206 17 -274 29 -435 75 -111 32 -114 32 -121 26z"/>
<path d="M2620 1139 c-30 -4 -81 -7 -114 -8 -56 -1 -58 -2 -52 -23 4 -13 9
-35 12 -50 l7 -28 118 0 c77 0 119 4 119 11 0 19 -22 99 -29 102 -3 2 -31 0
-61 -4z"/>
<path d="M2690 989 c-15 -6 -60 -8 -112 -4 -97 8 -95 10 -76 -60 l12 -45 101
0 c55 0 109 3 121 6 20 5 21 7 6 60 -8 30 -18 54 -21 53 -3 0 -17 -5 -31 -10z"/>
<path d="M733 914 c2 -35 10 -70 16 -78 8 -9 42 -15 106 -18 52 -2 97 -7 101
-11 25 -25 -70 -40 -148 -24 l-38 8 0 -34 c0 -19 6 -39 13 -44 17 -14 89 -26
177 -29 41 -1 76 -7 78 -13 10 -29 -154 -36 -207 -8 -19 9 -35 16 -37 14 -6
-6 19 -97 29 -106 7 -5 48 -14 92 -20 44 -6 208 -49 365 -96 157 -48 332 -100
390 -116 101 -28 353 -89 370 -89 4 0 10 59 11 130 3 102 7 133 19 140 8 5 19
5 23 1 5 -5 8 -75 8 -156 -1 -127 1 -147 14 -142 8 4 64 2 124 -3 93 -9 194
-3 205 11 1 2 -1 56 -5 119 -5 63 -10 153 -13 199 -6 118 -12 123 -135 109
-125 -15 -222 -1 -441 60 -97 28 -268 68 -380 91 -182 37 -619 136 -709 161
l-34 9 6 -65z m457 -179 c57 -19 107 -35 110 -35 4 0 12 11 18 25 17 37 36 32
28 -8 l-6 -34 105 -29 c60 -17 105 -34 105 -41 0 -8 -10 -11 -27 -8 -104 16
-102 16 -92 -14 6 -18 6 -37 0 -54 -17 -44 -31 -31 -31 28 0 43 -4 56 -19 65
-32 17 -58 12 -65 -12 -7 -27 -23 -14 -28 22 -2 19 -10 26 -30 28 -23 3 -28 0
-28 -20 0 -31 -15 -52 -30 -43 -7 4 -10 24 -8 47 l3 40 -62 25 c-35 14 -63 31
-63 39 0 19 2 19 120 -21z m593 -153 c-2 -24 2 -31 20 -36 31 -7 117 -63 117
-76 0 -15 -26 -12 -60 5 l-30 16 0 -31 c0 -17 -5 -40 -10 -51 -13 -23 -45 -26
-36 -3 3 9 9 33 12 55 6 35 4 39 -20 49 -43 16 -55 12 -70 -24 -8 -18 -19 -37
-25 -40 -19 -12 -24 22 -8 54 17 33 15 34 -52 42 -14 2 -26 9 -29 16 -3 10 13
13 74 11 60 -2 79 1 82 12 9 35 13 40 25 36 7 -2 11 -17 10 -35z"/>
<path d="M2685 829 c-27 -4 -74 -5 -103 -2 l-53 6 7 -29 c20 -80 19 -79 53
-82 36 -4 189 13 198 21 3 3 1 23 -3 43 -11 44 -30 53 -99 43z"/>
<path d="M2745 688 c-22 -5 -71 -8 -108 -6 l-68 4 6 -36 c13 -77 6 -73 124
-68 58 2 111 6 117 10 14 9 -5 108 -20 107 -6 -1 -29 -5 -51 -11z"/>
<path d="M2790 538 c-25 -5 -78 -6 -117 -3 l-73 6 0 -35 c0 -59 6 -65 58 -61
26 3 82 7 125 11 l78 6 -7 31 c-10 51 -15 54 -64 45z"/>
</g>
</svg>
