<?xml version="1.0" standalone="no"?>
<!DOCTYPE svg PUBLIC "-//W3C//DTD SVG 20010904//EN"
 "http://www.w3.org/TR/2001/REC-SVG-20010904/DTD/svg10.dtd">
<svg version="1.0" xmlns="http://www.w3.org/2000/svg"
 width="242.000000pt" height="208.000000pt" viewBox="0 0 242.000000 208.000000"
 preserveAspectRatio="xMidYMid meet">

<g transform="translate(0.000000,208.000000) scale(0.100000,-0.100000)"
fill="#000000" stroke="none">
<path d="M1540 2064 c-16 -10 -18 -13 -5 -8 43 15 65 16 65 4 0 -7 -7 -10 -15
-6 -8 3 -15 0 -15 -7 0 -8 18 -12 55 -12 48 0 55 2 55 20 0 17 -2 17 -10 5 -9
-13 -11 -13 -20 0 -9 13 -11 13 -20 0 -9 -13 -10 -13 -10 0 0 21 -48 23 -80 4z"/>
<path d="M1510 2011 c0 -17 -5 -33 -10 -36 -6 -3 -28 -33 -50 -65 -22 -33 -59
-70 -84 -87 -25 -15 -45 -34 -46 -40 0 -10 -30 -13 -115 -13 -108 0 -115 1
-115 20 0 11 7 20 15 20 8 0 15 -4 15 -10 0 -5 7 -10 15 -10 8 0 15 4 15 9 0
5 10 12 23 14 19 4 19 4 -5 6 -14 0 -29 -5 -31 -11 -4 -10 -6 -10 -6 0 -2 23
-48 13 -67 -15 -15 -24 -15 -26 -1 -14 16 12 17 3 17 -125 l0 -139 -21 25
c-18 22 -20 35 -16 125 3 55 3 91 0 80 -8 -31 -63 -83 -102 -97 -24 -9 -93
-13 -206 -13 -109 1 -149 -2 -110 -6 95 -11 216 -10 281 2 43 8 68 19 91 42
18 17 35 28 38 25 3 -3 -17 -24 -44 -47 -49 -41 -53 -43 -148 -51 -54 -5 -109
-9 -123 -9 -14 1 -44 -2 -66 -6 -53 -9 -114 9 -114 35 0 10 6 20 12 22 7 3 3
7 -9 10 -12 3 -22 3 -21 -1 0 -3 0 -16 -1 -29 -2 -34 -45 -27 -49 8 l-3 25
-234 -3 -235 -3 0 -824 0 -825 1068 0 c587 0 1131 3 1210 7 l142 6 -1 46 0 46
-142 117 c-307 254 -521 395 -717 472 -225 89 -547 260 -575 307 -6 8 -4 10 6
4 8 -5 5 1 -5 13 -21 25 -36 31 -16 7 29 -35 -9 -11 -57 37 l-53 52 0 -37 c0
-34 -2 -37 -30 -37 -30 0 -30 0 -30 59 0 66 -18 93 -48 74 -13 -8 -17 -25 -17
-72 0 -55 -2 -61 -20 -61 -30 0 -93 69 -97 105 -2 25 -8 31 -32 33 -37 5 -46
-10 -46 -75 l0 -53 -54 0 c-34 0 -57 5 -60 13 -5 10 -7 10 -12 0 -4 -9 -28
-13 -67 -13 l-62 0 3 90 3 90 295 0 294 0 0 -37 c0 -26 3 -34 9 -24 7 11 10
10 14 -5 4 -16 5 -16 6 3 1 14 12 28 31 38 36 19 38 19 43 -2 3 -13 5 -11 7 7
1 14 1 30 0 35 -1 6 2 7 6 3 4 -4 13 0 21 10 8 9 11 11 8 4 -6 -11 -3 -12 14
-3 22 12 30 27 9 16 -19 -9 24 25 45 36 14 8 19 5 27 -13 8 -21 9 -22 9 -2 1
11 7 26 14 34 10 12 9 12 -3 5 -9 -6 -2 2 15 17 16 15 35 26 42 23 11 -3 48
30 48 44 0 3 6 6 14 6 7 0 34 25 60 54 25 30 39 51 31 46 -12 -7 -11 -3 3 18
20 31 22 41 5 31 -6 -4 -9 -3 -6 2 4 5 -27 34 -68 63 -41 30 -74 61 -74 68 0
7 -9 13 -19 13 -11 0 -23 4 -26 10 -4 6 -13 5 -25 -3 -21 -12 -27 -37 -10 -37
6 0 10 -38 10 -94 0 -77 -3 -95 -16 -100 -9 -3 -20 -4 -25 0 -5 3 -9 61 -9
130 l0 124 114 0 c103 0 115 -2 121 -19 5 -15 13 -17 55 -13 28 2 50 2 50 -1
0 -3 -17 -14 -39 -24 -37 -19 -39 -19 -61 -1 -12 10 -26 15 -31 12 -25 -15 -1
-47 97 -128 l106 -88 -51 -52 c-28 -29 -48 -56 -44 -60 5 -4 1 -6 -7 -5 -20 5
-162 -110 -153 -124 4 -6 0 -8 -10 -4 -17 6 -44 -18 -29 -27 9 -5 200 147 283
226 25 23 33 32 17 19 -38 -34 -45 -21 -8 14 17 16 30 33 30 39 0 5 -15 23
-32 38 l-33 29 36 -26 c32 -23 38 -33 48 -88 22 -129 23 -153 6 -167 -8 -7
-15 -21 -15 -32 0 -13 -5 -18 -14 -15 -9 4 -27 -14 -51 -48 -27 -40 -45 -56
-68 -60 -36 -8 -67 -32 -67 -52 0 -7 -4 -13 -10 -13 -5 0 -10 -6 -10 -14 0 -8
-18 -23 -40 -34 -32 -15 -42 -17 -50 -7 -9 11 -18 9 -45 -8 -19 -12 -33 -27
-31 -33 2 -6 -9 -19 -26 -28 -29 -18 -29 -18 -9 -33 53 -36 294 -149 444 -207
122 -46 195 -82 273 -131 168 -108 340 -230 464 -333 l115 -94 3 763 c2 870
10 796 -86 803 -35 2 -65 12 -93 30 -22 15 -43 24 -48 22 -5 -3 -16 3 -26 14
-10 11 -33 22 -51 26 -19 3 -36 10 -39 14 -3 5 -13 6 -23 4 -10 -3 -29 7 -46
25 -24 25 -38 31 -72 31 -33 0 -49 6 -67 25 -16 18 -36 27 -68 30 -24 2 -57 7
-72 11 -21 5 -32 2 -43 -12 -9 -11 -13 -13 -9 -7 4 9 1 11 -11 6 -14 -5 -13
-8 9 -19 28 -15 35 -28 33 -66 -1 -14 2 -24 7 -21 5 3 7 21 4 39 -5 30 -4 33
11 25 10 -5 25 -18 35 -29 18 -19 17 -20 -13 -42 -16 -12 -27 -26 -24 -32 4
-5 16 0 30 13 l24 22 0 -36 c0 -28 -5 -37 -22 -43 -13 -3 -34 -19 -48 -34 -14
-15 -36 -31 -50 -35 -14 -4 -29 -11 -35 -15 -5 -4 -29 -11 -52 -15 -24 -4 -45
-11 -48 -15 -3 -5 -17 -5 -31 0 -14 6 -45 10 -69 10 -24 0 -46 4 -49 8 -11 18
65 42 134 42 39 0 70 4 70 10 0 5 6 7 14 4 8 -3 24 4 35 15 12 12 21 19 21 16
0 -3 9 -1 20 5 11 6 18 15 15 21 -4 5 -18 1 -35 -11 -35 -25 -47 -26 -29 -2
13 15 12 16 -3 3 -10 -7 -15 -18 -12 -23 3 -5 0 -8 -7 -7 -8 1 -26 -4 -42 -11
-15 -7 -30 -10 -35 -5 -4 4 -1 10 6 12 16 6 172 122 172 128 0 3 -6 2 -12 0
-7 -3 -33 1 -58 8 l-45 13 -6 64 -6 65 -1 -58 -2 -58 -31 22 -32 22 -20 -24
c-10 -13 -24 -31 -31 -39 -24 -33 -126 -112 -126 -98 0 8 20 28 45 46 38 27
84 79 116 132 8 13 10 13 19 0 7 -11 10 -1 10 38 0 28 -2 52 -5 52 -3 0 -5
-13 -5 -29z m-202 -458 l34 -32 -32 -41 c-34 -44 -50 -56 -50 -41 0 5 3 11 8
13 4 2 20 19 37 38 16 19 3 10 -29 -21 l-59 -57 -33 44 c-33 43 -34 47 -34
135 l0 90 62 -48 c34 -26 77 -62 96 -80z m-848 72 c0 -9 -10 -14 -27 -14 -60
2 -340 -11 -380 -17 -41 -6 -43 -5 -43 20 l0 26 225 0 c191 0 225 -2 225 -15z
m1010 -188 c0 -2 -15 -16 -32 -33 l-33 -29 29 33 c28 30 36 37 36 29z m-840
-87 c0 -20 5 -30 15 -30 10 0 15 10 15 30 0 29 2 30 45 30 43 0 45 -1 45 -30
0 -20 5 -30 15 -30 10 0 15 10 15 30 0 28 2 30 39 30 l38 0 7 -61 c8 -67 4
-78 -19 -59 -10 8 -15 9 -15 1 0 -16 -107 -15 -114 2 -5 10 -7 10 -12 0 -3 -8
-26 -13 -60 -13 -45 0 -54 3 -54 18 -1 16 -1 16 -14 0 -16 -21 -101 -25 -110
-5 -5 10 -7 10 -12 0 -8 -17 -114 -18 -114 -1 0 9 -3 9 -12 0 -22 -22 -28 -12
-28 48 l0 60 35 0 c31 0 35 -3 35 -25 0 -16 6 -25 15 -25 9 0 15 9 15 25 0 23
3 25 50 25 47 0 50 -2 50 -25 0 -16 6 -25 15 -25 10 0 15 10 15 30 0 29 1 30
50 30 49 0 50 -1 50 -30z m760 17 c0 -2 -10 -12 -22 -23 l-23 -19 19 23 c18
21 26 27 26 19z m-1110 -229 c-7 -117 -10 -229 -8 -248 3 -19 6 2 6 47 l2 82
130 3 c123 3 130 2 133 -17 2 -11 5 16 6 59 l1 79 93 -89 c95 -92 260 -210
376 -268 36 -19 77 -43 90 -53 l25 -20 -24 -59 c-32 -82 -133 -280 -168 -332
l-29 -42 -47 47 c-26 27 -58 60 -72 74 -14 14 -26 32 -28 40 -3 23 -20 45 -47
62 -27 18 -130 210 -154 289 -8 24 -14 38 -14 32 -1 -7 -11 -13 -23 -13 -13
-1 -52 -4 -88 -6 -36 -2 -89 -6 -117 -10 l-53 -8 0 34 c0 26 -3 30 -10 19 -8
-12 -10 -12 -10 5 0 11 -9 34 -20 50 -26 39 -25 57 6 271 22 155 36 205 52
189 2 -2 -1 -100 -8 -217z m1050 179 c0 -2 -10 -12 -22 -23 l-23 -19 19 23
c18 21 26 27 26 19z m-50 -41 c0 -2 -8 -10 -17 -17 -16 -13 -17 -12 -4 4 13
16 21 21 21 13z m-641 -189 l60 -62 75 3 75 4 63 -57 c35 -31 102 -83 150
-115 83 -54 138 -83 498 -258 168 -82 262 -155 445 -343 101 -104 215 -234
215 -245 0 -2 -263 -4 -584 -4 l-584 0 54 157 c71 210 97 341 91 455 -3 56
-10 96 -20 112 -9 13 -69 52 -134 86 -65 34 -165 93 -223 131 -58 38 -89 55
-70 38 40 -35 214 -141 319 -193 66 -34 130 -96 98 -96 -7 0 -18 10 -24 23 -6
13 -48 41 -104 71 -149 77 -283 171 -382 267 -51 48 -89 88 -85 89 3 0 33 -28
67 -63z m534 -412 c4 -8 2 -17 -2 -20 -5 -3 -3 -25 4 -49 8 -25 12 -66 9 -93
-8 -80 -50 -241 -97 -373 -36 -101 -48 -126 -65 -128 -26 -4 -36 37 -30 125 3
52 1 59 -14 55 -10 -2 -21 5 -28 18 -7 12 -18 19 -26 16 -19 -7 -18 -2 9 39
24 39 56 46 64 15 3 -11 11 -20 18 -20 8 0 13 -23 14 -72 3 -100 11 -100 11 0
0 53 -4 82 -11 82 -6 0 -9 7 -5 15 3 8 2 14 -2 14 -10 -2 -52 13 -52 18 0 2 7
15 16 28 20 31 54 34 54 5 0 -11 5 -20 11 -20 6 0 8 -7 4 -18 -5 -13 -4 -14 6
-5 17 17 -4 63 -31 70 -16 4 -17 9 -8 29 14 29 38 31 45 4 3 -11 10 -20 15
-20 5 0 6 -4 3 -10 -3 -5 -4 -10 -1 -10 2 0 12 14 20 31 19 38 12 76 -16 85
-13 4 -17 11 -13 22 4 10 12 29 17 45 12 31 38 37 38 7 0 -11 4 -20 8 -20 5 0
10 -30 11 -67 3 -96 11 -92 11 5 0 51 -4 82 -11 82 -5 0 -8 4 -4 9 3 5 -3 12
-13 15 -17 6 -18 11 -8 41 6 19 18 35 26 36 10 0 11 2 3 6 -17 6 -16 23 1 23
8 0 16 -7 19 -15z m-78 -215 c0 -8 4 -18 10 -22 6 -5 5 -12 -3 -20 -11 -11
-15 -10 -23 5 -6 9 -17 17 -25 17 -12 0 -13 4 -4 21 13 23 45 22 45 -1z m-151
-272 c-1 -11 5 -18 16 -18 15 0 17 -11 19 -80 l2 -80 -32 0 c-29 0 -31 2 -27
33 3 30 1 33 -18 29 -15 -3 -26 3 -33 17 -7 12 -18 21 -26 21 -20 0 -19 3 17
55 26 37 38 45 58 43 17 -2 25 -9 24 -20z m-96 -126 c3 -16 10 -22 28 -22 13
0 24 -6 24 -13 0 -9 -21 -14 -76 -15 l-76 -2 32 40 c35 44 63 49 68 12z"/>
<path d="M330 1330 c0 -5 5 -10 10 -10 6 0 10 5 10 10 0 6 -4 10 -10 10 -5 0
-10 -4 -10 -10z"/>
<path d="M440 1330 c0 -5 5 -10 10 -10 6 0 10 5 10 10 0 6 -4 10 -10 10 -5 0
-10 -4 -10 -10z"/>
<path d="M570 1330 c0 -5 5 -10 10 -10 6 0 10 5 10 10 0 6 -4 10 -10 10 -5 0
-10 -4 -10 -10z"/>
<path d="M690 1330 c0 -5 5 -10 10 -10 6 0 10 5 10 10 0 6 -4 10 -10 10 -5 0
-10 -4 -10 -10z"/>
<path d="M1150 608 c0 -7 5 -20 10 -28 8 -12 10 -11 10 7 0 12 -4 25 -10 28
-5 3 -10 0 -10 -7z"/>
<path d="M1114 498 c-4 -6 -3 -8 4 -4 6 3 13 -2 15 -11 4 -14 5 -13 6 5 1 23
-13 30 -25 10z"/>
<path d="M1132 430 c0 -14 2 -19 5 -12 2 6 2 18 0 25 -3 6 -5 1 -5 -13z"/>
<path d="M1102 300 c0 -14 2 -19 5 -12 2 6 2 18 0 25 -3 6 -5 1 -5 -13z"/>
<path d="M1073 230 c0 -30 2 -43 4 -27 2 15 2 39 0 55 -2 15 -4 2 -4 -28z"/>
<path d="M919 143 c-13 -16 -12 -17 4 -4 9 7 17 15 17 17 0 8 -8 3 -21 -13z"/>
<path d="M1651 2018 c-1 -20 -21 -25 -21 -5 0 6 -9 -1 -20 -18 -11 -16 -19
-43 -19 -60 1 -16 3 -22 6 -13 2 9 18 20 34 23 17 4 33 14 36 23 4 10 10 19
14 22 4 3 4 12 -1 20 -9 13 -10 13 -11 0 0 -10 -3 -8 -9 5 -7 17 -9 17 -9 3z
m7 -40 c-2 -6 -14 -15 -26 -19 -20 -8 -21 -6 -12 11 11 21 44 28 38 8z"/>
<path d="M1233 1813 c15 -2 27 -9 27 -14 0 -5 7 -9 15 -9 8 0 15 4 15 9 0 5 8
12 18 14 13 4 12 5 -5 6 -12 0 -24 -5 -26 -11 -4 -10 -6 -10 -6 0 -1 7 -14 11
-33 11 -31 -2 -31 -2 -5 -6z"/>
<path d="M1659 1793 l-24 -28 28 24 c25 23 32 31 24 31 -2 0 -14 -12 -28 -27z"/>
<path d="M1696 1791 c-4 -5 -2 -12 3 -15 5 -4 12 -2 15 3 4 5 2 12 -3 15 -5 4
-12 2 -15 -3z"/>
<path d="M1260 1690 c0 -16 5 -30 10 -30 6 0 10 14 10 30 0 17 -4 30 -10 30
-5 0 -10 -13 -10 -30z"/>
<path d="M1366 1525 c4 -15 1 -32 -7 -43 -13 -15 -12 -16 4 -3 18 14 24 71 7
71 -6 0 -8 -11 -4 -25z"/>
<path d="M1275 1390 c-38 -39 -75 -68 -82 -66 -7 3 -12 1 -10 -4 1 -5 -11 -21
-28 -36 -24 -20 -20 -19 16 6 41 28 190 170 178 170 -2 0 -36 -32 -74 -70z"/>
<path d="M1165 1350 c-3 -6 1 -7 9 -4 18 7 21 14 7 14 -6 0 -13 -4 -16 -10z"/>
<path d="M1034 1204 c-18 -14 -18 -15 4 -4 12 6 22 13 22 15 0 8 -5 6 -26 -11z"/>
<path d="M1152 1193 c-17 -16 -36 -29 -44 -31 -19 -5 -31 -19 -21 -25 13 -8
115 62 108 73 -8 14 -9 13 -43 -17z"/>
<path d="M390 1136 c0 -33 2 -36 31 -36 28 0 30 2 27 33 -2 27 -8 33 -30 35
-26 3 -28 1 -28 -32z"/>
<path d="M1015 1115 c-27 -13 -55 -28 -60 -33 -17 -14 -49 3 -55 29 -5 19 -7
21 -12 8 -4 -11 5 -28 29 -50 19 -19 33 -28 31 -21 -2 8 19 23 52 37 30 12 56
28 58 34 2 6 9 8 14 5 7 -4 8 -2 4 4 -4 7 -8 12 -9 11 -1 0 -24 -11 -52 -24z"/>
<path d="M1017 989 c12 -15 73 -53 73 -46 0 2 -19 17 -42 32 -24 16 -38 22
-31 14z"/>
</g>
</svg>
