<?xml version="1.0" standalone="no"?>
<!DOCTYPE svg PUBLIC "-//W3C//DTD SVG 20010904//EN"
 "http://www.w3.org/TR/2001/REC-SVG-20010904/DTD/svg10.dtd">
<svg version="1.0" xmlns="http://www.w3.org/2000/svg"
 width="700.000000pt" height="490.000000pt" viewBox="0 0 700.000000 490.000000"
 preserveAspectRatio="xMidYMid meet">

<g transform="translate(0.000000,490.000000) scale(0.100000,-0.100000)"
fill="#000000" stroke="none">
<path d="M3265 4480 c-3 -5 -1 -10 4 -10 6 0 11 5 11 10 0 6 -2 10 -4 10 -3 0
-8 -4 -11 -10z"/>
<path d="M3399 4344 c22 -28 59 -68 82 -88 39 -36 42 -37 59 -21 11 10 19 20
18 24 -3 18 17 41 36 41 17 0 18 2 6 10 -22 15 -24 13 -49 -30 -12 -22 -28
-40 -34 -40 -7 0 -45 34 -86 77 -48 51 -59 60 -32 27z"/>
<path d="M2588 4175 c-50 -34 -168 -126 -168 -131 0 -9 1527 -3 1540 6 13 9
13 11 0 20 -8 5 -21 10 -28 10 -7 0 -10 5 -7 10 3 6 0 10 -9 10 -8 0 -16 4
-18 8 -1 4 -31 27 -66 51 l-62 44 -569 1 -569 1 -44 -30z"/>
<path d="M4785 4104 c-49 -31 -91 -57 -92 -58 -1 -1 58 -2 132 -3 74 -1 135 1
135 3 0 25 -57 114 -73 114 -7 0 -52 -26 -102 -56z"/>
<path d="M4005 4030 c17 -11 35 -20 40 -20 6 0 -5 9 -23 20 -42 26 -56 26 -17
0z"/>
<path d="M3130 3968 c-30 -5 -227 -7 -436 -6 -266 2 -385 0 -392 -8 -7 -8 6
-11 47 -10 31 0 171 -1 311 -3 140 -2 278 -1 305 3 43 5 40 3 -30 -18 -44 -13
-150 -46 -235 -75 l-155 -51 -153 0 -154 0 -42 -35 c-24 -19 -48 -35 -54 -35
-6 0 -16 -9 -22 -20 -6 -11 -15 -20 -21 -20 -6 0 -7 5 -3 11 3 6 0 15 -7 20
-7 4 -16 4 -19 -1 -6 -10 -50 -2 -50 9 1 3 34 30 75 60 41 30 75 59 75 65 0 7
-3 7 -8 1 -4 -6 -43 -37 -87 -70 -44 -32 -86 -65 -93 -72 -17 -17 0 -17 17 0
11 10 12 9 7 -1 -6 -10 -1 -11 21 -6 15 4 25 4 22 0 -4 -4 -29 -10 -55 -13
-38 -4 -64 -16 -117 -55 -38 -27 -75 -47 -82 -44 -7 2 -18 21 -25 41 -7 20
-23 48 -38 63 -16 17 -23 21 -19 10 4 -10 2 -18 -3 -18 -6 0 -10 9 -10 20 0
15 -7 20 -29 20 -16 0 -41 -4 -55 -10 -19 -7 -26 -6 -26 3 0 14 -24 -24 -96
-153 -30 -52 -43 -81 -29 -65 l24 30 179 -5 c99 -3 179 -3 177 0 -2 3 13 4 32
2 l36 -5 -44 -41 c-26 -24 -47 -37 -51 -31 -5 6 -8 5 -8 -3 0 -7 -4 -10 -10
-7 -5 3 -10 1 -10 -4 0 -6 7 -11 15 -11 19 0 19 -19 1 -111 -8 -41 -20 -107
-26 -146 l-12 -73 -291 -2 -292 -3 289 -2 288 -3 -7 -57 c-7 -60 -23 -112 -24
-81 -1 16 -26 18 -317 20 -246 2 -318 0 -321 -9 -3 -7 -9 -13 -15 -13 -5 0 -6
5 -3 10 3 6 1 10 -4 10 -6 0 -11 -6 -11 -14 0 -8 -7 -16 -15 -20 -20 -7 -105
-183 -98 -202 5 -12 58 -14 374 -12 203 2 369 0 369 -4 0 -4 -170 -9 -377 -10
l-378 -3 388 -5 c302 -4 386 -2 383 7 -7 17 7 24 24 12 10 -6 11 -9 3 -9 -7 0
-13 -5 -13 -10 0 -6 6 -9 13 -8 9 2 12 -24 13 -106 l1 -108 -30 -19 c-17 -10
-34 -16 -39 -13 -4 3 -13 2 -19 -1 -6 -4 -186 -8 -400 -9 -308 -1 -388 2 -384
12 2 6 -2 12 -10 12 -8 0 -15 -7 -15 -15 0 -7 -6 -18 -13 -22 -30 -19 -52
-103 -27 -103 15 0 12 -30 -4 -36 -18 -7 -31 -110 -17 -144 5 -14 10 -19 10
-12 1 18 811 18 811 0 0 -8 3 -9 8 -3 12 17 32 16 32 -2 0 -10 -4 -34 -10 -53
l-10 -35 -142 2 c-372 7 -715 7 -706 2 6 -4 -4 -10 -21 -14 -19 -4 -37 -2 -45
4 -7 6 -16 8 -19 4 -4 -3 -7 -1 -7 5 0 6 5 14 10 17 6 3 10 14 10 23 0 9 -15
-6 -33 -34 -17 -28 -48 -75 -67 -105 -29 -44 -36 -62 -34 -99 1 -25 -3 -51 -8
-58 -9 -10 -6 -10 13 -3 13 5 23 15 21 22 -2 9 3 8 16 -4 17 -16 59 -17 516
-17 l497 0 -7 -99 c-6 -90 -4 -105 21 -185 15 -48 26 -89 23 -91 -2 -3 -255
-5 -561 -5 l-557 -1 0 -113 c0 -113 0 -114 23 -108 18 5 19 7 5 10 -21 4 -26
72 -5 72 6 1 250 1 541 0 379 0 533 3 542 11 11 9 14 6 14 -17 0 -55 -22 -209
-31 -218 -6 -6 -9 -4 -9 7 0 9 -6 17 -12 17 -7 0 -247 1 -533 3 l-520 2 -6 42
c-3 24 -7 45 -10 47 -2 3 -5 -84 -6 -192 -1 -108 1 -190 3 -182 4 13 69 14
537 10 l532 -5 3 -41 c2 -26 -7 -69 -26 -120 l-29 -79 -506 -3 c-303 -1 -507
-6 -507 -11 0 -6 203 -10 507 -10 l507 0 18 -23 c10 -13 20 -31 24 -40 5 -17
34 -18 407 -19 221 0 481 -2 577 -4 96 -2 779 -6 1518 -10 l1342 -7 0 149 c0
95 5 166 14 198 8 28 15 43 16 35 1 -11 4 -9 10 5 8 18 9 18 10 -5 l2 -25 8
25 c5 17 8 19 9 8 1 -17 29 -18 450 -18 247 0 456 -3 465 -6 9 -3 16 -1 16 5
0 6 -12 11 -26 11 -14 0 -23 4 -20 8 7 12 61 7 61 -6 0 -5 3 -14 7 -18 5 -4 8
60 8 142 -1 126 -3 146 -14 132 -14 -19 -32 -25 -21 -8 4 7 -152 10 -459 10
l-466 0 0 111 c0 94 2 110 14 100 10 -8 141 -11 480 -11 l466 1 0 59 c0 47 -3
58 -14 54 -11 -4 -13 0 -9 18 l5 23 -16 -23 -17 -22 -422 2 -422 3 408 2 c264
2 407 7 407 13 0 7 -148 10 -430 10 -381 -1 -472 -6 -428 -23 8 -3 6 -6 -4 -6
-16 -1 -18 12 -18 147 0 98 -5 165 -15 202 -8 30 -14 66 -14 80 2 23 2 24 6 3
l4 -23 415 0 c269 0 414 3 414 10 0 7 -144 10 -411 10 -278 0 -408 3 -404 10
4 7 141 10 401 10 377 -1 396 -2 415 -21 15 -15 19 -16 19 -4 0 8 5 15 10 15
6 0 10 7 10 16 0 31 -51 182 -65 194 -8 7 -12 17 -8 23 4 6 10 3 15 -9 5 -12
6 -6 2 16 -4 19 -12 46 -19 59 -12 23 -12 23 -18 2 -3 -13 1 -24 10 -30 14 -7
13 -11 -5 -32 -21 -21 -22 -21 -23 -3 0 15 -2 16 -7 4 -6 -13 -63 -15 -419
-15 l-413 0 -15 38 c-29 72 -62 67 423 67 380 -1 437 1 440 14 2 9 -2 23 -8
33 -11 17 -11 17 -6 0 4 -11 2 -16 -5 -12 -6 4 -8 13 -5 21 3 7 -1 28 -8 46
-7 18 -16 42 -20 53 -6 16 -9 17 -17 5 -9 -12 -10 -11 -5 4 7 22 -33 138 -45
130 -5 -3 -12 2 -15 10 -9 25 -26 19 -19 -6 5 -21 5 -21 -9 2 -9 15 -15 19
-16 10 0 -13 -42 -15 -327 -12 -218 2 -331 6 -340 13 -10 9 -13 7 -14 -7 0
-18 -1 -18 -9 1 l-9 20 -1 -20 c-1 -19 -2 -19 -10 2 -14 35 -8 249 8 245 6 -1
12 6 12 15 0 17 17 18 242 15 372 -4 393 -8 63 -12 l-300 -5 305 -5 c168 -3
310 -3 317 -2 14 4 -5 56 -67 190 l-39 82 -265 0 c-242 0 -266 -2 -266 -17 0
-9 -3 -13 -7 -9 -4 4 -11 67 -14 139 -4 73 -10 148 -14 167 l-7 35 91 -3 c86
-3 111 4 79 24 -7 4 -8 3 -4 -4 4 -7 1 -12 -8 -12 -9 0 -16 5 -16 10 0 6 -5
10 -11 10 -5 0 -7 -4 -4 -10 3 -5 2 -10 -4 -10 -5 0 -13 5 -16 10 -3 6 -30 10
-60 10 -59 0 -60 1 -71 81 -5 38 -4 50 5 45 6 -4 11 -1 11 6 0 8 -14 14 -33
15 -17 1 -48 9 -67 17 -19 8 -63 25 -98 38 l-62 24 127 -3 c89 -2 129 1 134 9
7 12 -31 65 -103 143 -29 30 -45 40 -70 40 -17 0 -33 -5 -35 -12 -3 -8 7 -11
32 -9 20 1 38 -1 41 -6 3 -4 -55 -7 -128 -6 -105 2 -114 3 -45 5 70 3 87 7 87
19 0 13 -16 15 -102 12 -97 -3 -103 -4 -100 -23 6 -34 -15 -5 -56 76 l-37 74
-243 15 c-141 9 -240 19 -235 24 4 5 -3 3 -16 -4 -16 -8 -40 -10 -70 -5 -63 9
-103 12 -351 25 -118 7 -264 18 -325 26 -60 8 -162 18 -225 24 -63 5 -128 11
-145 13 -16 2 -55 0 -85 -5z m-88 -215 c-4 -38 -6 -39 -201 -156 -396 -238
-433 -262 -414 -265 16 -2 182 93 518 299 44 27 83 49 88 49 4 0 7 -31 7 -69
0 -49 -4 -70 -14 -74 -10 -4 -14 -31 -15 -106 l-2 -101 51 0 c27 0 50 -4 50
-10 0 -7 -158 -10 -454 -10 -293 0 -457 4 -461 10 -4 6 7 10 26 10 23 0 84 32
223 117 105 64 220 134 256 155 36 22 126 76 200 122 74 45 137 79 140 75 3
-5 4 -25 2 -46z m1086 0 c42 -25 196 -119 342 -208 358 -219 351 -215 394
-215 22 0 35 -4 31 -10 -4 -6 -168 -10 -461 -10 -296 0 -454 3 -454 10 0 6 20
10 45 10 l45 0 0 100 c0 80 -3 102 -15 106 -11 5 -15 23 -15 75 0 38 4 69 8
69 4 0 48 -25 98 -56 318 -200 482 -296 501 -292 9 2 -36 35 -108 79 -200 123
-431 264 -466 284 -29 17 -33 24 -33 62 0 24 3 43 6 43 3 0 40 -21 82 -47z
m-527 0 c21 -10 39 -22 39 -26 0 -5 7 -15 15 -23 20 -20 19 -73 -2 -96 -15
-17 -14 -18 20 -18 41 0 53 -26 15 -32 -14 -2 -22 -11 -23 -25 -1 -13 2 -23 7
-23 19 0 6 -19 -19 -29 -16 -5 -37 -17 -48 -26 -16 -13 -17 -19 -8 -33 7 -9
22 -37 34 -62 13 -25 29 -49 36 -53 7 -4 13 -15 13 -22 0 -13 28 -15 163 -16
93 -1 151 -4 137 -9 -33 -10 -818 -10 -850 0 -15 5 32 8 123 9 121 1 147 4
147 16 0 7 6 18 14 22 8 4 28 36 46 70 32 60 32 62 14 81 -11 11 -31 23 -46
27 -27 7 -39 25 -17 25 6 0 9 10 7 23 -2 14 -10 22 -23 22 -11 0 -21 8 -23 18
-3 14 4 17 44 17 47 0 48 1 26 16 -25 17 -31 74 -9 96 8 7 12 19 9 26 -2 7 5
12 16 12 11 0 25 7 32 15 17 20 65 19 111 -2z m-1521 -53 c0 -5 -5 -10 -11
-10 -5 0 -7 5 -4 10 3 6 8 10 11 10 2 0 4 -4 4 -10z m-417 -7 c-13 -2 -33 -2
-45 0 -13 2 -3 4 22 4 25 0 35 -2 23 -4z m537 -313 c0 -6 -52 -10 -136 -10
-87 0 -133 4 -129 10 4 6 60 10 136 10 79 0 129 -4 129 -10z m2940 0 c0 -6
-52 -10 -135 -10 -83 0 -135 4 -135 10 0 6 52 10 135 10 83 0 135 -4 135 -10z
m-2965 -30 c-3 -5 -14 -10 -23 -11 -12 0 -13 -2 -3 -6 11 -4 11 -7 0 -14 -19
-11 -22 -79 -3 -79 19 0 18 -10 -3 -26 -12 -9 -50 -13 -115 -14 l-98 0 0 80 0
80 126 0 c81 0 123 -4 119 -10z m2966 -10 c1 -11 2 -27 2 -35 0 -8 -1 -35 -2
-60 l-1 -45 -97 0 c-69 1 -104 5 -117 15 -17 13 -17 15 -3 21 19 7 25 84 6 84
-5 0 -7 5 -4 10 3 6 -1 10 -9 10 -8 0 -18 5 -21 10 -4 6 38 10 119 10 119 0
126 -1 127 -20z m-2068 -47 c-7 -2 -13 -11 -13 -19 0 -8 -4 -14 -10 -14 -5 0
-10 -18 -10 -40 0 -30 4 -40 16 -40 8 0 12 -4 9 -10 -4 -6 -153 -10 -416 -10
-266 0 -409 3 -409 10 0 6 6 10 14 10 10 0 13 11 11 38 -1 20 -4 38 -5 40 -1
1 -3 7 -4 13 0 7 -10 15 -21 20 -11 4 176 8 415 8 239 -1 429 -3 423 -6z
m1782 -7 c-11 -8 -21 -31 -24 -57 l-6 -44 -385 0 -385 0 -3 38 c-2 20 -7 37
-13 37 -5 0 -9 6 -9 14 0 8 -6 17 -12 19 -7 3 182 6 421 6 368 1 432 -1 416
-13z m-895 -56 c0 -7 -142 -10 -405 -10 -263 0 -405 3 -405 10 0 7 142 10 405
10 263 0 405 -3 405 -10z m-37 -27 c-20 -7 -17 -103 2 -103 8 0 15 -4 15 -10
0 -6 -137 -10 -390 -10 -253 0 -390 4 -390 10 0 6 7 10 15 10 8 0 16 8 16 18
1 9 3 28 4 42 2 14 -4 31 -13 38 -13 10 59 12 369 11 211 0 378 -3 372 -6z
m-1738 -43 c41 -2 45 -3 25 -10 -34 -11 -278 -12 -284 -1 -11 17 10 21 108 17
56 -2 124 -5 151 -6z m2645 0 c0 -7 -132 -10 -390 -10 -242 0 -390 4 -390 10
0 5 149 9 390 10 259 0 390 -3 390 -10z m308 5 c53 -13 3 -25 -102 -25 -113 0
-176 7 -176 19 0 8 248 13 278 6z m-2139 -50 c-25 -25 -29 -26 -150 -25 -68 1
-146 1 -174 1 -208 -1 -311 2 -319 10 -6 5 -18 9 -27 9 -9 0 -22 7 -29 15 -11
13 30 15 356 15 l369 0 -26 -25z m1790 9 c-6 -8 -17 -14 -23 -14 -7 0 -17 -5
-23 -11 -14 -14 -249 -14 -287 0 -18 7 -34 8 -45 1 -10 -5 -77 -10 -149 -11
-108 -1 -134 2 -147 15 -9 9 -21 16 -26 16 -5 0 -9 4 -9 9 0 6 140 10 360 9
306 0 359 -2 349 -14z m-2682 -34 c-4 -17 0 -20 29 -20 24 0 34 -5 34 -15 0
-13 -22 -15 -140 -15 -118 0 -140 2 -140 15 0 10 10 15 34 15 29 0 33 3 29 20
-5 19 0 20 77 20 77 0 82 -1 77 -20z m3030 0 c-4 -17 0 -20 29 -20 24 0 34 -5
34 -15 0 -13 -19 -15 -135 -13 -79 2 -136 7 -138 13 -1 6 12 11 29 13 26 3 31
7 27 23 -5 18 0 19 77 19 77 0 82 -1 77 -20z m-2614 -38 c10 -1 17 -10 17 -22
0 -16 7 -20 30 -20 32 0 41 -15 13 -22 -29 -7 -223 -9 -244 -3 -29 10 -23 23
14 27 20 2 32 9 33 18 1 8 2 18 2 22 2 5 73 5 135 0z m437 -17 c0 -21 5 -25
31 -25 20 0 29 -4 26 -12 -3 -10 -39 -13 -137 -13 -98 0 -134 3 -138 13 -2 8
7 12 27 12 24 0 31 4 31 19 0 24 6 26 91 29 67 2 69 1 69 -23z m1333 16 c4 -1
7 -10 7 -21 0 -16 7 -20 30 -20 30 0 41 -14 18 -23 -29 -10 -261 -2 -265 10
-3 7 9 13 29 15 21 2 33 9 34 18 1 8 2 18 2 22 2 5 103 5 145 -1z m427 -16 c0
-21 5 -25 31 -25 20 0 29 -4 27 -12 -4 -10 -40 -13 -138 -13 -98 0 -134 3
-137 13 -3 8 6 12 26 12 24 0 31 4 31 19 0 24 4 25 90 29 69 3 70 2 70 -23z
m-849 -9 c-6 -7 -8 -21 -5 -31 6 -16 -5 -17 -145 -13 -121 2 -154 6 -161 18
-9 13 -11 13 -20 0 -7 -12 -38 -16 -145 -18 -149 -4 -174 0 -156 22 10 11 8
17 -6 25 -13 7 78 10 316 11 282 0 332 -2 322 -14z m-1776 -53 c5 -13 13 -23
17 -23 5 0 8 -4 8 -10 0 -5 -7 -10 -15 -10 -13 0 -15 -56 -15 -447 l0 -448
-60 -3 -60 -2 0 450 c0 393 -2 450 -15 450 -8 0 -15 5 -15 10 0 6 5 10 10 10
6 0 10 6 10 13 0 26 25 38 75 35 41 -2 52 -7 60 -25z m3020 17 c-3 -5 1 -10
10 -10 11 0 15 -5 11 -15 -3 -8 -1 -15 4 -15 6 0 10 -4 10 -10 0 -5 -7 -10
-15 -10 -13 0 -15 -59 -17 -447 l-3 -448 -55 0 -55 0 -3 448 c-2 388 -4 447
-17 447 -8 0 -15 5 -15 10 0 6 5 10 10 10 6 0 10 6 10 13 0 7 5 18 12 25 15
15 122 17 113 2z m-3995 -40 c0 -5 -4 -10 -10 -10 -5 0 -10 5 -10 10 0 6 5 10
10 10 6 0 10 -4 10 -10z m513 -7 c-7 -2 -19 -2 -25 0 -7 3 -2 5 12 5 14 0 19
-2 13 -5z m889 -17 c4 -6 6 -17 3 -23 -2 -7 1 -12 7 -10 6 1 13 -4 15 -10 3
-7 -2 -13 -11 -13 -14 0 -16 -42 -16 -405 l0 -405 -60 0 -60 0 0 404 c0 352
-2 405 -15 410 -13 5 -13 9 -3 28 23 40 40 48 88 41 25 -3 48 -11 52 -17z
m425 -14 c27 -32 29 -42 8 -42 -13 0 -15 -52 -15 -405 l0 -406 -57 3 -58 3 -3
403 c-2 348 -4 402 -17 402 -21 0 -19 8 11 48 25 32 29 34 68 28 28 -4 48 -15
63 -34z m470 19 c-4 -16 1 -20 26 -23 17 -2 32 -9 35 -15 3 -10 -29 -13 -137
-13 -119 0 -141 2 -141 15 0 10 10 15 30 15 23 0 30 4 30 20 0 18 7 20 81 20
76 0 81 -1 76 -19z m430 0 c-4 -16 1 -20 26 -23 17 -2 32 -8 34 -15 5 -14 -62
-19 -189 -15 -68 3 -88 7 -88 18 0 9 11 14 34 14 29 0 33 3 29 20 -5 19 0 20
77 20 77 0 82 -1 77 -19z m429 6 c0 -1 8 -14 17 -29 21 -33 21 -38 2 -38 -13
0 -15 -52 -15 -405 l0 -405 -60 0 -60 0 0 401 c0 344 -2 403 -15 413 -13 9
-11 16 12 44 25 32 28 33 72 27 25 -4 46 -8 47 -8z m430 -11 c6 -7 15 -22 18
-34 6 -16 3 -22 -8 -22 -14 0 -16 -44 -16 -405 l0 -406 -57 3 -58 3 -3 403
c-2 348 -4 402 -17 402 -18 0 -19 4 -2 32 26 46 30 48 81 42 28 -4 55 -12 62
-18z m-1957 -85 c18 -13 35 -37 41 -59 8 -25 10 -161 8 -405 l-3 -368 85 1
c119 2 120 2 120 -15 0 -12 19 -15 110 -15 91 0 110 3 110 15 0 12 19 15 108
15 l107 0 0 388 c0 357 1 390 18 406 9 10 17 21 17 26 0 5 20 16 44 25 55 21
106 8 138 -36 26 -35 40 -37 53 -6 8 18 19 23 58 25 47 3 85 -16 73 -37 -3 -5
2 -12 12 -16 16 -6 16 -7 0 -19 -16 -12 -18 -44 -20 -357 l-3 -344 -57 -3 -58
-3 0 351 c0 273 -3 350 -12 350 -10 0 -12 -76 -10 -355 2 -233 -1 -362 -8
-375 -10 -19 -6 -19 97 -22 80 -2 107 -6 106 -15 -2 -10 23 -13 102 -13 58 0
108 0 113 0 4 0 7 4 7 9 0 20 18 23 117 22 82 -2 100 1 90 11 -9 9 -12 98 -12
370 0 299 3 364 15 395 40 97 163 110 225 24 20 -30 21 -37 18 -416 l-3 -386
85 1 c119 2 120 2 120 -15 0 -14 20 -16 143 -15 78 1 209 1 291 0 l148 0 -4
-45 c-3 -42 -2 -44 26 -47 41 -4 47 -28 7 -28 l-31 0 0 -70 0 -70 -36 0 c-19
0 -42 -7 -50 -15 -21 -21 -251 -20 -309 0 -50 18 -147 19 -163 3 -9 -9 -60
-14 -162 -16 -131 -3 -151 -2 -156 12 -5 14 -9 14 -22 4 -10 -9 -61 -14 -157
-16 -119 -3 -144 -1 -158 12 -14 14 -77 16 -580 16 -504 0 -566 -2 -578 -16
-11 -13 -35 -15 -163 -12 -112 2 -150 6 -154 16 -3 10 -8 9 -23 -4 -16 -14
-38 -16 -165 -12 -105 2 -149 7 -152 16 -5 17 -149 17 -154 0 -3 -9 -47 -14
-154 -16 -128 -4 -152 -2 -163 12 -7 9 -24 16 -37 16 -23 0 -24 3 -24 70 0 63
-2 70 -20 70 -11 0 -20 7 -20 15 0 10 10 15 29 15 25 0 28 3 23 25 -2 14 -9
25 -14 25 -5 0 -8 8 -6 18 4 21 -6 20 321 21 157 1 256 5 252 10 -11 18 18 23
118 22 81 -2 99 1 89 11 -9 9 -12 100 -12 383 0 353 1 371 20 403 38 63 126
78 189 33z m641 -14 c8 -7 21 -23 28 -35 12 -21 11 -24 -8 -29 -20 -5 -20 -9
-20 -352 l1 -346 -55 -3 -56 -3 0 347 c0 319 -1 348 -17 360 -13 9 -15 16 -7
21 6 5 14 18 18 31 6 19 14 22 54 22 26 0 54 -6 62 -13z m2000 -107 c0 -5 -5
-10 -11 -10 -5 0 -7 5 -4 10 3 6 8 10 11 10 2 0 4 -4 4 -10z m-4520 -420 c0
-5 -2 -10 -4 -10 -3 0 -8 5 -11 10 -3 6 -1 10 4 10 6 0 11 -4 11 -10z m740 3
c0 -7 -275 -7 -605 0 -71 1 35 4 238 5 202 1 367 -1 367 -5z m4549 2 c-7 -6
-730 -7 -737 0 -3 3 163 5 368 5 205 0 371 -2 369 -5z m-5558 -416 c-5 -13
-10 -19 -10 -12 -1 15 10 45 15 40 3 -2 0 -15 -5 -28z m1007 -75 c12 -4 22 -9
22 -13 0 -10 -981 -1 -999 9 -18 10 938 14 977 4z m1795 -161 c1 -5 -50 -9
-113 -11 -117 -3 -200 4 -200 16 0 10 309 4 313 -5z m597 6 c0 -13 -64 -19
-186 -19 -67 0 -125 4 -128 9 -4 5 -1 11 4 13 19 6 310 3 310 -3z m-1970 -19
c0 -16 7 -20 30 -20 19 0 30 -5 30 -14 0 -11 -19 -15 -82 -18 -129 -5 -210 1
-205 15 2 7 18 13 36 15 22 2 31 8 27 17 -8 22 4 25 86 25 71 0 78 -2 78 -20z
m577 1 c-4 -16 1 -20 26 -23 17 -2 32 -8 34 -15 3 -8 -24 -13 -94 -15 -142 -4
-193 0 -193 18 0 9 11 14 34 14 29 0 33 3 29 20 -5 19 0 20 82 20 82 0 87 -1
82 -19z m333 0 c0 -15 8 -21 32 -23 17 -2 33 -8 35 -15 3 -9 -28 -13 -115 -15
-129 -3 -176 1 -176 17 -1 6 14 11 32 13 24 2 32 8 32 23 0 17 8 19 80 19 72
0 80 -2 80 -19z m1377 -1 c-4 -17 0 -20 23 -20 26 0 48 -15 38 -25 -4 -5 -106
-8 -210 -6 -62 1 -78 4 -78 16 0 10 10 15 30 15 23 0 30 4 30 20 0 18 7 20 86
20 81 0 86 -1 81 -20z m333 1 c0 -15 8 -21 32 -23 43 -4 48 -26 6 -30 -63 -6
-258 7 -258 17 0 10 6 12 47 14 16 1 20 6 16 21 -5 19 0 20 76 20 73 0 81 -2
81 -19z m580 -1 c0 -16 7 -20 30 -20 40 0 42 -30 3 -31 -62 -3 -258 3 -263 7
-8 8 24 24 48 24 19 0 22 4 17 20 -6 19 -2 20 79 20 79 0 86 -2 86 -20z
m-2912 -46 c22 -8 48 -26 59 -38 46 -53 48 -75 48 -544 l0 -443 93 3 c50 2 92
6 92 11 0 4 0 205 0 447 0 384 -2 440 -15 440 -13 0 -15 -54 -15 -426 l0 -426
-31 6 c-17 3 -44 6 -60 6 l-29 0 0 420 c0 367 -2 420 -15 420 -20 0 -19 4 8
45 22 35 23 36 72 29 54 -7 75 -18 75 -40 0 -20 18 -17 47 6 33 26 63 25 97
-1 26 -21 46 -19 46 5 0 26 26 36 76 29 42 -5 52 -11 71 -39 21 -33 21 -34 3
-34 -20 0 -20 -10 -20 -425 l0 -426 -27 5 c-16 2 -43 5 -60 5 l-33 1 0 420 c0
273 -3 420 -10 420 -7 0 -10 -151 -10 -434 0 -279 -4 -437 -10 -441 -28 -17
-1 -25 91 -25 93 0 100 1 93 17 -5 10 -10 200 -12 421 -3 392 -2 405 18 447
22 45 66 75 112 75 38 0 90 -33 110 -70 17 -32 18 -67 18 -462 l0 -427 107 -3
c71 -2 108 -7 110 -15 3 -7 -9 -13 -29 -16 -18 -2 48 -4 147 -4 99 0 170 2
157 4 -13 3 -21 10 -19 16 2 8 41 13 115 15 l112 3 0 432 c0 323 3 438 13 456
30 59 109 85 170 56 67 -31 67 -33 67 -504 0 -330 -3 -421 -12 -421 -9 0 -8
-4 2 -10 19 -12 187 -13 195 -1 3 5 1 12 -5 16 -6 4 -10 157 -10 441 0 379 -2
434 -15 434 -13 0 -15 -53 -15 -420 0 -393 -1 -420 -17 -421 -10 0 -37 -2 -60
-4 l-43 -4 0 425 c0 370 -2 424 -15 424 -8 0 -15 5 -15 10 0 6 3 10 8 10 4 0
12 10 17 22 14 33 98 48 125 23 11 -10 17 -22 14 -26 -11 -18 27 -21 47 -3 24
22 83 22 108 0 24 -22 39 -20 43 6 2 19 12 24 57 31 46 8 56 6 71 -10 26 -27
35 -63 16 -63 -14 0 -16 -45 -16 -420 l0 -420 -22 0 c-13 0 -40 -3 -60 -6
l-38 -7 0 428 c0 337 -3 426 -12 422 -10 -3 -14 -104 -15 -450 l-2 -447 99 0
99 0 1 455 c0 269 5 466 10 481 22 56 96 104 161 104 53 0 121 -28 114 -47 -2
-7 2 -10 11 -6 9 3 20 -9 34 -38 19 -42 20 -67 20 -496 l0 -453 120 0 c100 0
120 -2 120 -15 0 -12 -20 -15 -118 -15 -65 0 -122 3 -125 6 -8 8 -318 7 -338
-1 -8 -3 -212 -6 -454 -8 -285 -1 -179 -3 303 -5 652 -2 742 -4 742 -17 0 -13
-200 -15 -1740 -15 -1540 0 -1740 2 -1740 15 0 13 85 15 703 17 l702 1 -548 8
c-502 7 -551 9 -568 25 -19 17 -19 34 -17 479 2 354 6 464 16 475 7 8 21 25
31 37 40 50 128 66 199 37z m1062 6 c-10 -6 42 -10 156 -10 105 0 174 4 180
10 6 6 43 10 85 8 58 -2 74 -6 74 -18 0 -9 12 -17 29 -20 16 -3 31 -10 33 -16
6 -18 -48 -24 -151 -17 -54 3 -96 2 -96 -3 0 -5 12 -17 26 -27 20 -15 35 -17
78 -12 53 7 54 7 67 -24 8 -17 17 -31 21 -31 17 0 7 -18 -12 -23 -20 -5 -20
-12 -20 -399 l1 -393 -306 -3 -305 -2 0 400 c0 349 -2 400 -15 400 -20 0 -19
8 5 48 20 32 21 32 75 26 49 -6 58 -4 75 14 11 12 20 23 20 26 0 3 -42 3 -93
2 -109 -4 -159 2 -154 18 2 6 18 12 36 14 22 2 31 8 27 17 -8 22 4 25 93 25
59 0 81 -3 71 -10z m-1372 -72 c6 -6 12 -17 12 -24 0 -8 5 -14 10 -14 6 0 10
-4 10 -10 0 -5 -7 -10 -15 -10 -13 0 -15 -53 -15 -420 l0 -420 -27 -1 c-16 -1
-43 -3 -60 -5 l-33 -2 0 424 c0 370 -2 424 -15 424 -18 0 -18 1 -2 31 26 50
27 50 75 43 26 -3 53 -11 60 -16z m3204 -8 c7 -16 16 -30 20 -30 5 0 8 -4 8
-10 0 -5 -7 -10 -15 -10 -13 0 -15 -54 -15 -423 l0 -424 -30 2 c-16 1 -43 2
-60 3 l-30 2 0 416 c0 407 0 416 -20 421 -19 5 -29 23 -12 23 4 0 12 10 17 23
7 14 22 24 45 28 69 12 78 10 92 -21z m-3532 -142 c0 -4 -253 -7 -562 -6
l-563 3 545 5 c300 3 553 5 563 5 9 1 17 -3 17 -7z m-1123 -350 c-3 -7 -5 -2
-5 12 0 14 2 19 5 13 2 -7 2 -19 0 -25z m1050 10 c-3 -8 -6 -5 -6 6 -1 11 2
17 5 13 3 -3 4 -12 1 -19z m4576 5 c-123 -2 -323 -2 -445 0 -123 1 -23 2 222
2 245 0 345 -1 223 -2z m-5580 -230 c-7 -2 -21 -2 -30 0 -10 3 -4 5 12 5 17 0
24 -2 18 -5z m3107 -218 c0 -16 -322 -13 -328 3 -3 10 31 12 162 10 102 -2
166 -7 166 -13z m-1640 -41 c0 -12 -21 -14 -122 -12 -76 2 -122 7 -121 13 6
25 243 24 243 -1z"/>
<path d="M1988 3333 c29 -2 74 -2 100 0 26 2 2 3 -53 3 -55 0 -76 -1 -47 -3z"/>
<path d="M4948 3333 c6 -2 18 -2 25 0 6 3 1 5 -13 5 -14 0 -19 -2 -12 -5z"/>
<path d="M5027 3333 c18 -2 50 -2 70 0 21 2 7 4 -32 4 -38 0 -55 -2 -38 -4z"/>
<path d="M2375 3280 c-3 -5 -1 -10 4 -10 6 0 11 5 11 10 0 6 -2 10 -4 10 -3 0
-8 -4 -11 -10z"/>
<path d="M2625 3280 c-3 -5 -1 -10 4 -10 6 0 11 5 11 10 0 6 -2 10 -4 10 -3 0
-8 -4 -11 -10z"/>
<path d="M4060 3280 c0 -5 9 -8 20 -7 21 1 18 10 -5 13 -8 1 -15 -2 -15 -6z"/>
<path d="M4305 3280 c-3 -5 -1 -10 4 -10 6 0 11 5 11 10 0 6 -2 10 -4 10 -3 0
-8 -4 -11 -10z"/>
<path d="M3503 2660 c-25 -10 -49 -43 -58 -82 l-7 -28 116 0 c104 0 116 2 116
18 0 21 -30 67 -56 87 -21 16 -77 19 -111 5z"/>
<path d="M3462 2532 l-22 -3 2 -172 3 -172 110 0 110 0 0 174 0 173 -90 2
c-49 1 -100 0 -113 -2z"/>
<path d="M3457 1995 c-6 -13 8 -15 94 -15 76 0 100 3 97 13 -3 8 -34 13 -95
15 -74 2 -92 0 -96 -13z"/>
<path d="M2580 1990 c0 -6 39 -10 96 -10 61 0 93 4 89 10 -3 6 -46 10 -96 10
-53 0 -89 -4 -89 -10z"/>
<path d="M4340 1990 c0 -6 39 -10 96 -10 61 0 93 4 89 10 -3 6 -46 10 -96 10
-53 0 -89 -4 -89 -10z"/>
<path d="M2693 1893 c482 -2 1272 -2 1755 0 482 1 87 2 -878 2 -965 0 -1360
-1 -877 -2z"/>
<path d="M3258 533 c17 -2 47 -2 65 0 17 2 3 4 -33 4 -36 0 -50 -2 -32 -4z"/>
<path d="M3748 533 c7 -3 16 -2 19 1 4 3 -2 6 -13 5 -11 0 -14 -3 -6 -6z"/>
<path d="M3498 1563 c34 -2 88 -2 120 0 31 2 3 3 -63 3 -66 0 -92 -1 -57 -3z"/>
<path d="M3387 1459 c14 -14 6 -39 -13 -39 -12 0 -14 -58 -14 -350 l0 -350
191 0 191 0 -3 346 c-3 324 -4 347 -21 352 -19 5 -25 32 -7 32 5 0 7 5 4 10
-4 6 -72 10 -173 10 -123 0 -163 -3 -155 -11z m298 -9 c-4 -6 -49 -9 -108 -8
l-102 2 105 6 c58 3 106 7 108 8 2 1 0 -2 -3 -8z"/>
<path d="M3360 690 c0 -6 70 -10 190 -10 120 0 190 4 190 10 0 6 -70 10 -190
10 -120 0 -190 -4 -190 -10z"/>
<path d="M3369 651 c19 -12 343 -13 361 -1 10 7 -47 10 -180 10 -114 0 -189
-4 -181 -9z"/>
<path d="M4410 3953 c-19 -14 -26 -23 -15 -19 11 4 149 9 307 9 159 1 288 6
288 10 0 4 -122 7 -270 5 -213 -2 -269 0 -265 10 7 18 -5 14 -45 -15z"/>
<path d="M4107 3964 c-3 -3 -139 -5 -303 -6 -207 0 -279 -3 -236 -9 94 -12
392 -17 430 -6 23 6 38 5 48 -4 11 -9 20 -9 42 1 15 8 33 12 40 11 6 -1 12 0
12 2 0 8 -28 16 -33 11z"/>
<path d="M5007 3963 c-11 -10 -8 -25 3 -18 6 4 19 1 28 -6 13 -11 12 -8 -2 9
-22 25 -20 24 -29 15z"/>
<path d="M4123 3933 c9 -2 23 -2 30 0 6 3 -1 5 -18 5 -16 0 -22 -2 -12 -5z"/>
<path d="M2205 3884 c-22 -19 -24 -23 -7 -14 12 6 26 9 30 6 4 -2 8 4 8 15 0
10 0 19 -1 19 0 -1 -13 -12 -30 -26z"/>
<path d="M1610 3449 c-91 -4 -169 -4 -174 -1 -5 3 -6 0 -2 -6 5 -8 59 -12 177
-12 144 0 169 2 169 15 0 8 -1 14 -2 13 -2 0 -77 -4 -168 -9z"/>
<path d="M5350 3445 c0 -8 9 -15 20 -15 11 0 20 5 20 11 0 6 -7 8 -16 5 -8 -3
-12 -2 -9 4 3 6 1 10 -4 10 -6 0 -11 -7 -11 -15z"/>
<path d="M5400 3441 c0 -5 5 -13 10 -16 6 -3 10 -2 10 4 0 5 -4 13 -10 16 -5
3 -10 2 -10 -4z"/>
<path d="M1379 3403 l-34 -38 38 34 c34 33 42 41 34 41 -2 0 -19 -17 -38 -37z"/>
<path d="M1326 3344 c-5 -14 -4 -15 9 -4 17 14 19 20 6 20 -5 0 -12 -7 -15
-16z"/>
<path d="M1287 3309 c-40 -24 3 -29 233 -29 181 0 240 3 243 13 4 9 6 9 6 -1
1 -15 21 -6 21 9 0 6 -88 9 -244 7 -134 -2 -242 0 -239 5 6 9 2 9 -20 -4z"/>
<path d="M1186 3186 c6 -14 35 -16 298 -14 l291 3 -284 2 c-192 2 -289 7 -298
15 -11 8 -12 7 -7 -6z"/>
<path d="M5400 3182 c-34 -12 5 -17 106 -14 64 2 114 6 111 8 -6 6 -201 11
-217 6z"/>
<path d="M1160 3169 c0 -5 5 -7 10 -4 6 3 10 8 10 11 0 2 -4 4 -10 4 -5 0 -10
-5 -10 -11z"/>
<path d="M1158 3093 c7 -3 16 -2 19 1 4 3 -2 6 -13 5 -11 0 -14 -3 -6 -6z"/>
<path d="M5483 3093 c26 -2 67 -2 90 0 23 2 2 3 -48 3 -49 0 -68 -1 -42 -3z"/>
<path d="M6097 2543 c-4 -3 -7 -11 -7 -17 0 -6 5 -5 12 2 6 6 9 14 7 17 -3 3
-9 2 -12 -2z"/>
<path d="M1078 2533 c111 -2 293 -2 405 0 111 1 20 2 -203 2 -223 0 -314 -1
-202 -2z"/>
<path d="M1698 2533 c6 -2 18 -2 25 0 6 3 1 5 -13 5 -14 0 -19 -2 -12 -5z"/>
<path d="M5398 2533 c6 -2 18 -2 25 0 6 3 1 5 -13 5 -14 0 -19 -2 -12 -5z"/>
<path d="M5598 2533 c89 -2 235 -2 325 0 89 1 16 3 -163 3 -179 0 -252 -2
-162 -3z"/>
<path d="M6360 1790 c0 -5 5 -10 11 -10 5 0 7 5 4 10 -3 6 -8 10 -11 10 -2 0
-4 -4 -4 -10z"/>
<path d="M563 1700 c0 -30 2 -43 4 -27 2 15 2 39 0 55 -2 15 -4 2 -4 -28z"/>
<path d="M6391 1694 c0 -11 3 -14 6 -6 3 7 2 16 -1 19 -3 4 -6 -2 -5 -13z"/>
<path d="M843 1623 c141 -2 373 -2 515 0 141 1 25 2 -258 2 -283 0 -399 -1
-257 -2z"/>
<path d="M5733 1623 c114 -2 300 -2 415 0 114 1 20 2 -208 2 -228 0 -322 -1
-207 -2z"/>
<path d="M6373 1623 c9 -2 23 -2 30 0 6 3 -1 5 -18 5 -16 0 -22 -2 -12 -5z"/>
<path d="M6410 1551 c0 -8 -134 -11 -441 -11 -291 0 -438 -3 -434 -10 10 -15
875 -14 875 2 0 6 7 3 15 -8 9 -12 14 -14 15 -6 0 7 -7 20 -15 28 -8 9 -15 11
-15 5z"/>
<path d="M590 1530 c0 -7 178 -10 515 -10 337 0 515 3 515 10 0 7 -178 10
-515 10 -337 0 -515 -3 -515 -10z"/>
<path d="M1628 1183 c7 -3 16 -2 19 1 4 3 -2 6 -13 5 -11 0 -14 -3 -6 -6z"/>
<path d="M5548 1183 c6 -2 18 -2 25 0 6 3 1 5 -13 5 -14 0 -19 -2 -12 -5z"/>
<path d="M533 705 c0 -27 2 -38 4 -22 2 15 2 37 0 50 -2 12 -4 0 -4 -28z"/>
<path d="M531 634 c0 -11 3 -14 6 -6 3 7 2 16 -1 19 -3 4 -6 -2 -5 -13z"/>
<path d="M1530 629 c0 -5 5 -7 10 -4 6 3 10 8 10 11 0 2 -4 4 -10 4 -5 0 -10
-5 -10 -11z"/>
<path d="M1560 629 c0 -5 5 -7 10 -4 6 3 10 8 10 11 0 2 -4 4 -10 4 -5 0 -10
-5 -10 -11z"/>
<path d="M5480 630 c-13 -8 -12 -10 3 -10 9 0 17 5 17 10 0 12 -1 12 -20 0z"/>
<path d="M5470 530 c0 -5 7 -10 15 -10 8 0 15 5 15 10 0 6 -7 10 -15 10 -8 0
-15 -4 -15 -10z"/>
<path d="M5510 530 c0 -6 172 -10 485 -9 294 0 485 4 485 10 0 5 -191 9 -485
9 -313 0 -485 -4 -485 -10z"/>
<path d="M521 434 c0 -11 3 -14 6 -6 3 7 2 16 -1 19 -3 4 -6 -2 -5 -13z"/>
</g>
</svg>
