<?xml version="1.0" standalone="no"?>
<!DOCTYPE svg PUBLIC "-//W3C//DTD SVG 20010904//EN"
 "http://www.w3.org/TR/2001/REC-SVG-20010904/DTD/svg10.dtd">
<svg version="1.0" xmlns="http://www.w3.org/2000/svg"
 width="283.000000pt" height="178.000000pt" viewBox="0 0 283.000000 178.000000"
 preserveAspectRatio="xMidYMid meet">

<g transform="translate(0.000000,178.000000) scale(0.100000,-0.100000)"
fill="#000000" stroke="none">
<path d="M1412 1718 l-2 -68 -55 -55 -55 -55 113 0 113 0 -52 54 c-52 54 -53
56 -57 123 l-3 68 -2 -67z"/>
<path d="M1202 1468 c-96 -77 -131 -149 -132 -268 0 -55 5 -86 19 -113 10 -20
15 -40 10 -43 -5 -3 -9 -34 -9 -70 l0 -64 -44 0 -44 0 -4 63 c-2 37 2 73 10
89 18 38 -3 85 -62 134 -40 33 -46 43 -46 76 0 20 -4 40 -10 43 -6 4 -10 -10
-10 -34 0 -36 -6 -46 -61 -100 -59 -57 -61 -61 -54 -98 3 -21 9 -68 12 -105 5
-67 4 -68 -21 -68 -15 0 -30 -8 -36 -19 -6 -13 -10 -140 -10 -346 l0 -326 -62
3 -63 3 -6 75 c-3 41 -3 80 0 85 10 18 12 55 3 55 -14 0 -25 207 -12 231 9 16
8 23 -3 32 -21 16 -29 248 -9 266 16 16 15 31 -3 31 -18 0 -21 65 -4 76 8 5 6
10 -5 16 -9 5 -16 18 -16 29 0 11 -7 22 -15 25 -8 4 -15 15 -15 25 0 10 -4 19
-10 19 -5 0 -10 -8 -10 -19 0 -10 -7 -24 -15 -31 -8 -7 -15 -21 -15 -30 0 -10
-6 -21 -12 -24 -10 -5 -10 -7 0 -12 18 -8 15 -61 -4 -72 -13 -7 -14 -13 -5
-30 21 -40 8 -272 -15 -272 -17 0 -18 -17 -1 -23 19 -6 11 -229 -9 -240 -12
-7 -12 -11 1 -30 16 -23 19 -66 9 -141 l-7 -46 -48 0 c-26 0 -50 4 -53 9 -9
15 -11 215 -2 249 7 26 6 32 -8 32 -14 0 -16 17 -18 123 -2 150 0 181 12 185
18 6 11 32 -8 32 -17 0 -19 13 -25 156 -6 148 -6 158 14 186 21 29 21 29 1 35
-34 8 -44 77 -14 99 16 13 16 13 0 14 -12 0 -18 8 -18 24 0 14 -11 33 -25 44
-15 12 -25 30 -25 47 0 15 -4 24 -10 20 -5 -3 -10 -15 -10 -27 0 -11 -9 -31
-20 -45 -11 -14 -20 -34 -20 -44 0 -9 -6 -20 -12 -23 -10 -5 -10 -7 0 -12 7
-3 12 -24 12 -50 0 -36 -3 -44 -18 -44 -30 0 -33 -11 -12 -40 18 -25 19 -39
13 -183 -5 -118 -9 -157 -19 -157 -20 0 -28 -21 -13 -31 21 -13 15 -300 -6
-312 -16 -9 -21 -37 -6 -37 17 0 23 -61 16 -156 l-7 -94 -36 0 -37 0 3 -110 3
-110 1405 0 1404 0 0 110 0 110 -34 0 -33 0 -7 61 c-10 98 -7 152 10 184 14
27 14 31 -1 41 -22 16 -28 300 -6 313 15 10 7 31 -13 31 -17 0 -32 305 -17
324 6 7 8 16 4 19 -3 4 -1 7 5 7 7 0 12 7 12 15 0 8 -9 15 -20 15 -17 0 -20 7
-20 44 0 26 5 47 13 50 10 5 10 7 0 12 -7 3 -13 14 -13 25 0 11 -12 32 -26 46
-16 16 -24 33 -21 44 3 11 1 22 -4 25 -5 3 -9 -7 -9 -21 0 -17 -10 -35 -25
-47 -14 -11 -25 -30 -25 -44 0 -15 -6 -24 -15 -24 -8 0 -15 -4 -15 -10 0 -5 7
-10 16 -10 13 0 15 -7 10 -31 -3 -17 -6 -37 -6 -44 0 -7 -10 -15 -21 -18 l-21
-6 20 -29 c20 -27 21 -38 15 -185 -5 -118 -9 -157 -19 -157 -19 0 -28 -21 -13
-31 7 -4 10 -11 6 -15 -4 -4 -3 -12 1 -18 4 -6 6 -71 4 -143 -3 -110 -6 -133
-19 -133 -16 0 -16 -45 0 -67 5 -6 5 -59 1 -117 l-7 -106 -52 0 -52 0 -7 38
c-10 64 -7 127 9 149 13 19 14 23 1 30 -20 11 -28 234 -8 240 17 6 15 23 -2
23 -26 0 -35 231 -12 283 6 12 4 17 -8 17 -20 0 -23 66 -3 73 8 4 9 8 2 14 -6
4 -16 19 -23 33 -7 14 -19 36 -27 50 -15 25 -15 25 -15 3 0 -13 -5 -23 -11
-23 -5 0 -15 -13 -20 -30 -6 -17 -16 -30 -22 -30 -7 0 -7 -4 1 -12 18 -18 16
-78 -3 -78 -18 0 -19 -5 -4 -32 18 -33 12 -250 -7 -264 -11 -9 -12 -18 -5 -36
11 -30 2 -228 -11 -228 -8 0 -7 -45 2 -54 3 -2 3 -40 0 -83 l-5 -78 -62 -3
-63 -3 0 323 c0 357 -2 368 -60 368 -28 0 -28 1 -32 63 -2 41 1 69 10 84 23
37 6 78 -54 131 -49 43 -54 51 -54 90 0 23 -4 42 -10 42 -5 0 -10 -19 -10 -43
0 -38 -5 -47 -45 -80 -62 -53 -80 -90 -66 -137 6 -21 11 -63 11 -94 0 -56 0
-56 -30 -56 l-30 0 0 63 c0 35 -5 68 -10 73 -7 7 -5 23 6 50 22 53 15 172 -14
238 -13 29 -48 74 -88 112 l-66 64 -163 0 -162 0 -51 -42z m-1042 -193 c0 -19
-4 -35 -10 -35 -5 0 -10 16 -10 35 0 19 5 35 10 35 6 0 10 -16 10 -35z m38 -2
c-2 -21 -7 -38 -13 -38 -5 0 -11 17 -13 38 -3 29 0 37 13 37 13 0 16 -8 13
-37z m32 2 c0 -19 -4 -35 -10 -35 -5 0 -10 16 -10 35 0 19 5 35 10 35 6 0 10
-16 10 -35z m2390 0 c0 -19 -4 -35 -10 -35 -5 0 -10 16 -10 35 0 19 5 35 10
35 6 0 10 -16 10 -35z m38 -2 c-2 -21 -7 -38 -13 -38 -5 0 -11 17 -13 38 -3
29 0 37 13 37 13 0 16 -8 13 -37z m32 2 c0 -19 -4 -35 -10 -35 -5 0 -10 16
-10 35 0 19 5 35 10 35 6 0 10 -16 10 -35z m-2190 -237 c0 -21 -5 -26 -20 -25
-14 1 -20 8 -20 27 0 19 5 26 20 26 15 0 20 -7 20 -28z m1870 2 c0 -19 -6 -26
-20 -27 -15 -1 -20 4 -20 25 0 21 5 28 20 28 15 0 20 -7 20 -26z m-1840 -5 c0
-14 -4 -25 -10 -25 -5 0 -10 11 -10 25 0 14 5 25 10 25 6 0 10 -11 10 -25z
m1790 0 c0 -14 -4 -25 -10 -25 -5 0 -10 11 -10 25 0 14 5 25 10 25 6 0 10 -11
10 -25z m-1369 -294 c26 -27 29 -36 29 -95 l0 -66 -70 0 -70 0 0 66 c0 59 3
68 29 95 37 36 45 36 82 0z m1020 0 c26 -27 29 -36 29 -95 l0 -66 -70 0 -70 0
0 61 c0 62 11 95 39 116 25 19 40 15 72 -16z m-487 -47 c28 -14 62 -35 74 -47
48 -44 51 -62 52 -288 l2 -214 -191 -3 -191 -2 0 209 c0 124 4 221 11 238 16
42 58 83 114 109 62 30 66 30 129 -2z m-534 -263 c21 -17 25 -29 28 -90 l4
-71 -71 0 -71 0 0 55 c0 105 49 152 110 106z m1011 6 c27 -21 39 -54 39 -111
l0 -56 -70 0 -70 0 0 65 c0 57 3 69 25 90 26 27 51 31 76 12z"/>
</g>
</svg>
